<ttFont>
          <CharString index="0">
            rmoveto
            -80 -7 -40 -29 -56 vhcurveto
            -12 24 return
          </CharString>
          <CharString index="1">
            rmoveto
            -46 callsubr
            return
          </CharString>
          <CharString index="2">
            rmoveto
            -50 -23 -50 -36 -32 -37 rrcurveto
            -18 -21 -7 -17 -9 vvcurveto
            -17 31 -14 85 vhcurveto
            6 hlineto
            18 22 29 27 48 33 rrcurveto
            7 hlineto
            37 -22 18 -14 19 -21 rrcurveto
            -15 14 17 -10 36 hhcurveto
            37 25 4 10 27 hvcurveto
            -34 59 -35 36 -51 34 rrcurveto
            26 -39 -27 5 -47 hhcurveto
            return
          </CharString>
          <CharString index="3">
            814 -102 callsubr
            return
          </CharString>
          <CharString index="4">
            -9 31 -2 34 31 vvcurveto
            return
          </CharString>
          <CharString index="5">
            rmoveto
            -21 -79 -29 -46 -62 -57 rrcurveto
            -13 23 24 -6 29 hhcurveto
            36 25 6 16 25 hvcurveto
            35 22 32 38 13 52 5 20 -5 19 -19 10 -25 13 -40 6 -46 -1 rrcurveto
            return
          </CharString>
          <CharString index="6">
            rmoveto
            -21 -17 -2 -4 -20 hvcurveto
            16 -59 5 -36 -64 vvcurveto
            -225 vlineto
            -77 51 -91 58 83 80 74 97 37 vhcurveto
            6 hlineto
            return
          </CharString>
          <CharString index="7">
            rmoveto
            -83 vlineto
            -54 49 -8 61 23 30 2 4 25 vhcurveto
            83 vlineto
            54 -49 8 -61 -23 -30 -2 -4 -25 vhcurveto
            endchar
          </CharString>
          <CharString index="8">
            4 14 3 15 16 vvcurveto
            58 -31 47 -122 vhcurveto
            -22 298 hlineto
            45 -14 36 -24 15 vhcurveto
            2 6 rlineto
            203 hlineto
            5 20 3 20 18 vvcurveto
            51 -8 41 -54 vhcurveto
            return
          </CharString>
          <CharString index="9">
            rmoveto
            -19 vlineto
            -77 24 -24 122 vhcurveto
            257 hlineto
            3 14 4 20 19 vvcurveto
            50 -17 17 -56 vhcurveto
            return
          </CharString>
          <CharString index="10">
            -138 21 41 -5 49 hhcurveto
            18 18 3 5 13 hvcurveto
            -13 32 -6 32 37 vvcurveto
            500 vlineto
            return
          </CharString>
          <CharString index="11">
            -233 89 -113 165 return
          </CharString>
          <CharString index="12">
            812 -29 callsubr
            return
          </CharString>
          <CharString index="13">
            755 -83 callsubr
            return
          </CharString>
          <CharString index="14">
            rmoveto
            87 -80 109 -138 -110 -40 -10 -24 -24 vhcurveto
            -19 -19 -9 -31 -31 vvcurveto
            -17 2 -19 3 -13 vhcurveto
            6 hlineto
            16 54 40 5 61 hhcurveto
            46 33 -4 -15 39 hvcurveto
            -8 -34 -5 -29 -4 -25 rrcurveto
            11 -36 -50 6 -57 hhcurveto
            -90 -86 -90 -69 hvcurveto
            -8 vlineto
            -108 56 -52 99 74 65 54 52 24 vhcurveto
            5 hlineto
            -52 20 43 -50 53 hhcurveto
            20 22 8 23 23 hvcurveto
            72 callsubr
          </CharString>
          <CharString index="15">
            rmoveto
            50 23 50 36 32 37 rrcurveto
            18 21 7 17 9 vvcurveto
            17 -31 14 -85 vhcurveto
            -6 hlineto
            -18 -22 -29 -27 -48 -33 rrcurveto
            -7 hlineto
            -37 22 -18 14 -19 21 rrcurveto
            15 -14 -17 10 -36 hhcurveto
            -37 -25 -4 -10 -27 hvcurveto
            34 -59 35 -36 51 -34 rrcurveto
            -26 39 27 -5 47 hhcurveto
            return
          </CharString>
          <CharString index="16">
            76 -27 33 -76 -18 -20 -3 -7 -15 vhcurveto
            -273 23 callsubr
            28 165 8 118 110 vvcurveto
            -102 callgsubr
            endchar
          </CharString>
          <CharString index="17">
            rmoveto
            -161 29 callsubr
            171 63 62 11 32 32 vhcurveto
            23 23 12 27 46 -6 callsubr
            65 callsubr
            endchar
          </CharString>
          <CharString index="18">
            -128 3 50 -38 70 hhcurveto
            15 15 2 3 15 hvcurveto
            128 callsubr
          </CharString>
          <CharString index="19">
            rmoveto
            -151 -103 -119 -175 hvcurveto
            -14 vlineto
            return
          </CharString>
          <CharString index="20">
            285 hlineto
            82 callsubr
          </CharString>
          <CharString index="21">
            hlineto
            4 21 3 23 19 vvcurveto
            return
          </CharString>
          <CharString index="22">
            rmoveto
            -94 27 -3 callsubr
            93 callsubr
            endchar
          </CharString>
          <CharString index="23">
            rmoveto
            -9 15 19 -5 28 hhcurveto
            26 18 4 25 21 hvcurveto
            55 65 29 90 69 vvcurveto
            41 -21 22 -49 -25 -12 -1 -5 -16 vhcurveto
            -11 -102 -22 -105 -55 -89 rrcurveto
            return
          </CharString>
          <CharString index="24">
            rmoveto
            -56 vlineto
            -54 50 -34 70 32 31 6 11 25 vhcurveto
            72 vlineto
            54 -45 18 -63 -35 -40 -7 -10 -25 vhcurveto
            return
          </CharString>
          <CharString index="25">
            -176 113 -80 132 151 104 103 151 vhcurveto
            79 callsubr
          </CharString>
          <CharString index="26">
            25 -99 callgsubr
            -23 16 -59 -19 -15 -2 -7 -23 vhcurveto
            endchar
          </CharString>
          <CharString index="27">
            146 100 132 246 vhcurveto
            20 callsubr
          </CharString>
          <CharString index="28">
            rmoveto
            65 75 36 109 47 hvcurveto
            7 hlineto
            return
          </CharString>
          <CharString index="29">
            -443 hlineto
            10 callsubr
            endchar
          </CharString>
          <CharString index="30">
            55 1 50 2 45 vhcurveto
            159 hlineto
            2 -29 1 -30 2 -33 rrcurveto
            -44 3 31 -24 66 hhcurveto
            24 23 3 7 19 hvcurveto
            123 callsubr
          </CharString>
          <CharString index="31">
            30 -99 callgsubr
            -28 16 -59 -19 -15 -2 -7 -23 vhcurveto
            endchar
          </CharString>
          <CharString index="32">
            43 -11 30 -27 16 vhcurveto
            2 return
          </CharString>
          <CharString index="33">
            rmoveto
            -22 -17 -2 -5 -23 hvcurveto
            21 -269 56 -101 71 -71 37 -37 43 -24 48 -6 -7 -11 -6 -8 -7 -7 rrcurveto
            -50 -50 -71 -17 -57 hhcurveto
            -25 -4 hlineto
            -54 13 -45 20 -20 vhcurveto
            -19 19 19 -7 27 hhcurveto
            57 56 33 56 56 hvcurveto
            98 98 78 200 21 283 rrcurveto
            67 6 -45 21 -67 hhcurveto
            -17 -18 -2 -6 -26 hvcurveto
            4 -186 -17 -143 -27 -94 rrcurveto
            -7 hlineto
            -76 76 -38 107 -14 179 rrcurveto
            49 -4 -38 19 -71 hhcurveto
            endchar
          </CharString>
          <CharString index="34">
            -2 -6 -1 -12 -9 vvcurveto
            -64 33 -32 92 -5 vhcurveto
            1 -4 0 -5 -5 vvcurveto
            -50 -46 -33 -50 -57 -44 12 30 -37 vhcurveto
            -5 32 -2 32 41 vvcurveto
            18 vlineto
            157 70 132 89 10 8 -1 -4 8 vhcurveto
            -9 -28 -3 -19 -16 vvcurveto
            -50 32 -17 56 26 23 4 6 15 vhcurveto
            72 vlineto
            63 -12 32 -39 39 vhcurveto
            return
          </CharString>
          <CharString index="35">
            -12 33 -4 37 40 vvcurveto
            109 vlineto
            84 89 67 154 16 174 rrcurveto
            43 4 -35 29 -56 hhcurveto
            -22 -21 -2 -6 -21 hvcurveto
            -16 -162 -20 -94 -61 -114 118 callsubr
            22 -227 46 -148 88 -88 5 -5 6 -5 5 -5 rrcurveto
            -132 vlineto
            -61 24 -37 84 25 17 3 5 26 vhcurveto
            endchar
          </CharString>
          <CharString index="36">
            rmoveto
            -22 -37 -30 -18 -47 -4 -47 4 -30 18 -22 37 -36 0 -23 -4 -22 -12 -14 -8 -2 -13 3 -12 rrcurveto
            -80 21 63 -51 105 hhcurveto
            8 hlineto
            105 63 51 80 21 hvcurveto
            3 12 -2 13 -14 8 rrcurveto
            12 -22 -23 4 -36 hhcurveto
            return
          </CharString>
          <CharString index="37">
            769 rmoveto
            -19 callsubr
            220 hmoveto
            -19 callsubr
            return
          </CharString>
          <CharString index="38">
            vvcurveto
            -7 3 -2 7 31 14 -11 -17 -23 -18 -8 -27 -33 -16 6 14 -20 vhcurveto
            -6 hlineto
            -7 -19 -5 -20 -20 vvcurveto
            -40 24 -31 71 99 59 40 78 return
          </CharString>
          <CharString index="39">
            600 339 934 -106 callsubr
            return
          </CharString>
          <CharString index="40">
            814 90 callsubr
            return
          </CharString>
          <CharString index="41">
            631 3 callsubr
            return
          </CharString>
          <CharString index="42">
            4 17 3 23 23 vvcurveto
            66 return
          </CharString>
          <CharString index="43">
            rmoveto
            -21 6 -19 11 -16 vhcurveto
            -7 vlineto
            -76 -5 -48 -43 -58 vvcurveto
            -8 vlineto
            -82 74 -54 141 vhcurveto
            9 hlineto
            203 118 67 116 hvcurveto
            12 vlineto
            76 -56 42 -72 5 vhcurveto
            -138 10 rlineto
            -21 2 -13 14 19 vvcurveto
            19 2 14 5 14 vhcurveto
            6 7 0 6 hhcurveto
            125 92 49 91 hvcurveto
            11 vlineto
            42 -26 30 -46 23 vhcurveto
            11 vlineto
            -3 36 25 -3 21 hhcurveto
            36 14 34 49 20 -3 20 -4 10 hvcurveto
            6 -76 -71 3 -86 hhcurveto
            -180 -93 -82 -119 hvcurveto
            -10 vlineto
            -88 58 -61 88 -23 vhcurveto
            -6 vlineto
            -50 -18 -24 -38 -45 vvcurveto
            74 220 rmoveto
            -7 14 -3 15 16 vvcurveto
            8 vlineto
            59 42 27 84 vhcurveto
            13 12 0 11 hhcurveto
            22 -25 5 -27 -27 vvcurveto
            -12 vlineto
            -40 -32 -24 -57 -41 -24 5 11 -25 vhcurveto
            52 -433 83 callsubr
          </CharString>
          <CharString index="44">
            rmoveto
            7 vlineto
            47 -49 46 -87 -53 -31 -10 -16 -16 vhcurveto
            -17 -17 -6 -16 -27 vvcurveto
            -15 1 -11 5 -16 vhcurveto
            6 hlineto
            29 26 30 11 37 hhcurveto
            30 19 -9 -12 8 hvcurveto
            -17 -24 -31 -17 -46 -5 rrcurveto
            -2 -8 -1 -13 -12 vvcurveto
            -27 7 -11 16 -2 vhcurveto
            46 -7 25 -15 18 -25 rrcurveto
            -14 -10 -23 -8 -36 hhcurveto
            -39 -32 8 30 -32 hvcurveto
            -6 hlineto
            -5 -14 -3 -15 -15 vvcurveto
            -30 4 -12 14 -14 vhcurveto
            -16 17 46 -10 51 hhcurveto
            90 51 43 53 hvcurveto
            5 vlineto
            37 -19 37 -69 18 vhcurveto
            5 vlineto
            63 19 20 34 34 vvcurveto
            return
          </CharString>
          <CharString index="45">
            rmoveto
            -35 11 -13 14 22 vvcurveto
            22 13 14 39 14 14 -3 -4 10 vhcurveto
            3 -6 1 -8 -9 vvcurveto
            -3 vlineto
            -17 -9 -19 -28 -17 vhcurveto
            -67 -123 rmoveto
            5 27 14 25 23 18 rrcurveto
            23 -7 33 -11 14 -21 3 -32 rlinecurve
            -11 -12 -24 -5 -21 hhcurveto
            -25 -24 6 11 -9 hvcurveto
            endchar
          </CharString>
          <CharString index="46">
            741 rmoveto
            81 callsubr
            return
          </CharString>
          <CharString index="47">
            rmoveto
            -87 -48 -39 -58 hvcurveto
            -6 vlineto
            -45 14 -24 34 -17 vhcurveto
            -5 vlineto
            -40 -15 -15 -38 -34 vvcurveto
            -5 vlineto
            -53 42 -37 97 97 44 35 59 vhcurveto
            8 vlineto
            35 -17 36 -46 20 vhcurveto
            4 vlineto
            40 12 18 28 42 vvcurveto
            7 vlineto
            52 -51 38 -82 vhcurveto
            return
          </CharString>
          <CharString index="48">
            vvcurveto
            -75 50 -44 84 59 39 28 61 27 -4 17 -12 24 vhcurveto
            -6 hlineto
            -9 -16 -12 -4 -18 hhcurveto
            -24 -12 10 20 return
          </CharString>
          <CharString index="49">
            vlineto
            89 -46 23 -104 -47 -92 -5 -5 -44 vhcurveto
            -5 -16 -4 -24 -23 vvcurveto
            -67 27 return
          </CharString>
          <CharString index="50">
            600 396 903 4 callsubr
            return
          </CharString>
          <CharString index="51">
            rmoveto
            -153 -100 -132 -246 hvcurveto
            -16 vlineto
            return
          </CharString>
          <CharString index="52">
            rmoveto
            6 -34 3 -45 -48 vvcurveto
            -357 36 -131 73 -73 vhcurveto
            -13 13 19 -7 20 hhcurveto
            6 10 1 2 6 hvcurveto
            34 61 31 61 26 102 rrcurveto
            6 hlineto
            20 -102 29 -61 32 -38 rrcurveto
            -22 18 13 -4 25 hhcurveto
            6 6 1 2 7 hvcurveto
            69 126 44 143 270 vvcurveto
            153 -25 21 -75 -18 -19 -3 -5 -19 vhcurveto
            16 -218 -8 -176 -22 -146 rrcurveto
            -6 hlineto
            -37 101 -7 62 -7 134 rrcurveto
            50 -3 -16 18 -49 hhcurveto
            -20 hlineto
            -183 -16 -84 -40 -98 vhcurveto
            -6 hlineto
            -16 99 -2 150 180 vvcurveto
            85 -29 34 -71 -18 -20 -3 -5 -25 vhcurveto
            endchar
          </CharString>
          <CharString index="53">
            rmoveto
            -150 -15 -77 -34 -68 vhcurveto
            -7 hlineto
            -17 58 -7 103 190 vvcurveto
            47 -40 24 -67 -15 -11 0 -3 -11 vhcurveto
            -306 21 -152 79 -79 vhcurveto
            -14 14 19 -8 19 hhcurveto
            17 11 1 5 10 hvcurveto
            37 60 24 56 17 83 rrcurveto
            6 hlineto
            21 -90 25 -60 31 -37 rrcurveto
            -12 10 14 -6 21 hhcurveto
            11 13 0 3 12 hvcurveto
            88 106 21 142 237 vvcurveto
            50 -49 24 -67 -12 -8 -1 -2 -8 vhcurveto
            -250 -6 -99 -19 -68 vhcurveto
            -6 hlineto
            -29 59 -18 79 105 vvcurveto
            30 -29 20 -49 vhcurveto
            endchar
          </CharString>
          <CharString index="54">
            rmoveto
            -70 -49 49 -81 hhcurveto
            -28 -21 -8 -17 -17 hvcurveto
            -33 -33 -2 -46 -24 vvcurveto
            -25 4 -22 6 -15 vhcurveto
            6 hlineto
            35 33 20 13 40 70 49 -49 81 hhcurveto
            29 22 9 16 16 hvcurveto
            27 27 7 45 29 vvcurveto
            27 -4 22 -6 15 vhcurveto
            -6 hlineto
            -35 -33 -20 -13 -40 hhcurveto
            return
          </CharString>
          <CharString index="55">
            209 vlineto
            137 47 50 -27 callsubr
            -6 hlineto
            127 -3 -52 38 -70 hhcurveto
            -15 -15 -3 -3 -15 hvcurveto
            14 -24 6 -42 -33 vvcurveto
            34 callsubr
            endchar
          </CharString>
          <CharString index="56">
            -143 143 -120 132 91 49 16 30 30 vhcurveto
            122 callsubr
            96 callsubr
          </CharString>
          <CharString index="57">
            rmoveto
            10 10 -1 -1 9 hvcurveto
            17 -12 9 -18 -24 vvcurveto
            -6 vlineto
            -32 -23 -18 -44 -11 -11 1 2 -11 vhcurveto
            -14 9 -8 15 18 vvcurveto
            6 vlineto
            38 23 23 44 vhcurveto
            return
          </CharString>
          <CharString index="58">
            34 -34 -36 21 -57 hhcurveto
            -173 -122 -177 -249 hvcurveto
            -26 vlineto
            -171 112 -117 168 81 54 24 33 33 vhcurveto
            19 callsubr
            endchar
          </CharString>
          <CharString index="59">
            rmoveto
            9 -15 -22 5 -28 hhcurveto
            -29 -12 -4 -25 -21 hvcurveto
            -55 -65 -29 -90 -69 vvcurveto
            -41 21 -22 49 25 12 1 5 16 vhcurveto
            11 102 22 105 55 89 rrcurveto
            return
          </CharString>
          <CharString index="60">
            rmoveto
            82 53 21 35 35 hvcurveto
            2 callsubr
            -104 callgsubr
            -171 112 -117 168 vhcurveto
            endchar
          </CharString>
          <CharString index="61">
            -21 -65 -39 -47 -61 -48 rrcurveto
            -12 31 26 -4 33 hhcurveto
            37 20 2 14 24 hvcurveto
            -15 callsubr
            return
          </CharString>
          <CharString index="62">
            -97 vlineto
            -44 49 -7 42 19 25 0 4 21 vhcurveto
            98 vlineto
            44 -49 5 -43 -18 -25 -1 -2 -21 vhcurveto
            return
          </CharString>
          <CharString index="63">
            600 112 934 rmoveto
            -45 callsubr
            -5 callsubr
            return
          </CharString>
          <CharString index="64">
            -15 -15 -3 -3 -15 vhcurveto
            14 -24 6 -42 -33 vvcurveto
            return
          </CharString>
          <CharString index="65">
            rmoveto
            -181 -123 -118 -173 hvcurveto
            -10 vlineto
            return
          </CharString>
          <CharString index="66">
            600 396 765 -53 callsubr
            return
          </CharString>
          <CharString index="67">
            600 303 720 -56 callsubr
            return
          </CharString>
          <CharString index="68">
            600 261 934 -24 callsubr
            return
          </CharString>
          <CharString index="69">
            104 callsubr
            33 35 19 42 12 hvcurveto
            return
          </CharString>
          <CharString index="70">
            600 94 913 -98 callsubr
            return
          </CharString>
          <CharString index="71">
            6 rlineto
            214 hlineto
            103 callsubr
            return
          </CharString>
          <CharString index="72">
            -77 36 -32 82 22 13 2 4 18 vhcurveto
            return
          </CharString>
          <CharString index="73">
            vvcurveto
            15 -1 16 -3 14 vhcurveto
            -6 hlineto
            return
          </CharString>
          <CharString index="74">
            rmoveto
            21 1 18 1 16 vhcurveto
            68 hlineto
            45 33 3 9 34 hvcurveto
            -5 vlineto
            -23 -45 -24 -41 -25 -38 -72 -111 -82 -89 -114 -98 rrcurveto
            -15 vlineto
            -78 21 -47 70 vhcurveto
            406 hlineto
            2 8 1 10 13 vvcurveto
            69 -18 50 -67 vhcurveto
            -65 hlineto
            -42 -47 -1 -6 -72 hvcurveto
            6 vlineto
            35 30 36 33 34 34 111 110 94 122 1 57 rrcurveto
            9 vlineto
            114 -19 42 -53 vhcurveto
            -245 hlineto
            4 0 3 4 vvcurveto
            29 -34 20 -91 vhcurveto
            -29 -59 -19 -71 -74 vvcurveto
            -46 23 -16 67 23 20 2 4 15 vhcurveto
            endchar
          </CharString>
          <CharString index="75">
            rmoveto
            3 16 2 16 15 vvcurveto
            42 -14 9 -48 vhcurveto
            -39 hlineto
            -35 -25 -3 -9 -30 hvcurveto
            6 vlineto
            15 29 24 14 61 23 rrcurveto
            61 23 24 32 59 vvcurveto
            6 vlineto
            50 -40 48 -102 -55 -37 -10 -18 -18 vhcurveto
            -15 -15 -3 -24 -22 vvcurveto
            -15 2 -14 5 -11 vhcurveto
            6 hlineto
            21 25 37 10 40 hhcurveto
            18 20 -1 -3 10 hvcurveto
            2 -5 1 -4 -7 vvcurveto
            -17 -14 -10 -63 -29 vhcurveto
            -74 -34 -23 -46 -56 vvcurveto
            -3 vlineto
            -44 18 -19 28 vhcurveto
            return
          </CharString>
          <CharString index="76">
            rmoveto
            -4 12 -3 19 24 vvcurveto
            12 44 vlineto
            3 11 2 12 17 vvcurveto
            30 -7 22 -26 vhcurveto
            -16 41 hlineto
            21 -20 23 -40 vhcurveto
            -6 hlineto
            -15 -26 -7 -29 -3 -30 -29 -1 -30 -3 -32 -5 rrcurveto
            4 vlineto
            31 72 47 71 67 43 rrcurveto
            6 vlineto
            17 -21 -31 10 -28 hhcurveto
            -30 -20 -8 -29 -24 hvcurveto
            -41 -47 -37 -101 -52 vvcurveto
            -4 vlineto
            -25 23 -40 28 vhcurveto
            126 -26 hlineto
            -35 12 -9 42 21 12 1 2 12 vhcurveto
            return
          </CharString>
          <CharString index="77">
            rmoveto
            -4 -12 -1 -13 -15 vvcurveto
            -70 19 -40 53 vhcurveto
            78 hlineto
            46 58 2 5 61 hvcurveto
            -7 vlineto
            -87 -97 -108 -83 -120 -70 rrcurveto
            -15 vlineto
            -65 15 -60 50 vhcurveto
            428 hlineto
            -65 callsubr
            -17 21 -58 vhcurveto
            -75 hlineto
            -53 -57 -3 -3 -58 hvcurveto
            7 vlineto
            148 68 170 144 44 vvcurveto
            8 vlineto
            51 -39 74 -59 vhcurveto
            endchar
          </CharString>
          <CharString index="78">
            rmoveto
            -45 -21 -65 -47 -29 -44 rrcurveto
            -16 -25 -7 -18 -12 vvcurveto
            -19 38 -16 68 vhcurveto
            6 hlineto
            16 28 25 30 45 37 rrcurveto
            5 hlineto
            35 -23 17 -18 13 -18 rrcurveto
            -29 22 13 -7 31 hhcurveto
            34 25 5 14 23 hvcurveto
            -31 66 -42 48 -49 36 rrcurveto
            28 -38 -19 5 -39 hhcurveto
            return
          </CharString>
          <CharString index="79">
            vlineto
            -74 66 -91 124 76 30 18 19 19 vhcurveto
            18 18 17 37 49 -6 callsubr
            -26 -42 -37 -8 -60 hhcurveto
            -16 -15 1 4 -13 hvcurveto
            -5 20 -2 25 30 vvcurveto
            return
          </CharString>
          <CharString index="80">
            39 50 hhcurveto
            11 10 -4 -8 10 hvcurveto
            -18 -87 -13 -83 -74 vvcurveto
            -107 44 -3 callsubr
            -16 59 -5 36 64 vvcurveto
            225 vlineto
            77 -51 91 -58 -83 -79 -74 -97 -36 vhcurveto
            return
          </CharString>
          <CharString index="81">
            25 vlineto
            192 -114 100 -148 -91 -94 -6 -14 -85 vhcurveto
            48 callsubr
            3 3 0 1 5 vhcurveto
            return
          </CharString>
          <CharString index="82">
            vlineto
            -86 76 -87 144 71 40 17 24 24 vhcurveto
            24 24 11 39 57 -6 callsubr
            -41 -51 -49 -13 -49 hhcurveto
            -34 -19 3 9 -18 hvcurveto
            -7 23 -3 25 30 vvcurveto
            return
          </CharString>
          <CharString index="83">
            rmoveto
            -52 2 -43 -5 -30 -14 -17 -8 -3 -15 10 -24 17 -42 33 -33 42 -23 rrcurveto
            -12 22 18 -2 34 hhcurveto
            33 23 3 13 34 hvcurveto
            -63 47 -37 46 -21 67 rrcurveto
            return
          </CharString>
          <CharString index="84">
            -23 28 28 -12 45 hhcurveto
            21 13 4 11 11 hvcurveto
            41 41 69 111 95 vvcurveto
            64 -49 14 -65 -27 -17 -2 -5 -27 vhcurveto
            -130 -29 -96 -42 -72 vhcurveto
            return
          </CharString>
          <CharString index="85">
            rmoveto
            -129 -39 14 41 -71 32 callsubr
            -19 19 68 -22 117 hhcurveto
            183 79 54 122 68 -43 48 -107 23 hvcurveto
            71 callsubr
          </CharString>
          <CharString index="86">
            rmoveto
            -19 -15 -2 -7 -23 hvcurveto
            -91 -3 -26 -13 -69 vhcurveto
            -9 17 14 -3 26 hhcurveto
            20 10 3 13 13 hvcurveto
            36 36 13 54 54 vvcurveto
            28 -27 19 -49 vhcurveto
            return
          </CharString>
          <CharString index="87">
            111 vlineto
            81 -64 14 -47 -37 -32 -8 -16 -28 vhcurveto
            -111 vlineto
            -72 64 -10 56 26 34 3 8 28 vhcurveto
            endchar
          </CharString>
          <CharString index="88">
            -107 vlineto
            -44 49 -7 42 19 25 0 4 21 vhcurveto
            108 vlineto
            44 -49 5 -43 -18 -25 -1 -2 -21 vhcurveto
            return
          </CharString>
          <CharString index="89">
            101 22 callsubr
            rrcurveto
            -34 34 36 -11 35 hhcurveto
            19 18 4 6 19 68 callsubr
          </CharString>
          <CharString index="90">
            rmoveto
            -82 -60 -56 -81 hvcurveto
            35 callsubr
            79 -58 52 -78 vhcurveto
            -83 vmoveto
            12 callsubr
            return
          </CharString>
          <CharString index="91">
            -29 14 -27 22 -22 vhcurveto
            -37 37 61 -23 56 hhcurveto
            177 116 157 256 hvcurveto
            return
          </CharString>
          <CharString index="92">
            42 25 27 27 17 47 7 21 -3 18 -19 7 rrcurveto
            10 -31 -36 5 -54 hhcurveto
            return
          </CharString>
          <CharString index="93">
            rmoveto
            8 callsubr
            31 callsubr
            5 callsubr
            endchar
          </CharString>
          <CharString index="94">
            67 36 33 23 68 vvcurveto
            16 -2 17 -5 16 vhcurveto
            return
          </CharString>
          <CharString index="95">
            -49 -26 -16 -21 -51 vvcurveto
            -19 3 -21 4 -19 vhcurveto
            return
          </CharString>
          <CharString index="96">
            600 304 552 -88 callsubr
            return
          </CharString>
          <CharString index="97">
            600 391 hmoveto
            -103 callsubr
            return
          </CharString>
          <CharString index="98">
            600 201 -10 -79 callsubr
            return
          </CharString>
          <CharString index="99">
            600 68 150 16 callsubr
            return
          </CharString>
          <CharString index="100">
            25 -77 83 15 9 0 3 18 vhcurveto
            return
          </CharString>
          <CharString index="101">
            vvcurveto
            12 -1 13 -3 13 vhcurveto
            -6 hlineto
            return
          </CharString>
          <CharString index="102">
            220 hmoveto
            -45 callsubr
            return
          </CharString>
          <CharString index="103">
            23 vhcurveto
            -9 36 -4 37 40 vvcurveto
            return
          </CharString>
          <CharString index="104">
            -28 85 21 17 2 4 20 vhcurveto
            return
          </CharString>
          <CharString index="105">
            rmoveto
            -63 -122 -3 -7 -59 hvcurveto
            -4 -15 -2 -20 -23 vvcurveto
            -67 20 -30 29 41 51 5 20 103 vhcurveto
            6 -4 rlineto
            -406 vlineto
            -37 -1 -27 -5 -23 vhcurveto
            -10 -31 -34 -3 -32 hhcurveto
            -77 -44 9 20 -46 hvcurveto
            -6 hlineto
            -3 -12 -1 -12 -14 vvcurveto
            -46 8 -41 24 -24 vhcurveto
            -19 19 39 -11 99 hhcurveto
            129 112 104 140 hvcurveto
            487 vlineto
            44 -48 25 -102 vhcurveto
            endchar
          </CharString>
          <CharString index="106">
            rmoveto
            48 -12 36 -24 22 vhcurveto
            2 6 rlineto
            2 23 24 1 26 hhcurveto
            46 38 -4 -8 25 hvcurveto
            5 -15 2 -14 -20 vvcurveto
            -8 vlineto
            -76 -49 -35 -75 -14 -9 1 2 -8 vhcurveto
            -257 vmoveto
            160 6 vlineto
            -12 12 16 -5 24 hhcurveto
            23 22 3 4 21 hvcurveto
            17 -17 4 -19 -22 vvcurveto
            -8 vlineto
            -60 -43 -29 -68 -12 -11 1 4 -11 vhcurveto
            endchar
          </CharString>
          <CharString index="107">
            183 vlineto
            133 43 62 61 77 hhcurveto
            44 30 -9 -19 29 hvcurveto
            6 hlineto
            10 27 5 31 33 vvcurveto
            52 -12 25 -17 17 vhcurveto
            20 -20 -23 6 -34 hhcurveto
            -87 -73 -76 -135 -34 hvcurveto
            -6 20 hlineto
            137 -53 40 -72 -43 callsubr
            34 callsubr
            endchar
          </CharString>
          <CharString index="108">
            -2 -11 -2 -22 -16 vvcurveto
            -24 7 -9 24 -1 vhcurveto
            -11 -24 -7 -25 -7 -52 rrcurveto
            -26 -4 14 -7 38 hhcurveto
            79 hlineto
            25 21 -8 -27 12 hvcurveto
            -2 vlineto
            -15 -5 -26 -14 -39 hhcurveto
            -40 -41 8 20 -25 hvcurveto
            -6 hlineto
            -6 -14 -2 -14 -13 vvcurveto
            -23 3 -14 14 -14 vhcurveto
            -16 17 47 -8 51 hhcurveto
            91 50 51 67 hvcurveto
            return
          </CharString>
          <CharString index="109">
            23 23 21 39 64 vvcurveto
            17 -2 21 -5 18 vhcurveto
            -6 hlineto
            -58 -51 -70 -30 -67 hhcurveto
            -53 -40 13 29 -35 hvcurveto
            -5 32 -2 32 41 vvcurveto
            18 vlineto
            157 66 130 83 10 7 -1 -4 9 vhcurveto
            -10 -52 -4 -32 -27 vvcurveto
            -54 35 -18 61 26 23 4 6 15 vhcurveto
            127 vlineto
            53 -12 42 -39 39 vhcurveto
            return
          </CharString>
          <CharString index="110">
            rmoveto
            45 21 65 47 29 44 rrcurveto
            16 25 7 18 12 vvcurveto
            19 -38 16 -68 vhcurveto
            -6 hlineto
            -16 -28 -25 -30 -45 -37 rrcurveto
            -5 hlineto
            -35 23 -17 18 -13 18 rrcurveto
            29 -22 -13 7 -31 hhcurveto
            -34 -25 -5 -14 -23 hvcurveto
            31 -66 42 -48 49 -36 rrcurveto
            -28 38 19 -5 39 hhcurveto
            return
          </CharString>
          <CharString index="111">
            rmoveto
            -70 -65 72 -71 hhcurveto
            -43 -25 -23 -36 -14 hvcurveto
            -6 -14 -7 -27 -38 vvcurveto
            -15 2 -22 5 -15 vhcurveto
            6 hlineto
            35 34 22 13 40 70 65 -72 71 hhcurveto
            43 25 23 36 14 hvcurveto
            6 14 7 27 38 vvcurveto
            15 -2 22 -5 15 vhcurveto
            -6 hlineto
            -35 -34 -22 -13 -40 hhcurveto
            return
          </CharString>
          <CharString index="112">
            49 -26 66 -131 47 vhcurveto
            -94 34 -58 21 -19 15 -2 31 rlinecurve
            4 vlineto
            61 87 64 63 6 6 0 -1 4 vhcurveto
            -6 -30 -5 -21 -17 vvcurveto
            -54 35 -18 61 22 19 5 5 13 vhcurveto
            102 vlineto
            49 -7 41 -34 34 vhcurveto
            34 -34 -36 21 -51 hhcurveto
            return
          </CharString>
          <CharString index="113">
            233 hlineto
            -1 0 -2 -1 vvcurveto
            -24 27 -17 74 vhcurveto
            33 68 29 76 82 vvcurveto
            46 -20 16 -60 -23 -20 -2 -4 -15 vhcurveto
            -34 -2 -28 -3 -25 vhcurveto
            -191 470 hlineto
            73 -24 17 -71 -30 -25 -4 -6 -23 vhcurveto
            -86 callgsubr
            endchar
          </CharString>
          <CharString index="114">
            600 217 hmoveto
            55 1 50 2 45 vhcurveto
            159 hlineto
            2 -29 1 -30 2 -33 rrcurveto
            -44 3 31 -24 66 hhcurveto
            24 23 3 7 19 hvcurveto
            -2 51 -2 49 -3 46 -12 178 -19 137 -35 102 return
          </CharString>
          <CharString index="115">
            -154 -139 -139 -134 hvcurveto
            -13 vlineto
            -58 28 -52 154 -57 vhcurveto
            92 -34 rlineto
            43 -16 28 -26 -33 vvcurveto
            -5 vlineto
            -15 -29 -41 -8 -45 hhcurveto
            -105 -75 31 57 -57 hvcurveto
            33 callsubr
            return
          </CharString>
          <CharString index="116">
            6 vlineto
            57 -41 47 -69 -29 -18 -3 -8 -17 vhcurveto
            -4 hlineto
            1 8 1 9 2 8 4 19 -2 11 -10 11 1 4 rcurveline
            162 hlineto
            2 8 2 16 13 vvcurveto
            34 -22 13 -35 vhcurveto
            return
          </CharString>
          <CharString index="117">
            -3 -9 -2 -18 -15 vvcurveto
            -77 49 -31 105 vhcurveto
            21 -298 hlineto
            -45 14 -36 24 -15 vhcurveto
            -2 -6 rlineto
            -204 hlineto
            -4 -15 -3 -24 -23 vvcurveto
            -55 17 -33 45 vhcurveto
            return
          </CharString>
          <CharString index="118">
            -4 34 hhcurveto
            39 19 5 14 20 hvcurveto
            64 48 42 51 46 79 rrcurveto
            24 vlineto
            25 -6 20 -23 35 vhcurveto
            -48 70 -38 35 -31 18 rrcurveto
            15 -24 -19 5 -43 hhcurveto
            -37 return
          </CharString>
          <CharString index="119">
            16 11 -4 -11 11 hvcurveto
            5 -8 2 -9 -11 vvcurveto
            -7 vlineto
            -26 -20 -19 -28 -18 -14 3 12 -13 vhcurveto
            -2 7 -1 9 8 vvcurveto
            7 vlineto
            31 19 18 32 vhcurveto
            return
          </CharString>
          <CharString index="120">
            40 -13 27 -26 19 vhcurveto
            2 6 rlineto
            2 25 28 1 31 hhcurveto
            44 31 -7 -13 27 hvcurveto
            13 -34 3 -46 -67 vvcurveto
            -10 vlineto
            -159 -55 -89 -99 vhcurveto
            endchar
          </CharString>
          <CharString index="121">
            3 vlineto
            46 25 31 35 7 7 0 -1 6 vhcurveto
            7 -13 3 -18 -21 vvcurveto
            -3 vlineto
            -43 -19 -22 -41 -9 -8 1 4 -7 vhcurveto
            -4 11 -2 12 13 vvcurveto
            return
          </CharString>
          <CharString index="122">
            rmoveto
            -25 vlineto
            -70 8 -39 42 -5 vhcurveto
            -141 43 callsubr
            260 149 -149 vlineto
            -79 39 -40 63 25 19 3 5 -4 callsubr
            return
          </CharString>
          <CharString index="123">
            rmoveto
            -3 -14 -1 -12 -17 vvcurveto
            -81 20 -26 88 vhcurveto
            388 hlineto
            5 14 2 13 16 vvcurveto
            58 -39 42 -123 6 vhcurveto
            return
          </CharString>
          <CharString index="124">
            24 24 14 34 49 -6 callsubr
            77 callsubr
            endchar
          </CharString>
          <CharString index="125">
            rrcurveto
            -43 -25 hlineto
            -57 5 -37 25 -14 vhcurveto
            -2 -33 -1 -33 -34 vvcurveto
            -49 37 -18 56 22 26 4 6 24 vhcurveto
            return
          </CharString>
          <CharString index="126">
            23 23 23 38 46 vvcurveto
            39 -13 21 -23 16 vhcurveto
            6 61 9 vlineto
            91 -16 29 -52 vhcurveto
            return
          </CharString>
          <CharString index="127">
            16 vlineto
            233 -89 113 -158 vhcurveto
            40 callsubr
            100 callsubr
            endchar
          </CharString>
          <CharString index="128">
            vlineto
            137 -27 33 -72 -28 -28 -6 -3 -15 vhcurveto
            14 -24 6 -42 -33 vvcurveto
            endchar
          </CharString>
          <CharString index="129">
            vlineto
            121 -3 105 -19 131 vhcurveto
            7 hlineto
            65 -226 68 -144 53 -53 return
          </CharString>
          <CharString index="130">
            vlineto
            -77 2 -64 3 -52 vhcurveto
            -63 -48 -54 -11 -57 hhcurveto
            -13 -10 2 5 -9 hvcurveto
            return
          </CharString>
          <CharString index="131">
            4 vlineto
            46 -33 47 -48 25 vhcurveto
            6 vlineto
            56 40 35 62 73 vvcurveto
            7 vlineto
            return
          </CharString>
          <CharString index="132">
            rmoveto
            97 -75 61 -58 38 -70 -45 -77 -53 -54 -98 -72 rrcurveto
            -6 vlineto
            -9 30 return
          </CharString>
          <CharString index="133">
            rmoveto
            -97 75 -61 58 -38 70 45 77 53 54 98 72 rrcurveto
            6 vlineto
            9 -30 return
          </CharString>
          <CharString index="134">
            61 -28 40 -74 -25 -19 -3 -5 -23 vhcurveto
            9 -33 4 -37 -40 vvcurveto
            return
          </CharString>
          <CharString index="135">
            -55 -13 -6 -9 -6 hvcurveto
            -14 -20 -5 -54 -14 -69 callsubr
            return
          </CharString>
          <CharString index="136">
            -113 -126 -164 hvcurveto
            -3 vlineto
            -168 117 -111 return
          </CharString>
          <CharString index="137">
            4 5 1 1 7 vhcurveto
            -427 vlineto
            -28 11 -23 23 -23 vhcurveto
            return
          </CharString>
          <CharString index="138">
            -32 32 86 -24 95 hhcurveto
            173 77 71 111 hvcurveto
            16 vlineto
            return
          </CharString>
          <CharString index="139">
            hvcurveto
            -6 hlineto
            -3 -15 -2 -16 -23 vvcurveto
            -62 12 -26 22 -22 vhcurveto
            return
          </CharString>
          <CharString index="140">
            -6 hlineto
            -4 -15 -3 -21 -26 vvcurveto
            -57 16 -42 21 -21 vhcurveto
            return
          </CharString>
          <CharString index="141">
            -352 vlineto
            -55 24 -37 82 15 11 0 3 18 vhcurveto
            return
          </CharString>
          <CharString index="142">
            -7 vlineto
            -80 58 -52 78 82 60 57 81 vhcurveto
            7 vlineto
            return
          </CharString>
          <CharString index="143">
            31 29 22 42 10 hvcurveto
            17 4 3 4 4 5 return
          </CharString>
          <CharString index="144">
            vlineto
            63 -51 36 -99 -51 -62 -10 -30 -78 vhcurveto
            endchar
          </CharString>
          <CharString index="145">
            600 360 552 -42 callsubr
            return
          </CharString>
          <CharString index="146">
            52 -40 32 -52 5 vhcurveto
            6 vlineto
            1 3 0 return
          </CharString>
          <CharString index="147">
            -103 -421 rmoveto
            13 vlineto
            168 36 91 72 return
          </CharString>
          <CharString index="148">
            vlineto
            84 -32 21 -62 -23 -19 -3 -5 -20 vhcurveto
            return
          </CharString>
          <CharString index="149">
            vlineto
            55 -24 37 -82 -15 -9 0 -3 -18 vhcurveto
            return
          </CharString>
          <CharString index="150">
            vlineto
            -100 31 -28 64 24 15 3 5 22 vhcurveto
            return
          </CharString>
          <CharString index="151">
            -86 callsubr
            66 -17 21 -56 vhcurveto
            endchar
          </CharString>
          <CharString index="152">
            600 44 540 -98 callgsubr
            return
          </CharString>
          <CharString index="153">
            600 19 720 129 callsubr
            return
          </CharString>
          <CharString index="154">
            137 -60 40 -65 -43 callsubr
            return
          </CharString>
          <CharString index="155">
            -4 -17 -2 -17 -23 vvcurveto
            -64 13 -29 31 return
          </CharString>
          <CharString index="156">
            hhcurveto
            -11 -10 4 8 -10 hvcurveto
            18 87 13 return
          </CharString>
          <CharString index="157">
            hlineto
            47 callsubr
            -496 vlineto
            -81 return
          </CharString>
          <CharString index="158">
            rmoveto
            -69 -33 -9 -21 -21 hvcurveto
            -18 -18 -6 -33 -27 vvcurveto
            -22 1 -19 4 -14 vhcurveto
            6 hlineto
            23 46 30 9 50 hhcurveto
            59 19 -27 -60 hvcurveto
            -3 vlineto
            5 -18 -23 4 -33 hhcurveto
            -74 -84 -92 -74 hvcurveto
            -16 vlineto
            -112 56 -54 99 48 51 29 41 36 vhcurveto
            -45 31 49 -27 65 hhcurveto
            46 43 9 18 21 hvcurveto
            8 7 16 14 45 vvcurveto
            26 -2 19 -5 20 vhcurveto
            -6 hlineto
            -21 -40 -33 -8 -51 hhcurveto
            -28 -22 5 11 -18 hvcurveto
            -11 20 -6 23 27 vvcurveto
            3 vlineto
            -6 15 21 -4 25 hhcurveto
            105 59 47 103 hvcurveto
            16 vlineto
            117 -75 73 -91 -51 -39 -25 -50 -27 vhcurveto
            44 -31 -44 29 -50 hhcurveto
            183 -235 rmoveto
            88 15 29 47 12 11 -2 -5 11 vhcurveto
            7 -17 2 -22 -28 vvcurveto
            -46 -16 -15 -35 -21 -16 1 4 -17 vhcurveto
            -174 -191 rmoveto
            -28 -14 14 40 hvcurveto
            8 vlineto
            20 1 15 3 14 vhcurveto
            9 17 19 4 22 hhcurveto
            14 12 -1 -3 13 hvcurveto
            -68 vlineto
            -41 -12 -21 -11 -23 hhcurveto
            endchar
          </CharString>
          <CharString index="159">
            rmoveto
            2 62 3 55 4 50 rrcurveto
            129 hlineto
            2 -43 0 -41 -36 vvcurveto
            -31 35 -19 57 vhcurveto
            181 hlineto
            4 15 2 20 23 vvcurveto
            69 -23 23 -69 vhcurveto
            -47 hlineto
            -1 31 0 30 -2 29 rrcurveto
            107 hlineto
            3 12 2 17 16 vvcurveto
            53 -32 35 -39 vhcurveto
            -50 hlineto
            -3 29 -3 28 -3 27 -7 59 -6 14 -25 14 2 6 rcurveline
            189 hlineto
            3 14 4 29 20 vvcurveto
            64 -28 28 -65 vhcurveto
            -182 hlineto
            -67 -41 -6 -14 -25 hvcurveto
            -60 -85 -45 -130 -24 -160 rrcurveto
            -35 -25 hlineto
            -53 7 -35 15 -16 vhcurveto
            -3 -38 -1 -40 -41 vvcurveto
            -47 25 -20 58 20 16 3 5 16 vhcurveto
            34 307 rmoveto
            -10 hlineto
            15 103 20 75 27 62 rrcurveto
            21 hlineto
            14 -85 8 -93 5 -89 -6 -2 rcurveline
            18 -18 -36 11 -40 hhcurveto
            endchar
          </CharString>
          <CharString index="160">
            -112 20 -84 40 -57 vhcurveto
            -29 -40 -38 -42 -35 -30 rrcurveto
            -19 21 32 -11 36 hhcurveto
            20 20 8 12 11 hvcurveto
            12 12 13 18 15 23 rrcurveto
            -16 33 39 -8 44 hhcurveto
            146 100 132 246 hvcurveto
            16 vlineto
            131 -28 93 -53 57 vhcurveto
            9 35 9 36 9 37 rrcurveto
            9 -18 -17 4 -20 hhcurveto
            -51 -18 -13 -49 -12 hvcurveto
            4 -18 -19 2 -20 hhcurveto
            40 callsubr
            vhcurveto
            4 5 0 3 hhcurveto
            -17 -60 -19 -57 -14 -38 -38 -99 -15 -49 -5 -49 rrcurveto
            -6 hlineto
            -4 23 -2 27 30 vvcurveto
            152 24 rmoveto
            17 40 13 62 4 50 rrcurveto
            9 hlineto
            3 -21 2 -25 -28 vvcurveto
            -13 vlineto
            -168 -36 -91 -72 -12 -9 0 1 -9 vhcurveto
            32 62 32 68 26 63 rrcurveto
            endchar
          </CharString>
          <CharString index="161">
            115 6 vlineto
            -15 14 23 -6 27 hhcurveto
            7 8 0 1 7 hvcurveto
            9 -43 14 -41 22 -45 rrcurveto
            -59 30 42 -23 53 hhcurveto
            22 16 5 15 15 hvcurveto
            15 15 9 31 -100 callgsubr
            -29 -22 14 38 -20 hvcurveto
            -7 13 -6 14 -4 14 rrcurveto
            59 52 43 88 115 vvcurveto
            11 vlineto
            97 -73 114 -189 -84 -93 -7 -13 -80 vhcurveto
            -4 -18 -2 -17 -22 vvcurveto
            -62 13 -31 31 4 5 0 1 7 vhcurveto
            -448 vlineto
            -35 callsubr
            -11 472 rmoveto
            -75 callsubr
            5 rlineto
            3 25 28 1 30 hhcurveto
            39 27 -4 -10 27 hvcurveto
            5 -18 2 -16 -19 vvcurveto
            -15 vlineto
            -117 -46 -55 -70 -13 -10 0 1 -8 vhcurveto
            return
          </CharString>
          <CharString index="162">
            -90 30 -65 47 -42 vhcurveto
            -13 -18 -20 -21 -32 -25 rrcurveto
            -20 22 22 -8 28 hhcurveto
            25 17 9 6 7 hvcurveto
            13 12 9 9 7 9 rrcurveto
            -8 26 28 -4 29 hhcurveto
            151 104 103 151 hvcurveto
            14 vlineto
            116 -37 79 -56 48 vhcurveto
            9 29 8 31 7 33 rrcurveto
            9 -19 -16 4 -27 hhcurveto
            -46 -29 -17 -31 -5 hvcurveto
            -1 -7 rlineto
            1 -11 -12 1 -11 hhcurveto
            -109 -313 rmoveto
            7 vlineto
            112 37 48 75 5 vhcurveto
            -28 -114 -31 -77 -44 -77 rrcurveto
            -6 27 -3 31 38 vvcurveto
            210 22 rmoveto
            -7 vlineto
            -90 -41 -35 -89 -1 vhcurveto
            38 54 46 72 41 93 rrcurveto
            3 -26 2 -29 -31 vvcurveto
            endchar
          </CharString>
          <CharString index="163">
            600 62 700 rmoveto
            9 -33 4 -37 -40 vvcurveto
            -470 43 callsubr
            226 vlineto
            16 6 17 9 17 9 rrcurveto
            6 hlineto
            37 -100 11 -25 31 -57 rrcurveto
            -64 35 38 -24 50 hhcurveto
            26 20 6 14 14 hvcurveto
            16 16 9 30 36 vvcurveto
            35 -2 19 -5 23 vhcurveto
            -6 hlineto
            -7 -10 -11 -3 -18 hhcurveto
            -25 -22 15 38 -20 hvcurveto
            -22 41 -22 41 -22 41 59 50 52 61 26 62 rrcurveto
            29 65 6 37 40 vvcurveto
            39 -47 31 -87 vhcurveto
            -19 hlineto
            -10 -88 -26 -76 -30 -55 -33 -61 -35 -44 -37 -34 rrcurveto
            -6 255 hlineto
            61 -28 40 -74 -25 -19 -3 -5 -23 vhcurveto
            return
          </CharString>
          <CharString index="164">
            rmoveto
            -84 -58 -50 -76 hvcurveto
            -2 vlineto
            -70 40 -35 68 36 31 7 24 22 vhcurveto
            4 hlineto
            -1 -37 -3 -29 -7 -20 rrcurveto
            -5 -18 -28 -3 -26 hhcurveto
            -30 -33 5 11 -26 hvcurveto
            -6 hlineto
            -3 -13 -2 -14 -12 vvcurveto
            -19 4 -9 10 -10 vhcurveto
            -14 14 26 -5 42 hhcurveto
            110 70 34 158 hvcurveto
            7 vlineto
            122 -64 55 -88 vhcurveto
            -44 -161 rmoveto
            -5 8 -3 10 10 vvcurveto
            5 vlineto
            29 14 18 36 25 14 -2 -4 13 vhcurveto
            8 -19 1 -29 -23 vvcurveto
            -5 -22 -20 -2 -17 hhcurveto
            -16 -16 1 3 -12 hvcurveto
            endchar
          </CharString>
          <CharString index="165">
            rmoveto
            -103 -71 -65 -126 hvcurveto
            -14 vlineto
            -114 56 -57 91 76 69 31 84 vhcurveto
            7 vlineto
            70 -42 40 -67 -43 -28 -10 -23 -19 vhcurveto
            -4 hlineto
            3 35 8 26 12 26 rrcurveto
            7 18 23 2 26 hhcurveto
            29 29 -5 -11 25 hvcurveto
            6 hlineto
            3 11 2 12 15 vvcurveto
            20 -5 10 -13 11 vhcurveto
            12 -15 -27 6 -39 hhcurveto
            -72 -287 rmoveto
            -8 19 -5 24 -1 22 rrcurveto
            6 20 21 3 24 hhcurveto
            17 20 -1 -3 11 hvcurveto
            3 -7 2 -9 -10 vvcurveto
            -6 vlineto
            -33 -22 -11 -33 -18 -17 2 4 -14 vhcurveto
            endchar
          </CharString>
          <CharString index="166">
            rmoveto
            -95 -52 -80 -96 hvcurveto
            -42 vlineto
            -86 55 -72 91 91 53 73 81 vhcurveto
            41 vlineto
            102 -48 79 -95 vhcurveto
            8 -87 rmoveto
            11 12 -2 -3 8 hvcurveto
            3 -3 2 -4 2 -5 -28 -25 -20 -18 -18 -16 -14 -12 -13 -16 -8 -16 rrcurveto
            -4 25 hlineto
            62 29 33 38 vhcurveto
            -43 -199 rmoveto
            -8 7 -7 11 -4 12 29 15 26 17 20 17 14 12 12 16 6 20 rrcurveto
            4 hlineto
            -3 0 -4 -4 vvcurveto
            -33 vlineto
            -62 -33 -23 -36 -8 -6 0 2 -9 vhcurveto
            endchar
          </CharString>
          <CharString index="167">
            rmoveto
            -9 -19 -5 -23 -28 vvcurveto
            -63 -1 26 -29 36 hhcurveto
            40 44 31 53 87 hvcurveto
            6 -4 rlineto
            -382 vlineto
            -72 -23 -30 -53 -19 -17 2 5 -15 vhcurveto
            -9 33 -3 95 53 67 rrcurveto
            6 vlineto
            2 -7 -7 1 -11 hhcurveto
            -45 -37 -15 -27 -27 hvcurveto
            -30 -30 -17 -45 -68 vvcurveto
            -38 19 -37 31 -31 vhcurveto
            -37 37 55 -27 47 hhcurveto
            151 76 80 151 hvcurveto
            413 vlineto
            50 -51 56 -88 -71 -111 -17 -23 -52 vhcurveto
            endchar
          </CharString>
          <CharString index="168">
            600 215 hmoveto
            193 vlineto
            21 5 21 7 21 8 rrcurveto
            6 hlineto
            10 -37 14 -33 17 -33 18 -34 22 -30 16 -16 rrcurveto
            -29 29 30 -11 50 hhcurveto
            39 33 7 15 25 hvcurveto
            -77 75 -68 89 -55 97 58 42 51 55 32 60 rrcurveto
            18 33 5 16 18 vvcurveto
            34 -55 21 -69 vhcurveto
            -24 hlineto
            -20 -65 -29 -55 -42 -54 -25 -32 -31 -29 -36 -26 rrcurveto
            -5 288 50 callsubr
            -7 callsubr
            return
          </CharString>
          <CharString index="169">
            rmoveto
            9 -36 4 -37 -40 vvcurveto
            -241 vlineto
            -96 31 -32 92 17 12 1 2 8 vhcurveto
            383 vlineto
            73 -31 30 -75 -25 -19 -2 -5 -23 vhcurveto
            241 -573 rmoveto
            -75 -66 12 43 -64 -93 callgsubr
            -29 29 67 -12 76 -92 callgsubr
            -38 -42 -4 -6 -34 vhcurveto
            -4 -14 -2 -23 -26 vvcurveto
            -69 12 -28 29 20 21 7 12 18 vhcurveto
            6 -3 rlineto
            -326 -81 callgsubr
          </CharString>
          <CharString index="170">
            749 rmoveto
            -9 -37 -4 -60 -26 vvcurveto
            -29 11 -8 32 21 10 1 2 17 vhcurveto
            18 2 21 2 20 vhcurveto
            18 hlineto
            39 23 1 2 16 hvcurveto
            -4 vlineto
            -16 -35 -21 -41 -23 -57 rrcurveto
            -23 -58 -9 -33 -32 vvcurveto
            -24 13 -10 26 24 24 2 4 15 vhcurveto
            45 13 55 30 72 vhcurveto
            29 69 23 49 13 vvcurveto
            8 vlineto
            27 -10 28 -25 vhcurveto
            -166 hlineto
            11 -11 -32 6 -39 hhcurveto
            return
          </CharString>
          <CharString index="171">
            rmoveto
            -4 -13 -2 -10 -16 vvcurveto
            -39 18 -20 59 vhcurveto
            192 hlineto
            3 12 2 12 16 vvcurveto
            36 -28 19 -51 3 vhcurveto
            256 vlineto
            21 -21 6 -34 -21 -20 -4 -6 -15 vhcurveto
            -9 -14 -16 -20 -16 -15 -13 -13 -16 -11 -17 -10 rrcurveto
            -17 vlineto
            -66 16 -11 20 10 8 4 9 9 vhcurveto
            13 13 12 21 9 21 rrcurveto
            4 -112 hlineto
            -29 6 -11 18 -8 vhcurveto
            -1 -4 rlineto
            return
          </CharString>
          <CharString index="172">
            -28 -55 -63 -12 -63 hhcurveto
            -57 -37 5 14 -31 hvcurveto
            -9 24 -5 29 38 vvcurveto
            3 vlineto
            10 0 9 1 9 vhcurveto
            5 2 rlineto
            -20 21 37 -13 44 hhcurveto
            208 hlineto
            18 17 7 82 hvcurveto
            5 vlineto
            136 -86 95 -141 vhcurveto
            12 -127 rmoveto
            25 9 -2 -5 15 hvcurveto
            14 -23 5 -28 -27 vvcurveto
            -7 -1 -11 -2 -8 vhcurveto
            -192 hlineto
            75 19 46 36 62 hhcurveto
            return
          </CharString>
          <CharString index="173">
            600 515 354 rmoveto
            87 -80 109 -138 -110 -40 -10 -24 -24 vhcurveto
            -19 -19 -9 -31 -31 vvcurveto
            -17 2 -19 3 -13 vhcurveto
            6 hlineto
            16 54 40 5 61 hhcurveto
            46 33 -4 -15 39 hvcurveto
            -8 -34 -5 -29 -4 -25 rrcurveto
            11 -36 -50 6 -57 hhcurveto
            -90 -86 -90 -69 hvcurveto
            -8 vlineto
            -108 56 -52 99 74 65 54 52 24 vhcurveto
            5 hlineto
            return
          </CharString>
          <CharString index="174">
            48 38 22 59 60 vhcurveto
            6 -2 rlineto
            -261 vlineto
            -74 63 -91 117 76 30 18 19 19 vhcurveto
            18 18 17 37 49 -6 callsubr
            -24 -42 -51 -10 -46 hhcurveto
            -12 -12 0 1 -10 hvcurveto
            -5 23 -2 26 30 vvcurveto
            236 vlineto
            63 -51 36 -89 -61 -62 -10 -30 -78 vhcurveto
            endchar
          </CharString>
          <CharString index="175">
            hvcurveto
            -9 35 -3 36 35 vvcurveto
            502 vlineto
            71 -36 29 -51 -25 -18 -3 -5 -10 vhcurveto
            -180 vlineto
            -116 3 -76 21 -113 vhcurveto
            -7 hlineto
            -82 164 -34 117 -22 119 rrcurveto
            66 -12 -56 27 -76 hhcurveto
            -25 -17 -1 -7 -26 hvcurveto
            9 -36 4 -34 -40 vvcurveto
            -483 vlineto
            -76 28 -38 63 22 14 3 4 13 vhcurveto
            endchar
          </CharString>
          <CharString index="176">
            710 rmoveto
            -100 -61 -89 -99 -59 -118 rrcurveto
            -17 -34 -5 -23 -12 vvcurveto
            -33 27 -22 58 19 17 3 4 16 vhcurveto
            39 119 40 67 74 66 rrcurveto
            6 hlineto
            74 -66 40 -67 39 -119 rrcurveto
            -4 16 17 -3 19 hhcurveto
            58 27 22 33 12 -5 23 -17 34 hvcurveto
            -37 74 -41 67 -72 72 rrcurveto
            59 -59 -28 6 -48 hhcurveto
            return
          </CharString>
          <CharString index="177">
            rrcurveto
            -34 34 36 -11 35 hhcurveto
            19 18 4 6 19 hvcurveto
            -9 35 -3 36 35 vvcurveto
            502 vlineto
            71 -36 29 -51 -25 -18 -3 -5 -10 vhcurveto
            -180 vlineto
            -116 3 -76 21 -113 vhcurveto
            -7 hlineto
            -82 164 -34 117 -22 119 rrcurveto
            66 -12 -56 27 -76 hhcurveto
            -25 -17 -1 -7 -26 hvcurveto
            9 -36 4 -34 -40 vvcurveto
            return
          </CharString>
          <CharString index="178">
            -94 20 rlineto
            -65 14 -16 7 20 vvcurveto
            24 39 14 102 69 39 -11 -19 40 vhcurveto
            6 hlineto
            3 13 2 13 13 vvcurveto
            58 -12 36 -21 21 vhcurveto
            19 -19 -34 7 -76 hhcurveto
            -145 -143 -63 -119 -75 44 -31 115 -27 hvcurveto
            116 -27 53 -12 9 -29 -5 -20 rlinecurve
            -7 -28 -36 -4 -43 hhcurveto
            endchar
          </CharString>
          <CharString index="179">
            22 22 16 46 40 vvcurveto
            11 -1 5 -2 9 vhcurveto
            -6 hlineto
            -12 -13 -16 -4 -13 hhcurveto
            -6 -9 2 3 -4 hvcurveto
            -312 12 rmoveto
            2 vlineto
            18 2 17 4 20 vhcurveto
            6 17 19 3 21 hhcurveto
            26 31 -2 -5 32 hvcurveto
            -53 vlineto
            -33 -32 -39 -13 -33 hhcurveto
            -40 -8 8 32 hvcurveto
            endchar
          </CharString>
          <CharString index="180">
            -87 -80 125 -88 hhcurveto
            -53 -31 -28 -44 -17 hvcurveto
            -6 -14 -6 -27 -37 vvcurveto
            -18 2 -28 7 -18 vhcurveto
            6 hlineto
            43 39 32 16 48 87 80 -125 88 hhcurveto
            53 31 28 44 17 hvcurveto
            6 14 6 27 37 vvcurveto
            18 -2 28 -7 18 vhcurveto
            -6 hlineto
            -43 -39 -32 -16 -48 hhcurveto
            return
          </CharString>
          <CharString index="181">
            597 751 rmoveto
            12 -25 -19 5 -25 hhcurveto
            -61 -39 -22 -40 -13 hvcurveto
            -85 -265 -117 -245 -148 -225 -23 -35 -20 -26 -22 -23 rrcurveto
            -16 24 24 -6 33 hhcurveto
            53 42 26 55 38 hvcurveto
            161 233 126 268 96 304 rrcurveto
            endchar
          </CharString>
          <CharString index="182">
            rrcurveto
            104 -36 -40 43 -118 hhcurveto
            -25 -30 -4 -6 -21 hvcurveto
            -62 -78 -52 -151 -25 -181 18 callsubr
            47 290 rmoveto
            -34 hlineto
            13 124 23 89 36 88 rrcurveto
            6 hlineto
            36 -97 16 -87 12 -144 -6 -2 rcurveline
            20 -25 -34 9 -43 hhcurveto
            return
          </CharString>
          <CharString index="183">
            vhcurveto
            209 vlineto
            137 46 46 39 47 hhcurveto
            11 10 -4 -8 10 hvcurveto
            -18 -86 -13 -70 -88 vvcurveto
            -80 53 -59 78 34 26 20 26 15 vhcurveto
            14 25 6 27 29 -34 callsubr
            -13 -14 -15 -5 -18 -1 rrcurveto
            -4 252 hlineto
            72 -51 86 -58 return
          </CharString>
          <CharString index="184">
            -22 -50 -38 -7 -67 hhcurveto
            -21 -18 2 4 -17 hvcurveto
            -3 10 -1 11 11 vvcurveto
            214 220 vlineto
            -65 callsubr
            -17 21 -56 vhcurveto
            -154 68 hlineto
            70 -42 32 -51 -23 -23 -4 -6 -24 vhcurveto
            10 -31 3 -30 -31 vvcurveto
            -68 vlineto
            return
          </CharString>
          <CharString index="185">
            600 302 720 rmoveto
            -149 -103 -149 -221 hvcurveto
            -40 vlineto
            -204 108 -126 142 148 102 129 191 vhcurveto
            40 vlineto
            234 -106 146 -142 vhcurveto
            22 -149 rmoveto
            12 11 0 -1 8 hvcurveto
            return
          </CharString>
          <CharString index="186">
            14 vlineto
            204 -116 92 -130 vhcurveto
            19 -140 rmoveto
            31 19 -2 -6 16 hvcurveto
            11 -41 5 -46 -56 vvcurveto
            -7 vlineto
            -91 -42 -35 -91 -30 -18 2 4 -18 vhcurveto
            -7 29 -4 34 42 vvcurveto
            7 vlineto
            119 42 47 86 vhcurveto
            endchar
          </CharString>
          <CharString index="187">
            rmoveto
            -64 -54 17 38 -57 -93 callgsubr
            -26 26 53 -15 63 -92 callgsubr
            -81 -82 -4 -6 -81 vhcurveto
            -4 -14 -2 -23 -26 vvcurveto
            -66 25 -31 46 45 51 11 25 62 vhcurveto
            7 -4 rlineto
            -342 -81 callgsubr
          </CharString>
          <CharString index="188">
            -49 3 -35 12 -17 54 -25 -1 -25 -6 -21 -13 -12 -8 -2 -15 5 -15 rrcurveto
            -81 29 59 -43 89 hhcurveto
            8 hlineto
            89 59 43 81 29 hvcurveto
            5 15 -2 15 -12 8 -21 13 -25 6 -25 1 -17 -54 -35 -12 -49 -3 rrcurveto
            return
          </CharString>
          <CharString index="189">
            4 15 2 22 21 vvcurveto
            66 -52 26 -60 vhcurveto
            -184 120 242 hlineto
            2 10 1 9 15 vvcurveto
            48 -23 48 -58 vhcurveto
            -164 57 hlineto
            42 -11 28 -27 17 vhcurveto
            2 6 rlineto
            92 callsubr
            endchar
          </CharString>
          <CharString index="190">
            rmoveto
            -58 -25 12 40 hvcurveto
            6 vlineto
            25 6 17 15 15 vhcurveto
            23 -12 27 -7 32 -3 117 -9 rcurveline
            17 -1 10 -10 -17 vvcurveto
            -7 vlineto
            -14 -2 -11 -8 -13 vhcurveto
            -8 -39 -47 -3 -55 hhcurveto
            endchar
          </CharString>
          <CharString index="191">
            -17 4 -34 hhcurveto
            -39 -19 -5 -14 -20 hvcurveto
            -64 -48 -42 -51 -46 -79 rrcurveto
            -24 vlineto
            -25 6 -20 23 -35 vhcurveto
            48 -70 38 -35 31 -18 rrcurveto
            -15 24 19 -5 43 hhcurveto
            37 15 4 9 27 hvcurveto
            return
          </CharString>
          <CharString index="192">
            vlineto
            41 -32 11 -66 -27 -29 -5 -5 -16 vhcurveto
            -9 -15 -29 -39 -25 -26 -28 -28 -32 -24 -42 -22 rrcurveto
            -25 vlineto
            -81 24 -33 32 31 28 15 27 22 vhcurveto
            16 20 14 22 12 30 rrcurveto
            6 return
          </CharString>
          <CharString index="193">
            600 345 411 rmoveto
            -9 17 22 -5 26 hhcurveto
            29 18 4 25 21 hvcurveto
            55 65 29 90 69 vvcurveto
            41 -17 22 -50 -27 -23 -3 -3 -22 vhcurveto
            -4 -103 -31 -102 -43 -91 rrcurveto
            return
          </CharString>
          <CharString index="194">
            446 rmoveto
            14 191 rlineto
            80 6 -41 37 -96 hhcurveto
            -16 -15 -1 -3 -16 hvcurveto
            9 -25 5 -29 4 -52 10 -142 rcurveline
            -45 3 22 -17 53 hhcurveto
            23 20 2 4 15 hvcurveto
            return
          </CharString>
          <CharString index="195">
            66 -36 21 -117 vhcurveto
            -33 141 hlineto
            48 -43 21 -53 -25 -19 -1 -6 -23 vhcurveto
            9 -36 4 -37 -40 vvcurveto
            -90 -69 vlineto
            -85 -22 -27 -72 -22 2 -14 5 -15 hvcurveto
            endchar
          </CharString>
          <CharString index="196">
            rmoveto
            22 12 5 12 11 hvcurveto
            58 66 52 144 92 vvcurveto
            64 -35 25 -89 -25 -17 -2 -6 -29 vhcurveto
            -149 -24 -121 -47 -90 vhcurveto
            -29 31 32 -11 48 hhcurveto
            endchar
          </CharString>
          <CharString index="197">
            rmoveto
            -46 1 -40 -6 -25 -13 -19 -10 -5 -19 5 -20 13 -52 32 -38 35 -22 rrcurveto
            -16 25 25 -6 36 hhcurveto
            29 24 6 13 23 hvcurveto
            -62 57 -29 46 -21 79 rrcurveto
            return
          </CharString>
          <CharString index="198">
            rmoveto
            21 13 4 11 11 hvcurveto
            58 58 52 127 82 vvcurveto
            64 -47 14 -77 -25 -17 -2 -5 -29 vhcurveto
            -131 -24 -107 -47 -80 vhcurveto
            -25 31 32 -10 48 hhcurveto
            endchar
          </CharString>
          <CharString index="199">
            324 hlineto
            5 14 2 19 21 vvcurveto
            32 -12 64 -59 vhcurveto
            -434 hlineto
            -3 -19 -2 -19 -17 vvcurveto
            -45 11 -50 35 vhcurveto
            9 -418 hlineto
            -59 77 -73 88 vhcurveto
            return
          </CharString>
          <CharString index="200">
            -17 58 -3 27 54 vvcurveto
            345 vlineto
            35 -40 31 -100 -67 -55 -2 -8 -72 vhcurveto
            -5 -19 -1 -18 -22 vvcurveto
            -63 17 -28 27 45 38 14 24 57 vhcurveto
            6 hlineto
            return
          </CharString>
          <CharString index="201">
            rmoveto
            4 vlineto
            55 27 38 39 10 7 -1 -2 6 vhcurveto
            10 -22 1 -20 -19 vvcurveto
            -4 vlineto
            -52 -22 -26 -44 -6 -10 1 4 -12 vhcurveto
            -5 15 -1 14 15 vvcurveto
            return
          </CharString>
          <CharString index="202">
            23 -28 -28 12 -45 hhcurveto
            -21 -13 -4 -11 -11 hvcurveto
            -41 -41 -69 -111 -95 vvcurveto
            -64 49 -14 65 27 17 2 5 27 vhcurveto
            130 29 96 42 72 vhcurveto
            return
          </CharString>
          <CharString index="203">
            -44 -30 3 10 -30 hvcurveto
            -18 30 -4 30 28 vvcurveto
            8 vlineto
            91 60 65 86 65 39 -15 -46 52 vhcurveto
            -85 callgsubr
            22 -22 -51 18 -72 hhcurveto
            endchar
          </CharString>
          <CharString index="204">
            rmoveto
            19 15 2 7 23 hvcurveto
            91 3 26 13 69 vhcurveto
            9 -17 -14 3 -26 hhcurveto
            -20 -10 -3 -13 -13 hvcurveto
            -36 -36 -13 -54 -54 vvcurveto
            -28 27 -19 49 vhcurveto
            return
          </CharString>
          <CharString index="205">
            rmoveto
            9 -17 -22 5 -26 hhcurveto
            -29 -18 -4 -25 -21 hvcurveto
            -55 -65 -29 -90 -69 vvcurveto
            -41 17 -22 50 27 23 3 3 22 vhcurveto
            4 103 31 102 43 91 rrcurveto
            return
          </CharString>
          <CharString index="206">
            -161 vlineto
            160 -245 rmoveto
            143 81 vlineto
            2 14 2 16 13 vvcurveto
            44 -12 15 -38 vhcurveto
            -35 85 hlineto
            13 callsubr
          </CharString>
          <CharString index="207">
            26 13 -2 -10 24 vhcurveto
            14 -27 15 -53 -78 vvcurveto
            -13 vlineto
            -168 -36 -91 -72 -24 -14 1 8 -23 vhcurveto
            -16 28 -15 54 79 vvcurveto
            return
          </CharString>
          <CharString index="208">
            rmoveto
            -34 hlineto
            13 124 23 89 36 88 rrcurveto
            6 hlineto
            36 -97 16 -87 12 -144 -6 -2 rcurveline
            20 -25 -34 9 -43 hhcurveto
            endchar
          </CharString>
          <CharString index="209">
            20 18 vvcurveto
            32 -6 29 -18 18 vhcurveto
            20 -20 -39 13 -75 hhcurveto
            -150 -84 -99 -127 hvcurveto
            -34 -144 -19 vlineto
            return
          </CharString>
          <CharString index="210">
            4 15 4 20 23 vvcurveto
            51 -18 41 -54 vhcurveto
            -462 hlineto
            -3 -15 -1 -12 -16 vvcurveto
            -69 41 -38 126 vhcurveto
            25 return
          </CharString>
          <CharString index="211">
            vvcurveto
            -77 56 -44 75 58 33 26 63 27 -4 17 -12 24 vhcurveto
            -6 hlineto
            -9 -16 -12 -4 -18 hhcurveto
            -26 -14 11 19 return
          </CharString>
          <CharString index="212">
            rmoveto
            111 vlineto
            81 -64 14 -47 -37 -32 -8 -16 -28 vhcurveto
            -111 vlineto
            -72 64 -10 56 26 34 3 8 28 vhcurveto
            return
          </CharString>
          <CharString index="213">
            -17 -22 -3 -3 -19 vhcurveto
            -129 vlineto
            -63 39 -9 45 17 22 3 3 19 vhcurveto
            203 hmoveto
            129 vlineto
            63 return
          </CharString>
          <CharString index="214">
            rmoveto
            -94 -63 -73 -108 hvcurveto
            -6 vlineto
            -103 57 -64 93 97 62 70 110 vhcurveto
            6 vlineto
            98 -64 70 -88 vhcurveto
            return
          </CharString>
          <CharString index="215">
            -327 vlineto
            -6 -3 rlineto
            21 -25 -34 9 -43 hhcurveto
            -41 207 hlineto
            27 callsubr
            -190 vlineto
            endchar
          </CharString>
          <CharString index="216">
            rmoveto
            -79 vlineto
            -63 48 -9 42 23 30 2 4 25 vhcurveto
            79 vlineto
            63 -48 9 -42 -23 -30 -2 -4 -25 vhcurveto
            return
          </CharString>
          <CharString index="217">
            -25 34 24 38 9 41 65 vhcurveto
            4 -3 rlineto
            -157 vlineto
            -55 10 -38 23 -26 vhcurveto
            -3 -6 rlineto
            endchar
          </CharString>
          <CharString index="218">
            hhcurveto
            7 6 -2 -6 6 hvcurveto
            -15 -129 -5 -84 -82 vvcurveto
            -66 23 -31 54 8 5 1 2 5 vhcurveto
            return
          </CharString>
          <CharString index="219">
            54 23 35 12 53 15 rrcurveto
            7 17 4 16 21 vvcurveto
            20 -12 19 -25 -26 -13 -5 -34 -77 vhcurveto
            return
          </CharString>
          <CharString index="220">
            -20 34 24 38 6 20 65 vhcurveto
            4 -4 rlineto
            -347 vlineto
            -55 10 -38 23 -26 vhcurveto
            -3 -6 rlineto
            return
          </CharString>
          <CharString index="221">
            rmoveto
            -4 -21 -3 -23 -19 vvcurveto
            -67 17 -20 56 vhcurveto
            439 19 hlineto
            108 -19 23 -88 vhcurveto
            endchar
          </CharString>
          <CharString index="222">
            rmoveto
            -19 vlineto
            -108 19 -23 88 vhcurveto
            398 -86 callsubr
            67 -17 20 -56 vhcurveto
            -432 return
          </CharString>
          <CharString index="223">
            -148 vlineto
            -193 -38 -57 -44 -54 49 callsubr
            83 74 vvcurveto
            107 -44 28 -85 vhcurveto
            return
          </CharString>
          <CharString index="224">
            -25 vvcurveto
            -45 12 -30 16 -16 vhcurveto
            -15 15 27 -9 42 hhcurveto
            118 57 68 98 hvcurveto
            12 vlineto
            return
          </CharString>
          <CharString index="225">
            rrcurveto
            -7 hlineto
            -43 105 -18 82 -12 101 rrcurveto
            70 -8 -41 20 -58 hhcurveto
            -22 -21 -2 -6 -21 hvcurveto
            return
          </CharString>
          <CharString index="226">
            hhcurveto
            99 111 97 237 hvcurveto
            22 vlineto
            112 -77 96 -78 -76 -76 -74 -86 -32 vhcurveto
            return
          </CharString>
          <CharString index="227">
            hhcurveto
            38 32 -10 -16 23 hvcurveto
            6 hlineto
            7 17 3 20 29 vvcurveto
            29 -8 24 -19 17 vhcurveto
            return
          </CharString>
          <CharString index="228">
            rmoveto
            -19 vlineto
            -73 28 -28 79 vhcurveto
            371 -86 callsubr
            43 -17 14 -56 vhcurveto
            endchar
          </CharString>
          <CharString index="229">
            25 25 13 35 46 vvcurveto
            22 -1 13 -3 15 vhcurveto
            -6 hlineto
            -39 -56 -56 -18 -85 hhcurveto
            return
          </CharString>
          <CharString index="230">
            -2 51 -2 49 -3 46 -12 178 -19 137 -35 102 75 callsubr
            endchar
          </CharString>
          <CharString index="231">
            -24 21 -79 vhcurveto
            -114 hlineto
            -9 36 -8 40 36 vvcurveto
            5 28 28 1 26 hhcurveto
            74 return
          </CharString>
          <CharString index="232">
            -61 hhcurveto
            -49 -402 rmoveto
            -5 19 -1 22 39 vvcurveto
            11 vlineto
            108 36 59 74 33 return
          </CharString>
          <CharString index="233">
            rmoveto
            3 4 0 -1 4 hvcurveto
            6 -15 2 -23 -42 vvcurveto
            -11 vlineto
            -108 -36 -59 -74 return
          </CharString>
          <CharString index="234">
            9 -36 4 -31 -39 vvcurveto
            -380 vlineto
            -54 25 -8 57 23 20 2 4 15 vhcurveto
            return
          </CharString>
          <CharString index="235">
            -14 24 -6 44 33 vvcurveto
            352 42 callsubr
            116 callsubr
            endchar
          </CharString>
          <CharString index="236">
            rmoveto
            -4 -16 -4 -25 -23 vvcurveto
            -74 19 -35 28 47 25 52 30 75 vhcurveto
            5 -4 return
          </CharString>
        <CharString name=".arrowhead">
          600 277 69 callsubr
          endchar
        </CharString>
        <CharString name=".notdef">
          600 550 623 rmoveto
          66 -17 21 -56 vhcurveto
          -427 -630 hlineto
          -66 17 -21 56 vhcurveto
          427 hlineto
          -276 423 rmoveto
          -38 -99 -15 -49 -5 -49 rrcurveto
          -6 351 127 hlineto
          -26 -60 -23 -56 -14 -38 rrcurveto
          75 -93 rmoveto
          17 40 13 62 4 50 rrcurveto
          7 -342 -130 hlineto
          32 61 31 67 26 62 rrcurveto
          endchar
        </CharString>
        <CharString name="A">
          600 217 hmoveto
          -77 callsubr
        </CharString>
        <CharString name="AE">
          600 168 3 52 callsubr
        </CharString>
        <CharString name="AEacute">
          600 400 933 -106 callsubr
          -232 -930 52 callsubr
        </CharString>
        <CharString name="Aacute">
          600 339 933 -106 callsubr
          -122 -933 rmoveto
          -77 callsubr
        </CharString>
        <CharString name="Abreve">
          600 399 954 -71 callsubr
          -182 -954 rmoveto
          -77 callsubr
        </CharString>
        <CharString name="Acircumflex">
          600 237 943 -105 callsubr
          -84 -943 rmoveto
          -77 callsubr
        </CharString>
        <CharString name="Adieresis">
          600 112 933 rmoveto
          -45 callsubr
          -5 callsubr
          -115 -933 rmoveto
          -77 callsubr
        </CharString>
        <CharString name="Adotbelow">
          7 callsubr
          75 callsubr
          -71 -356 -100 callsubr
        </CharString>
        <CharString name="Agrave">
          600 261 933 -24 callsubr
          -44 -933 rmoveto
          -77 callsubr
        </CharString>
        <CharString name="Amacron">
          600 94 912 -98 callsubr
          -214 -912 rmoveto
          -77 callsubr
        </CharString>
        <CharString name="Aogonek">
          600 217 hmoveto
          55 1 50 2 45 vhcurveto
          159 hlineto
          2 -29 1 -30 2 -33 1 -19 7 -16 13 -11 rrcurveto
          -53 -31 -25 -49 -63 -59 callsubr
          36 callsubr
          123 callsubr
        </CharString>
        <CharString name="Aring">
          7 callsubr
          -96 callgsubr
          89 -72 57 -98 -102 -74 -61 -90 vhcurveto
          -6 vlineto
          -42 19 -34 32 -24 vhcurveto
          -49 -84 -40 -130 -21 -152 18 callsubr
          89 823 -50 callsubr
          -42 -533 101 callsubr
        </CharString>
        <CharString name="Aringacute">
          7 callsubr
          -96 callgsubr
          56 -29 44 -46 24 vhcurveto
          2 1 1 1 2 1 42 25 27 27 17 47 7 21 -3 18 -19 7 -31 10 -36 5 -54 0 -95 callgsubr
          -42 19 -34 32 -24 vhcurveto
          -49 -84 -40 -130 -21 -152 18 callsubr
          89 823 -50 callsubr
          -42 -533 101 callsubr
        </CharString>
        <CharString name="Atilde">
          600 396 902 4 callsubr
          -179 -902 rmoveto
          -77 callsubr
        </CharString>
        <CharString name="B">
          600 276 -10 rmoveto
          139 115 76 132 hvcurveto
          24 callsubr
          90 -84 122 -161 -90 -99 -6 -14 -85 vhcurveto
          48 callsubr
          30 callsubr
          -35 35 63 -26 69 hhcurveto
          -41 465 -1 callsubr
        </CharString>
        <CharString name="C">
          600 336 -20 -47 callsubr
        </CharString>
        <CharString name="Cacute">
          600 342 933 -106 callsubr
          -6 -953 -47 callsubr
        </CharString>
        <CharString name="Ccaron">
          600 367 775 -92 callsubr
          33 -795 -47 callsubr
        </CharString>
        <CharString name="Ccedilla">
          600 445 -129 rmoveto
          39 callsubr
          5 1 6 71 3 48 21 32 32 rrcurveto
          2 callsubr
          -104 callgsubr
          -150 86 -108 134 -25 vhcurveto
          -5 -21 -2 -24 -9 -69 callsubr
          vhcurveto
          endchar
        </CharString>
        <CharString name="Ccircumflex">
          600 240 943 -105 callsubr
          32 -963 -47 callsubr
        </CharString>
        <CharString name="Cdotaccent">
          600 199 917 -83 callsubr
          137 -937 -47 callsubr
        </CharString>
        <CharString name="D">
          600 558 403 rmoveto
          -26 callsubr
          -423 vlineto
          -16 callsubr
          -323 -258 rmoveto
          330 vlineto
          13 callsubr
        </CharString>
        <CharString name="Dcaron">
          600 353 775 -92 callsubr
          269 -372 rmoveto
          -26 callsubr
          -423 vlineto
          -16 callsubr
          -323 -258 rmoveto
          330 vlineto
          13 callsubr
        </CharString>
        <CharString name="Dcroat">
          600 5 390 rmoveto
          -13 vlineto
          -75 12 -14 33 vhcurveto
          25 -160 hlineto
          -16 callsubr
          -26 callsubr
          99 callsubr
        </CharString>
        <CharString name="E">
          600 250 hmoveto
          -87 callsubr
        </CharString>
        <CharString name="Eacute">
          -68 callsubr
          -89 -934 rmoveto
          -87 callsubr
        </CharString>
        <CharString name="Ebreve">
          600 399 955 -71 callsubr
          -149 -955 rmoveto
          -87 callsubr
        </CharString>
        <CharString name="Ecaron">
          600 364 776 -92 callsubr
          -50 -776 rmoveto
          -87 callsubr
        </CharString>
        <CharString name="Ecircumflex">
          600 237 944 -105 callsubr
          -51 -944 rmoveto
          -87 callsubr
        </CharString>
        <CharString name="Edieresis">
          -44 callsubr
          -82 -934 rmoveto
          -87 callsubr
        </CharString>
        <CharString name="Edotaccent">
          600 196 918 -83 callsubr
          54 -918 rmoveto
          -87 callsubr
        </CharString>
        <CharString name="Edotbelow">
          600 250 hmoveto
          285 hlineto
          4 15 2 22 21 vvcurveto
          66 -52 26 -60 vhcurveto
          -184 120 242 hlineto
          2 10 1 9 15 vvcurveto
          48 -23 48 -58 vhcurveto
          -164 57 hlineto
          42 -11 28 -27 17 vhcurveto
          2 6 rlineto
          92 callsubr
          -16 -66 -100 callsubr
        </CharString>
        <CharString name="Egrave">
          -39 callsubr
          -11 -934 rmoveto
          -87 callsubr
        </CharString>
        <CharString name="Emacron">
          -37 callsubr
          -181 -913 rmoveto
          -87 callsubr
        </CharString>
        <CharString name="Eng">
          600 215 hmoveto
          101 22 callsubr
          8 -8 9 -8 9 -5 rrcurveto
          -92 -8 -40 -22 -57 hhcurveto
          -68 -40 11 18 -41 hvcurveto
          -4 hlineto
          -3 -12 -1 -12 -14 vvcurveto
          -44 11 -46 21 -21 vhcurveto
          -16 16 34 -14 69 hhcurveto
          146 100 110 140 68 callsubr
        </CharString>
        <CharString name="Eogonek">
          600 250 hmoveto
          122 hlineto
          -41 -31 -19 -45 -55 -59 callsubr
          36 callsubr
          rrcurveto
          82 callsubr
        </CharString>
        <CharString name="Eth">
          600 5 390 rmoveto
          -13 vlineto
          -75 12 -14 33 vhcurveto
          25 -160 hlineto
          -16 callsubr
          -26 callsubr
          99 callsubr
        </CharString>
        <CharString name="Etilde">
          -57 callsubr
          -146 -903 rmoveto
          -87 callsubr
        </CharString>
        <CharString name="Euro">
          600 8 333 rmoveto
          -18 vlineto
          -50 20 -25 49 -7 vhcurveto
          -157 14 102 -96 159 hhcurveto
          96 59 24 29 28 hvcurveto
          25 26 10 39 54 vvcurveto
          17 -1 20 -6 19 vhcurveto
          -6 hlineto
          -55 -52 -61 -22 -78 hhcurveto
          -71 -44 17 33 -27 hvcurveto
          16 -1 18 16 vvcurveto
          267 17 hlineto
          60 -30 25 -86 vhcurveto
          -151 hlineto
          1 16 1 16 2 14 rrcurveto
          263 12 hlineto
          64 -36 27 -87 vhcurveto
          -115 hlineto
          71 30 50 31 61 hhcurveto
          57 44 -15 -27 35 hvcurveto
          6 hlineto
          17 19 10 29 30 vvcurveto
          31 -5 16 -18 17 vhcurveto
          17 -17 -47 19 -76 hhcurveto
          -151 -102 -93 -145 -44 hvcurveto
          -94 -19 hlineto
          -48 20 -30 53 -5 vhcurveto
          -2 -15 -1 -16 -1 -16 rrcurveto
          endchar
        </CharString>
        <CharString name="F">
          600 276 hmoveto
          -103 callsubr
          114 221 vlineto
          3 12 1 12 15 vvcurveto
          54 -34 47 -65 vhcurveto
          -126 105 hlineto
          -75 callsubr
          6 rlineto
          304 hlineto
          5 14 2 19 21 vvcurveto
          32 -12 64 -59 vhcurveto
          -434 hlineto
          -3 -19 -2 -19 -17 vvcurveto
          -45 12 -50 41 vhcurveto
          22 -447 hlineto
          -35 callsubr
          endchar
        </CharString>
        <CharString name="G">
          600 318 355 rmoveto
          -73 callsubr
          -49 callsubr
        </CharString>
        <CharString name="Gbreve">
          600 411 954 -71 callsubr
          -93 -599 rmoveto
          -73 callsubr
          -49 callsubr
        </CharString>
        <CharString name="Gcaron">
          600 376 775 -92 callsubr
          6 -420 rmoveto
          -73 callsubr
          -49 callsubr
        </CharString>
        <CharString name="Gcircumflex">
          600 249 943 -105 callsubr
          5 -588 rmoveto
          -73 callsubr
          -49 callsubr
        </CharString>
        <CharString name="Gcommaaccent">
          600 318 355 rmoveto
          -73 callsubr
          34 -34 -36 21 -57 hhcurveto
          -173 -122 -177 -249 hvcurveto
          -26 vlineto
          -171 112 -117 168 81 54 24 33 33 vhcurveto
          19 callsubr
          -246 -421 -107 callsubr
          -76 callsubr
        </CharString>
        <CharString name="Gdotaccent">
          600 208 917 -83 callsubr
          110 -562 rmoveto
          -73 callsubr
          -49 callsubr
        </CharString>
        <CharString name="Germandbls">
          600 233 hmoveto
          -5 29 -3 37 30 vvcurveto
          352 vlineto
          45 -14 36 -24 15 vhcurveto
          2 6 184 0 3 -5 rlineto
          -13 -11 -12 -12 -9 -11 -15 -18 rcurveline
          -26 -31 -13 -33 -33 vvcurveto
          -7 vlineto
          -45 22 -35 52 -36 vhcurveto
          29 -20 rlineto
          45 -31 13 -16 -25 vvcurveto
          -9 -1 -8 -2 -8 vhcurveto
          -7 -10 -16 -3 -21 hhcurveto
          -36 -31 7 14 -28 hvcurveto
          -4 hlineto
          -7 -18 -3 -21 117 callsubr
          72 -26 46 -68 50 vhcurveto
          -26 19 -14 11 -10 8 -7 8 rlinecurve
          23 9 14 43 43 vhcurveto
          21 21 rlineto
          31 31 21 38 45 vvcurveto
          14 vlineto
          47 -25 44 -38 vhcurveto
          -457 hlineto
          -4 -19 -2 -18 -20 vvcurveto
          -65 12 -28 28 vhcurveto
          -428 vlineto
          -92 28 -36 72 23 22 2 4 23 vhcurveto
          endchar
        </CharString>
        <CharString name="H">
          600 25 400 15 callsubr
          490 41 callsubr
          108 callsubr
        </CharString>
        <CharString name="Hbar">
          600 25 400 15 callsubr
          375 45 vlineto
          2 14 2 16 13 vvcurveto
          44 -12 15 -37 vhcurveto
          13 41 callsubr
          -110 -149 17 vlineto
          27 callsubr
          -60 -13 hlineto
          -75 12 -14 33 vhcurveto
          15 -88 hlineto
          197 hmoveto
          -41 88 149 -115 hlineto
          -6 -3 rlineto
          21 -25 -34 9 -43 hhcurveto
          endchar
        </CharString>
        <CharString name="Hcircumflex">
          600 223 943 -105 callsubr
          -262 -543 15 callsubr
          490 41 callsubr
          108 callsubr
        </CharString>
        <CharString name="I">
          600 548 hmoveto
          -99 callsubr
          -78 callsubr
        </CharString>
        <CharString name="IJ">
          600 62 703 62 callsubr
        </CharString>
        <CharString name="IJacute">
          600 179 934 -106 callsubr
          300 hmoveto
          -46 callsubr
          -417 -231 62 callsubr
        </CharString>
        <CharString name="Iacute">
          -68 callsubr
          209 -934 rmoveto
          -99 callsubr
          -78 callsubr
        </CharString>
        <CharString name="Ibreve">
          600 399 955 -71 callsubr
          149 -955 rmoveto
          -99 callsubr
          -78 callsubr
        </CharString>
        <CharString name="Icircumflex">
          600 237 944 -105 callsubr
          247 -944 rmoveto
          -99 callsubr
          -78 callsubr
        </CharString>
        <CharString name="Idieresis">
          -44 callsubr
          216 -934 rmoveto
          -99 callsubr
          -78 callsubr
        </CharString>
        <CharString name="Idotaccent">
          600 196 918 -83 callsubr
          352 -918 rmoveto
          -99 callsubr
          -78 callsubr
        </CharString>
        <CharString name="Idotbelow">
          600 548 hmoveto
          -99 callsubr
          -443 hlineto
          10 callsubr
          99 -66 -100 callsubr
        </CharString>
        <CharString name="Igrave">
          -39 callsubr
          287 -934 rmoveto
          -99 callsubr
          -78 callsubr
        </CharString>
        <CharString name="Imacron">
          -37 callsubr
          117 -913 rmoveto
          -99 callsubr
          -78 callsubr
        </CharString>
        <CharString name="Iogonek">
          600 50 700 rmoveto
          10 callsubr
          278 hlineto
          -41 -31 -19 -45 -55 -59 callsubr
          36 callsubr
          rrcurveto
          -99 callsubr
          endchar
        </CharString>
        <CharString name="Itilde">
          -57 callsubr
          152 -903 rmoveto
          -99 callsubr
          -78 callsubr
        </CharString>
        <CharString name="J">
          600 278 130 80 callsubr
        </CharString>
        <CharString name="Jcircumflex">
          600 239 943 -105 callsubr
          -25 -813 80 callsubr
        </CharString>
        <CharString name="K">
          56 callsubr
          endchar
        </CharString>
        <CharString name="Kcommaaccent">
          56 callsubr
          205 -766 -107 callsubr
          -76 callsubr
        </CharString>
        <CharString name="L">
          600 163 hmoveto
          6 callsubr
        </CharString>
        <CharString name="Lacute">
          600 185 933 -106 callsubr
          -22 -933 rmoveto
          6 callsubr
        </CharString>
        <CharString name="Lcaron">
          600 457 714 -21 callsubr
          -294 -714 rmoveto
          6 callsubr
        </CharString>
        <CharString name="Lcommaaccent">
          600 163 hmoveto
          233 hlineto
          -1 0 -2 -1 vvcurveto
          -24 27 -17 74 vhcurveto
          33 68 29 76 82 vvcurveto
          46 -20 16 -60 -23 -20 -2 -4 -15 vhcurveto
          -34 -2 -28 -3 -25 vhcurveto
          -191 470 hlineto
          73 -24 17 -71 -30 -25 -4 -6 -23 vhcurveto
          -86 callgsubr
          73 -66 -107 callsubr
          -76 callsubr
        </CharString>
        <CharString name="Lslash">
          600 193 hmoveto
          362 hlineto
          5 17 1 24 27 vvcurveto
          62 -37 30 -75 vhcurveto
          -194 146 hlineto
          58 31 rlineto
          67 36 19 25 59 vvcurveto
          28 -2 21 -5 20 vhcurveto
          -137 -74 rlineto
          168 vlineto
          71 -20 19 -76 -33 -21 -2 -5 -23 vhcurveto
          9 -35 4 -37 -41 vvcurveto
          -204 vlineto
          -10 -5 rlineto
          -48 -26 -17 -41 -51 vvcurveto
          -22 1 -18 6 -19 vhcurveto
          68 37 rlineto
          -83 vlineto
          -89 42 -69 56 vhcurveto
          endchar
        </CharString>
        <CharString name="M">
          600 195 hmoveto
          150 vlineto
          66 -3 67 -24 179 vhcurveto
          6 hlineto
          45 -112 35 -70 30 -30 rrcurveto
          -4 4 4 -1 5 hhcurveto
          9 hlineto
          42 35 39 73 41 109 rrcurveto
          6 hlineto
          -27 -182 -2 -73 -57 vvcurveto
          -73 vlineto
          -64 52 -21 46 25 12 3 5 16 vhcurveto
          -8 30 -3 35 37 vvcurveto
          518 vlineto
          66 -29 22 -73 -20 -19 -3 -5 -18 vhcurveto
          -13 -125 -24 -92 -44 -72 rrcurveto
          -6 hlineto
          -39 70 -16 70 -18 81 rrcurveto
          56 -12 -32 20 -69 hhcurveto
          -22 -23 -2 -6 -25 hvcurveto
          7 -30 5 -34 -36 vvcurveto
          -523 vlineto
          -64 42 -21 47 20 20 2 6 11 vhcurveto
          endchar
        </CharString>
        <CharString name="N">
          600 215 hmoveto
          -18 callsubr
        </CharString>
        <CharString name="Nacute">
          -68 callsubr
          -124 -934 rmoveto
          -18 callsubr
        </CharString>
        <CharString name="Ncaron">
          600 364 776 -92 callsubr
          -85 -776 rmoveto
          -18 callsubr
        </CharString>
        <CharString name="Ncommaaccent">
          600 215 hmoveto
          101 22 callsubr
          70 callsubr
          -483 vlineto
          -76 28 -38 63 22 14 3 4 13 vhcurveto
          28 -66 -107 callsubr
          -76 callsubr
        </CharString>
        <CharString name="Nhookleft">
          600 19 -55 rmoveto
          -22 -9 3 7 -19 hvcurveto
          -4 hlineto
          -3 -16 -1 -15 -16 vvcurveto
          -53 12 -31 21 -21 vhcurveto
          -10 10 13 -6 14 hhcurveto
          10 hlineto
          97 77 86 117 hvcurveto
          111 22 callsubr
          70 callsubr
          -544 vlineto
          -68 -18 -33 -38 vhcurveto
          endchar
        </CharString>
        <CharString name="Ntilde">
          -57 callsubr
          -181 -903 rmoveto
          -18 callsubr
        </CharString>
        <CharString name="O">
          -40 callsubr
          -96 callsubr
          -80 callsubr
        </CharString>
        <CharString name="OE">
          600 236 710 rmoveto
          -128 -78 -122 -246 hvcurveto
          -16 vlineto
          -233 72 -103 136 43 35 12 17 25 vhcurveto
          -11 13 18 -8 18 hhcurveto
          191 hlineto
          4 15 2 20 23 vvcurveto
          65 -24 27 -58 vhcurveto
          -70 90 117 hlineto
          3 12 2 14 16 vvcurveto
          56 -26 32 -45 vhcurveto
          -51 88 hlineto
          41 -11 28 -27 17 vhcurveto
          2 6 rlineto
          181 hlineto
          5 14 2 19 21 vvcurveto
          59 -26 37 -42 vhcurveto
          -221 hlineto
          7 -20 -22 3 -20 hhcurveto
          -66 -411 rmoveto
          13 vlineto
          175 34 88 53 16 12 -5 -9 10 vhcurveto
          -421 vlineto
          -12 -10 -11 -5 -17 hhcurveto
          -53 -34 46 130 hvcurveto
          endchar
        </CharString>
        <CharString name="Oacute">
          -68 callsubr
          -36 -214 -56 callsubr
          -96 callsubr
          -80 callsubr
        </CharString>
        <CharString name="Obreve">
          600 399 955 -71 callsubr
          -96 -235 -56 callsubr
          -96 callsubr
          -80 callsubr
        </CharString>
        <CharString name="Ocircumflex">
          600 237 944 -105 callsubr
          2 -224 -56 callsubr
          -96 callsubr
          -80 callsubr
        </CharString>
        <CharString name="Odieresis">
          -44 callsubr
          -29 -214 -56 callsubr
          -96 callsubr
          -80 callsubr
        </CharString>
        <CharString name="Odotbelow">
          -40 callsubr
          -96 callsubr
          146 100 132 246 vhcurveto
          16 vlineto
          233 -89 113 -158 vhcurveto
          40 callsubr
          100 callsubr
          6 -365 -100 callsubr
        </CharString>
        <CharString name="Ograve">
          -39 callsubr
          42 -214 -56 callsubr
          -96 callsubr
          -80 callsubr
        </CharString>
        <CharString name="Ohungarumlaut">
          600 189 934 -106 callsubr
          250 hmoveto
          -46 callsubr
          -136 -214 -56 callsubr
          -96 callsubr
          -80 callsubr
        </CharString>
        <CharString name="Omacron">
          -37 callsubr
          -128 -193 -56 callsubr
          -96 callsubr
          -80 callsubr
        </CharString>
        <CharString name="Oogonek">
          -40 callsubr
          -196 63 -111 118 -30 vhcurveto
          -20 -28 -10 -34 -39 -59 callsubr
          17 9 14 14 11 hvcurveto
          120 27 78 128 218 vvcurveto
          20 callsubr
        </CharString>
        <CharString name="Oslash">
          -40 callsubr
          53 callsubr
        </CharString>
        <CharString name="Oslashacute">
          -68 callsubr
          -36 -214 -56 callsubr
          53 callsubr
        </CharString>
        <CharString name="Otilde">
          -57 callsubr
          -93 -183 -56 callsubr
          -96 callsubr
          -80 callsubr
        </CharString>
        <CharString name="P">
          600 246 hmoveto
          -103 callsubr
          119 6 vlineto
          -36 21 31 -21 36 hhcurveto
          116 105 106 228 hvcurveto
          7 vlineto
          120 -107 101 -148 -90 -99 -6 -14 -85 vhcurveto
          48 callsubr
          vhcurveto
          4 5 1 7 hhcurveto
          -448 vlineto
          -35 callsubr
          -11 472 rmoveto
          -75 callsubr
          6 rlineto
          2 25 28 1 30 hhcurveto
          47 33 -7 -14 26 hvcurveto
          3 -14 1 -15 -17 vvcurveto
          -15 vlineto
          -135 -41 -53 -63 -20 -17 2 3 -16 vhcurveto
          endchar
        </CharString>
        <CharString name="Q">
          -40 callsubr
          -96 callsubr
          15 14 1 3 14 vhcurveto
          8 -27 11 -26 14 -29 rrcurveto
          -57 29 40 -23 50 hhcurveto
          22 16 5 15 15 hvcurveto
          17 17 13 28 50 vvcurveto
          22 -2 19 -5 21 vhcurveto
          -6 hlineto
          -7 -12 -6 -2 -17 hhcurveto
          -29 -22 14 38 -20 hvcurveto
          -1 2 -1 2 -1 3 rrcurveto
          56 62 34 104 143 vvcurveto
          20 callsubr
        </CharString>
        <CharString name="R">
          600 246 hmoveto
          -103 callsubr
          54 callsubr
          endchar
        </CharString>
        <CharString name="Racute">
          600 336 933 -106 callsubr
          -90 -933 rmoveto
          -103 callsubr
          54 callsubr
          endchar
        </CharString>
        <CharString name="Rcaron">
          600 361 775 -92 callsubr
          -51 -775 rmoveto
          -103 callsubr
          54 callsubr
          endchar
        </CharString>
        <CharString name="Rcommaaccent">
          600 246 hmoveto
          -103 callsubr
          54 callsubr
          7 -383 -107 callsubr
          -76 callsubr
        </CharString>
        <CharString name="S">
          600 368 720 -14 callsubr
        </CharString>
        <CharString name="Sacute">
          600 354 933 -106 callsubr
          14 -213 -14 callsubr
        </CharString>
        <CharString name="Scaron">
          600 379 775 -92 callsubr
          53 -55 -14 callsubr
        </CharString>
        <CharString name="Scedilla">
          600 422 -130 rmoveto
          39 callsubr
          6 1 7 rrcurveto
          154 7 69 69 105 vvcurveto
          16 vlineto
          5 callsubr
          8 callsubr
          26 -26 61 -21 73 -7 rrcurveto
          -4 -21 -2 -23 -8 -69 callsubr
          vhcurveto
          endchar
        </CharString>
        <CharString name="Schwa">
          600 268 716 rmoveto
          -99 -53 -12 -30 -28 hvcurveto
          -20 -22 -8 -32 -46 vvcurveto
          -12 1 -13 3 -13 vhcurveto
          4 hlineto
          24 61 80 16 67 hhcurveto
          33 17 -2 -6 16 hvcurveto
          34 -40 18 -57 5 -81 -6 -3 rcurveline
          32 -31 -46 15 -67 hhcurveto
          -108 hlineto
          -79 -22 -24 -87 hvcurveto
          -98 vlineto
          -156 85 -85 155 158 112 143 207 vhcurveto
          3 vlineto
          235 -113 144 -169 vhcurveto
          -13 -595 rmoveto
          -16 -16 2 4 -15 hvcurveto
          -6 19 -4 35 40 vvcurveto
          101 202 vlineto
          -138 -5 -46 -63 -94 hhcurveto
          endchar
        </CharString>
        <CharString name="Scircumflex">
          600 252 943 -105 callsubr
          52 -223 -14 callsubr
        </CharString>
        <CharString name="Scommaaccent">
          600 368 720 rmoveto
          8 callsubr
          31 callsubr
          5 callsubr
          -118 -786 -107 callsubr
          -76 callsubr
        </CharString>
        <CharString name="T">
          -10 callsubr
          359 vlineto
          -75 callsubr
          -36 callsubr
          -447 hlineto
          -35 callsubr
          endchar
        </CharString>
        <CharString name="Tbar">
          -10 callsubr
          162 144 vlineto
          4 17 2 17 19 vvcurveto
          59 -12 20 -38 vhcurveto
          -100 65 hlineto
          -75 callsubr
          -36 callsubr
          -160 -150 -13 hlineto
          -100 17 -19 48 vhcurveto
          85 -155 hlineto
          -35 callsubr
          endchar
        </CharString>
        <CharString name="Tcaron">
          600 360 775 -92 callsubr
          95 -775 rmoveto
          -103 callsubr
          359 vlineto
          -75 callsubr
          -36 callsubr
          -447 hlineto
          -35 callsubr
          endchar
        </CharString>
        <CharString name="Tcedilla">
          -10 callsubr
          359 vlineto
          -75 callsubr
          -36 callsubr
          -447 hlineto
          -41 10 -29 23 -17 vhcurveto
          -9 -24 -3 -37 -11 -69 callsubr
          39 callsubr
          6 1 6 rrcurveto
          4 3 0 4 hhcurveto
          22 13 2 4 18 hvcurveto
          endchar
        </CharString>
        <CharString name="Tcommaaccent">
          -10 callsubr
          359 vlineto
          -75 callsubr
          -36 callsubr
          -447 hlineto
          -35 callsubr
          -141 -52 -107 callsubr
          -81 callsubr
        </CharString>
        <CharString name="Thorn">
          600 62 703 rmoveto
          9 -36 4 -37 -40 vvcurveto
          -489 vlineto
          -74 41 -37 82 17 12 1 2 8 vhcurveto
          177 6 vlineto
          -36 18 37 -22 43 hhcurveto
          116 95 115 142 hvcurveto
          7 vlineto
          119 -90 92 -128 -32 -33 -2 -3 -32 vhcurveto
          25 vlineto
          75 -29 28 -77 -25 -19 -2 -5 -23 vhcurveto
          194 -265 rmoveto
          3 18 20 3 32 hhcurveto
          26 18 -5 -9 16 hvcurveto
          4 -17 2 -20 -23 vvcurveto
          -8 vlineto
          -75 -41 -30 -63 -24 -13 2 3 -16 vhcurveto
          172 vlineto
          6 1 7 2 8 1 rrcurveto
          endchar
        </CharString>
        <CharString name="U">
          -9 callsubr
          -97 callsubr
          -91 callsubr
        </CharString>
        <CharString name="Uacute">
          -68 callsubr
          -138 -944 -79 callsubr
          -97 callsubr
          -91 callsubr
        </CharString>
        <CharString name="Ubreve">
          600 399 955 -71 callsubr
          -198 -965 -79 callsubr
          -97 callsubr
          -91 callsubr
        </CharString>
        <CharString name="Ucircumflex">
          600 237 944 -105 callsubr
          -100 -954 -79 callsubr
          -97 callsubr
          -91 callsubr
        </CharString>
        <CharString name="Udieresis">
          -44 callsubr
          -131 -944 -79 callsubr
          -97 callsubr
          -91 callsubr
        </CharString>
        <CharString name="Udotbelow">
          -9 callsubr
          -97 callsubr
          76 -27 33 -76 -18 -20 -3 -7 -15 vhcurveto
          -273 23 callsubr
          28 165 8 118 110 vvcurveto
          -102 callgsubr
          4 -56 -100 callsubr
        </CharString>
        <CharString name="Ugrave">
          -39 callsubr
          -60 -944 -79 callsubr
          -97 callsubr
          -91 callsubr
        </CharString>
        <CharString name="Uhungarumlaut">
          600 189 934 -106 callsubr
          250 hmoveto
          -46 callsubr
          -238 -944 -79 callsubr
          -97 callsubr
          -91 callsubr
        </CharString>
        <CharString name="Umacron">
          -37 callsubr
          -230 -923 -79 callsubr
          -97 callsubr
          -91 callsubr
        </CharString>
        <CharString name="Uogonek">
          -9 callsubr
          9 -58 12 -34 15 -21 rrcurveto
          -67 -29 -32 -53 -71 -59 callsubr
          36 callsubr
          rrcurveto
          -13 32 -6 32 37 vvcurveto
          500 vlineto
          -91 callsubr
        </CharString>
        <CharString name="Uring">
          -9 callsubr
          -97 callsubr
          66 -20 34 -56 7 vhcurveto
          8 16 4 19 19 vvcurveto
          6 vlineto
          89 -72 57 -98 -102 -74 -61 -90 vhcurveto
          -6 vlineto
          -17 3 -17 6 -14 vhcurveto
          1 -7 -8 0 -9 hhcurveto
          -24 -19 -2 -8 -24 hvcurveto
          -87 callgsubr
          104 834 -50 callsubr
          -111 -657 rmoveto
          28 165 8 118 110 vvcurveto
          30 -2 24 -5 19 vhcurveto
          -7 22 24 -4 27 hhcurveto
          31 28 5 10 25 hvcurveto
          -210 23 callsubr
          endchar
        </CharString>
        <CharString name="Utilde">
          -57 callsubr
          -195 -913 -79 callsubr
          -97 callsubr
          -91 callsubr
        </CharString>
        <CharString name="V">
          600 103 708 rmoveto
          -18 -19 -3 -5 -17 hvcurveto
          2 -53 2 -50 4 -47 19 -253 45 -185 81 -79 rrcurveto
          -38 39 39 -5 29 hhcurveto
          20 26 2 6 19 hvcurveto
          112 91 46 236 13 265 rrcurveto
          89 5 -39 29 -65 hhcurveto
          -18 -19 -3 -5 -20 hvcurveto
          -277 -13 -162 -71 -152 vhcurveto
          -7 hlineto
          -61 137 -11 127 -10 218 rrcurveto
          97 -5 -43 20 -65 hhcurveto
          endchar
        </CharString>
        <CharString name="W">
          600 19 700 -55 callsubr
        </CharString>
        <CharString name="Wacute">
          600 339 933 -106 callsubr
          -320 -233 -55 callsubr
        </CharString>
        <CharString name="Wcircumflex">
          600 237 943 -105 callsubr
          -282 -243 -55 callsubr
        </CharString>
        <CharString name="Wdieresis">
          600 112 933 rmoveto
          -45 callsubr
          -5 callsubr
          -313 -233 -55 callsubr
        </CharString>
        <CharString name="Wgrave">
          600 261 933 -24 callsubr
          -242 -233 -55 callsubr
        </CharString>
        <CharString name="X">
          600 135 -8 rmoveto
          22 27 3 5 18 hvcurveto
          11 75 19 71 29 59 rrcurveto
          6 hlineto
          35 -60 35 -56 35 -48 rrcurveto
          -40 29 35 -13 79 hhcurveto
          24 27 4 8 18 hvcurveto
          -67 78 -69 110 -63 116 89 100 52 99 27 92 rrcurveto
          94 28 -55 19 -62 hhcurveto
          -23 -15 -2 -6 -18 hvcurveto
          -21 -123 -23 -87 -33 -68 rrcurveto
          -7 hlineto
          -38 79 -22 51 -28 77 rrcurveto
          61 -21 -44 18 -80 hhcurveto
          -25 -23 -2 -6 -26 hvcurveto
          44 -109 69 -142 74 -134 -83 -88 -50 -72 -27 -61 rrcurveto
          -72 -31 55 -30 67 hhcurveto
          endchar
        </CharString>
        <CharString name="Y">
          600 396 hmoveto
          -72 callsubr
        </CharString>
        <CharString name="Yacute">
          -68 callsubr
          57 -934 rmoveto
          -72 callsubr
        </CharString>
        <CharString name="Ycircumflex">
          600 237 944 -105 callsubr
          95 -944 rmoveto
          -72 callsubr
        </CharString>
        <CharString name="Ydieresis">
          -44 callsubr
          64 -934 rmoveto
          -72 callsubr
        </CharString>
        <CharString name="Ygrave">
          -39 callsubr
          135 -934 rmoveto
          -72 callsubr
        </CharString>
        <CharString name="Ymacron">
          -37 callsubr
          -35 -913 rmoveto
          -72 callsubr
        </CharString>
        <CharString name="Ytilde">
          -57 callsubr
          -903 vmoveto
          -72 callsubr
        </CharString>
        <CharString name="Z">
          600 208 500 -33 callsubr
        </CharString>
        <CharString name="Zacute">
          600 339 933 -106 callsubr
          -131 -433 -33 callsubr
        </CharString>
        <CharString name="Zcaron">
          600 364 775 -92 callsubr
          -92 -275 -33 callsubr
        </CharString>
        <CharString name="Zdotaccent">
          600 196 917 -83 callsubr
          12 -417 -33 callsubr
        </CharString>
        <CharString name="a">
          600 515 354 -93 callsubr
        </CharString>
        <CharString name="a.italic">
          -91 callgsubr
          76 88 32 vhcurveto
          6 hlineto
          -93 48 -69 71 24 19 9 15 15 vhcurveto
          24 23 13 39 41 -34 callsubr
          -15 -14 -12 -6 -18 hhcurveto
          -4 -6 1 1 -3 hvcurveto
          248 vlineto
          119 -39 36 -49 -17 -13 -1 -2 -16 vhcurveto
          -7 -25 -3 -22 -2 -24 rrcurveto
          -6 hlineto
          41 -19 -44 39 -57 hhcurveto
          -49 -402 rmoveto
          -4 20 -2 22 38 vvcurveto
          11 vlineto
          108 36 59 74 30 21 -9 -15 19 vhcurveto
          -86 -79 callgsubr
        </CharString>
        <CharString name="aacute">
          600 331 -104 callsubr
          184 -460 -93 callsubr
        </CharString>
        <CharString name="abreve">
          600 290 -61 callsubr
          225 -387 -93 callsubr
        </CharString>
        <CharString name="acircumflex">
          600 251 -95 callsubr
          228 -458 -93 callsubr
        </CharString>
        <CharString name="acute">
          600 332 812 -102 callsubr
          endchar
        </CharString>
        <CharString name="acutecomb">
          41 812 -102 callsubr
          endchar
        </CharString>
        <CharString name="acutecomb.case">
          39 934 -106 callsubr
          endchar
        </CharString>
        <CharString name="adieresis">
          600 102 -70 callsubr
          193 -415 -93 callsubr
        </CharString>
        <CharString name="adotbelow">
          66 callsubr
          -52 20 43 -50 53 hhcurveto
          20 22 8 23 23 hvcurveto
          22 22 16 46 40 vvcurveto
          11 -1 5 -2 9 vhcurveto
          -6 hlineto
          -12 -13 -16 -4 -13 hhcurveto
          -6 -9 2 3 -4 hvcurveto
          -312 12 rmoveto
          2 vlineto
          18 2 17 4 20 vhcurveto
          6 17 19 3 21 hhcurveto
          26 31 -2 -5 32 hvcurveto
          -53 vlineto
          -33 -32 -39 -13 -33 hhcurveto
          -40 -8 8 32 hvcurveto
          4 -225 -100 callsubr
        </CharString>
        <CharString name="ae">
          600 177 550 51 callsubr
        </CharString>
        <CharString name="aeacute">
          600 340 -104 callsubr
          -163 -264 51 callsubr
        </CharString>
        <CharString name="agrave">
          600 249 -67 callsubr
          266 -460 -93 callsubr
        </CharString>
        <CharString name="amacron">
          600 85 732 -98 callsubr
          93 -378 -93 callsubr
        </CharString>
        <CharString name="ampersand">
          600 192 -9 rmoveto
          77 53 39 60 17 hvcurveto
          6 hlineto
          -84 85 34 -16 51 hhcurveto
          18 16 5 11 11 hvcurveto
          15 15 9 28 42 vvcurveto
          27 -3 24 -6 17 vhcurveto
          -6 hlineto
          -7 -12 -12 -2 -21 hhcurveto
          -30 -35 13 23 -33 hvcurveto
          6 vlineto
          91 26 49 74 45 vvcurveto
          10 vlineto
          51 -47 28 -63 -19 -14 -2 -3 -10 vhcurveto
          -32 vlineto
          -53 -9 -50 -31 -52 vhcurveto
          -41 45 -40 58 -23 52 rrcurveto
          -19 43 -11 42 44 vvcurveto
          7 1 10 2 7 vhcurveto
          11 20 33 7 38 hhcurveto
          62 49 -10 -25 41 hvcurveto
          6 hlineto
          8 17 5 23 25 vvcurveto
          36 -7 24 -23 23 vhcurveto
          26 -26 -42 11 -76 hhcurveto
          -135 -94 -105 -78 hvcurveto
          -6 vlineto
          -51 18 -60 36 -68 vhcurveto
          -2 -5 rlineto
          -71 -10 -58 -53 -100 vvcurveto
          -5 vlineto
          -106 73 -72 95 vhcurveto
          -29 213 rmoveto
          3 vlineto
          35 15 21 18 9 vhcurveto
          30 -45 34 -46 36 -40 rrcurveto
          -14 -18 -20 -4 -29 hhcurveto
          -43 -23 36 45 hvcurveto
          endchar
        </CharString>
        <CharString name="aogonek">
          66 callsubr
          11 -28 18 -28 22 -20 rrcurveto
          -57 -21 -51 -49 -71 -38 callsubr
          4 1 13 4 15 9 15 15 rlinecurve
          72 callsubr
        </CharString>
        <CharString name="approxequal">
          600 417 434 rmoveto
          73 callsubr
          -241 vmoveto
          73 callsubr
          endchar
        </CharString>
        <CharString name="aring">
          600 293 870 -17 callsubr
          222 -433 -93 callsubr
        </CharString>
        <CharString name="aringacute">
          600 349 1021 rmoveto
          -19 -59 -34 -44 -51 -43 rrcurveto
          -56 -17 -38 -49 -64 vvcurveto
          35 callsubr
          44 -18 35 -29 23 vhcurveto
          6 2 5 3 6 3 -15 callsubr
          -56 -222 rmoveto
          12 callsubr
          222 -445 -93 callsubr
        </CharString>
        <CharString name="arrowdown">
          600 336 236 rmoveto
          27 93 13 73 57 vvcurveto
          168 vlineto
          64 -26 17 -66 -20 -23 -3 -5 -27 vhcurveto
          10 -33 2 -34 -33 vvcurveto
          -141 vlineto
          -57 4 -60 16 -66 vhcurveto
          -32 8 17 -17 32 hhcurveto
          14 12 4 5 7 hvcurveto
          -14 -246 rmoveto
          100 61 89 99 59 118 rrcurveto
          17 34 5 23 12 vvcurveto
          33 -27 22 -58 -19 -17 -3 -4 -16 vhcurveto
          -39 -119 -40 -67 -74 -66 rrcurveto
          -6 hlineto
          -74 66 -40 67 -39 119 rrcurveto
          4 -16 -17 3 -19 hhcurveto
          -58 -27 -22 -33 -12 5 -23 17 -34 hvcurveto
          37 -74 41 -67 72 -72 rrcurveto
          -59 59 28 -6 48 hhcurveto
          endchar
        </CharString>
        <CharString name="arrowleft">
          600 20 373 rmoveto
          -9 vlineto
          -48 6 -28 59 -59 vhcurveto
          72 -72 67 -41 74 -37 rrcurveto
          -17 34 23 -5 12 hhcurveto
          33 22 27 58 19 -3 17 -4 16 hvcurveto
          -119 39 -67 40 -66 74 rrcurveto
          6 vlineto
          66 74 67 40 119 39 rrcurveto
          4 16 3 17 19 vvcurveto
          58 -22 27 -33 -12 -23 -5 -17 -34 vhcurveto
          -118 -59 -99 -89 -61 -100 rrcurveto
          246 11 rmoveto
          -5 -7 -4 -12 -14 vvcurveto
          -32 17 -17 32 -8 vhcurveto
          -16 66 60 -4 57 hhcurveto
          83 hlineto
          5 17 3 21 20 vvcurveto
          66 -17 26 -64 vhcurveto
          -10 hlineto
          -57 -73 -13 -27 -93 hvcurveto
          endchar
        </CharString>
        <CharString name="arrowright">
          600 580 325 rmoveto
          9 vlineto
          48 -6 28 -59 59 vhcurveto
          -72 72 -67 41 -74 37 rrcurveto
          17 -34 -23 5 -12 hhcurveto
          -33 -22 -27 -58 -19 3 -17 4 -16 hvcurveto
          119 -39 67 -40 66 -74 rrcurveto
          -6 vlineto
          -66 -74 -67 -40 -119 -39 rrcurveto
          -4 -16 -3 -17 -19 vvcurveto
          -58 22 -27 33 12 23 5 17 34 vhcurveto
          118 59 99 89 61 100 rrcurveto
          -246 -11 rmoveto
          5 7 4 12 14 vvcurveto
          32 -17 17 -32 8 vhcurveto
          16 -66 -60 4 -57 hhcurveto
          -83 hlineto
          -5 -17 -3 -21 -20 vvcurveto
          -66 17 -26 64 vhcurveto
          10 hlineto
          57 73 13 27 93 hvcurveto
          endchar
        </CharString>
        <CharString name="arrowup">
          600 278 69 callsubr
          -23 -246 rmoveto
          -27 -93 -13 -73 -57 vvcurveto
          -168 vlineto
          -64 26 -17 66 20 23 3 5 27 vhcurveto
          -10 33 -2 34 33 vvcurveto
          141 vlineto
          57 -4 60 -16 66 vhcurveto
          32 -8 -17 17 -32 hhcurveto
          -14 -12 -4 -5 -7 hvcurveto
          endchar
        </CharString>
        <CharString name="asciicircum">
          600 265 760 rmoveto
          -73 -54 -88 -118 -46 -109 rrcurveto
          -15 -34 -6 -24 -11 vvcurveto
          -33 44 -22 75 vhcurveto
          20 hlineto
          18 93 37 63 65 88 50 -67 26 -53 27 -79 rrcurveto
          -33 11 29 -9 60 hhcurveto
          25 18 2 8 21 hvcurveto
          -45 154 -62 108 -82 87 rrcurveto
          40 -38 -13 3 -24 hhcurveto
          endchar
        </CharString>
        <CharString name="asciitilde">
          600 419 325 rmoveto
          -87 -80 125 -88 hhcurveto
          -30 -24 -8 -20 -20 hvcurveto
          -31 -31 -12 -61 -36 vvcurveto
          -32 2 -28 7 -18 vhcurveto
          6 hlineto
          43 42 28 16 49 87 80 -125 88 hhcurveto
          30 24 10 19 19 hvcurveto
          34 34 10 55 35 vvcurveto
          35 -2 28 -7 18 vhcurveto
          -6 hlineto
          -43 -42 -28 -16 -49 hhcurveto
          endchar
        </CharString>
        <CharString name="asterisk">
          600 277 578 rmoveto
          -18 -21 -3 -7 -19 hvcurveto
          11 -30 8 -27 6 -33 6 -37 5 -29 11 -32 -6 -4 rcurveline
          -33 32 -35 34 -38 27 -32 23 -33 -14 -27 -44 -9 -15 -5 -17 -5 -15 70 -29 51 -21 59 -21 rrcurveto
          -6 vlineto
          -45 -14 -42 -15 -45 -17 -36 -14 -4 -40 24 -43 9 -16 12 -13 11 -11 56 43 44 33 47 41 rrcurveto
          5 -4 -10 -27 -7 -25 -7 -30 rlinecurve
          -74 -17 30 -43 75 hhcurveto
          19 21 3 7 18 hvcurveto
          -10 30 -10 27 -7 43 -5 31 -4 24 -9 35 6 3 rcurveline
          34 -33 28 -23 43 -34 30 -24 36 14 26 46 7 12 6 13 6 21 -79 33 -47 19 -56 19 rrcurveto
          6 vlineto
          41 12 42 16 51 19 37 14 5 38 -27 46 -7 12 -8 10 -15 17 -79 -59 -37 -29 -34 -33 rrcurveto
          -5 4 11 26 6 23 8 32 rlinecurve
          73 18 -31 44 -75 hhcurveto
          endchar
        </CharString>
        <CharString name="at">
          600 262 39 rmoveto
          22 15 14 45 17 hvcurveto
          9 hlineto
          -36 18 27 -24 35 hhcurveto
          2 hlineto
          91 82 112 195 hvcurveto
          12 vlineto
          222 -123 140 -155 -167 -115 -171 -296 vhcurveto
          -13 vlineto
          -245 88 -149 206 59 44 16 26 26 vhcurveto
          26 26 13 32 37 vvcurveto
          4 vlineto
          -3 2 rlineto
          -41 -32 -69 -14 -62 2 -68 3 -48 15 -48 36 rrcurveto
          -29 65 -12 78 87 vvcurveto
          10 vlineto
          238 86 140 125 48 51 -12 -27 41 vhcurveto
          32 -61 14 -67 -79 vvcurveto
          -13 vlineto
          -118 -20 -80 -54 -54 vhcurveto
          -7 hlineto
          -6 31 -1 22 30 vvcurveto
          246 vlineto
          60 -17 16 -36 vhcurveto
          -6 hlineto
          -9 -22 -8 -21 -6 -20 rrcurveto
          -6 hlineto
          50 -3 -12 22 -25 hhcurveto
          -41 -46 -130 -148 hvcurveto
          -10 vlineto
          -115 24 -77 42 vhcurveto
          endchar
        </CharString>
        <CharString name="atilde">
          600 386 765 -53 callsubr
          129 -411 -93 callsubr
        </CharString>
        <CharString name="b">
          600 188 hmoveto
          7 21 7 26 5 27 rrcurveto
          6 hlineto
          -41 23 55 -45 59 119 callsubr
          -6 187 50 callsubr
          23 -77 75 8 9 0 3 8 vhcurveto
          198 391 126 callsubr
          -30 -28 12 16 -22 vhcurveto
          82 vlineto
          110 42 56 39 73 hhcurveto
          endchar
        </CharString>
        <CharString name="backslash">
          600 38 751 rmoveto
          67 -304 102 -268 138 -233 rrcurveto
          -55 33 40 -26 53 hhcurveto
          33 24 6 16 28 hvcurveto
          -22 23 -18 26 -19 35 -127 225 -94 245 -60 265 rrcurveto
          40 -9 -38 22 -61 hhcurveto
          -25 -19 -5 -12 -26 hvcurveto
          endchar
        </CharString>
        <CharString name="bar">
          600 207 758 rmoveto
          9 -36 4 -37 -40 vvcurveto
          -742 vlineto
          -45 41 -22 82 17 12 1 2 8 vhcurveto
          825 vlineto
          60 -30 41 -76 -25 -19 -2 -5 -23 vhcurveto
          endchar
        </CharString>
        <CharString name="bitcoin">
          600 147 16 rmoveto
          -22 -44 -8 -35 -35 vvcurveto
          -31 19 -12 39 25 16 2 4 16 vhcurveto
          32 4 48 6 47 vhcurveto
          -1 11 11 -1 12 hhcurveto
          8 7 0 1 8 hvcurveto
          -7 vlineto
          -12 -36 -4 -33 -18 vvcurveto
          -26 16 -12 43 21 20 2 4 16 vhcurveto
          35 0 60 5 55 vhcurveto
          75 32 51 63 88 vvcurveto
          24 callsubr
          58 -35 72 -69 43 vhcurveto
          6 vlineto
          18 32 9 37 27 vvcurveto
          34 -23 12 -40 -21 -16 -2 -4 -16 vhcurveto
          -33 0 -37 -2 -37 vhcurveto
          3 -16 -16 1 -18 -2 -3 0 -2 hhcurveto
          6 vlineto
          8 19 4 18 21 vvcurveto
          33 -23 12 -40 -21 -20 -2 -4 -16 vhcurveto
          -35 0 -36 -1 -35 vhcurveto
          -55 -3 -54 -6 -49 -8 rrcurveto
          48 callsubr
          30 callsubr
          10 -10 13 -10 15 -8 rrcurveto
          88 432 -1 callsubr
        </CharString>
        <CharString name="braceleft">
          600 403 175 rmoveto
          58 -32 45 -82 20 vhcurveto
          6 vlineto
          73 20 41 44 56 vvcurveto
          66 -21 52 -18 37 vhcurveto
          -2 4 -2 3 -1 3 rrcurveto
          15 25 31 6 31 hhcurveto
          27 22 -3 -5 16 hvcurveto
          6 hlineto
          4 16 2 23 23 vvcurveto
          57 -36 49 -39 vhcurveto
          -4 hlineto
          -122 -91 -50 -72 hvcurveto
          -8 vlineto
          -46 31 -58 -78 vvcurveto
          -66 -49 -24 -77 vhcurveto
          -19 hlineto
          -7 -17 -2 -18 -23 vvcurveto
          -61 20 -18 45 vhcurveto
          5 hlineto
          49 35 -27 -63 hvcurveto
          -78 -31 -62 -46 vvcurveto
          -7 vlineto
          -71 57 -49 147 vhcurveto
          5 hlineto
          49 31 61 72 14 -1 19 -3 8 hvcurveto
          -6 hlineto
          -10 -29 -23 -3 -29 hhcurveto
          -28 -21 4 11 -23 hvcurveto
          1 3 2 3 1 3 rrcurveto
          19 39 23 56 67 vvcurveto
          endchar
        </CharString>
        <CharString name="braceright">
          600 197 423 rmoveto
          -58 32 -45 82 -20 vhcurveto
          -6 vlineto
          -73 -20 -41 -44 -56 vvcurveto
          -66 21 -52 18 -37 vhcurveto
          2 -4 2 -3 1 -3 rrcurveto
          -15 -25 -31 -6 -31 hhcurveto
          -27 -22 3 5 -16 hvcurveto
          -6 hlineto
          -4 -16 -2 -23 -23 vvcurveto
          -57 36 -49 39 vhcurveto
          4 hlineto
          122 91 50 72 hvcurveto
          8 vlineto
          46 -31 58 78 vvcurveto
          66 49 24 77 vhcurveto
          19 hlineto
          7 17 2 18 23 vvcurveto
          61 -20 18 -45 vhcurveto
          -5 hlineto
          -49 -35 27 63 hvcurveto
          78 31 62 46 vvcurveto
          7 vlineto
          71 -57 49 -147 vhcurveto
          -5 hlineto
          -49 -31 -61 -72 -14 1 -19 3 -8 hvcurveto
          6 hlineto
          10 29 23 3 29 hhcurveto
          28 21 -4 -11 23 hvcurveto
          -1 -3 -2 -3 -1 -3 rrcurveto
          -19 -39 -23 -56 -67 vvcurveto
          endchar
        </CharString>
        <CharString name="bracketleft">
          600 515 -161 rmoveto
          4 15 2 20 23 vvcurveto
          66 -18 26 -44 vhcurveto
          -94 621 148 hlineto
          5 14 2 19 21 vvcurveto
          62 -20 34 -36 vhcurveto
          -205 hlineto
          -25 -19 -2 -5 -23 hvcurveto
          9 -36 4 -37 -40 vvcurveto
          -669 vlineto
          -59 60 -73 48 vhcurveto
          endchar
        </CharString>
        <CharString name="bracketright">
          600 85 760 rmoveto
          -4 -15 -2 -20 -23 vvcurveto
          -66 18 -26 44 vhcurveto
          94 -621 -148 hlineto
          -5 -14 -2 -19 -21 vvcurveto
          -62 20 -34 36 vhcurveto
          205 hlineto
          25 19 2 5 23 hvcurveto
          -9 36 -4 37 40 vvcurveto
          669 vlineto
          59 -60 73 -48 vhcurveto
          endchar
        </CharString>
        <CharString name="breve">
          600 300 739 rmoveto
          81 callsubr
          endchar
        </CharString>
        <CharString name="brevecomb">
          739 vmoveto
          81 callsubr
          endchar
        </CharString>
        <CharString name="brevecomb.case">
          99 955 -71 callsubr
          endchar
        </CharString>
        <CharString name="brokenbar">
          600 207 758 rmoveto
          9 -36 4 -37 -40 vvcurveto
          -212 -80 callgsubr
          25 -4 12 -11 11 vhcurveto
          16 -16 -25 6 -50 hhcurveto
          -25 -19 -2 -5 -23 hvcurveto
          13 -530 rmoveto
          -325 -80 callgsubr
          52 -30 18 -71 -22 -21 -2 -5 -16 vhcurveto
          endchar
        </CharString>
        <CharString name="bullet">
          600 454 156 rmoveto
          213 vlineto
          64 -54 32 -106 -48 -54 -7 -15 -46 vhcurveto
          -213 vlineto
          -64 54 -32 106 48 54 7 15 46 vhcurveto
          endchar
        </CharString>
        <CharString name="c">
          38 callsubr
          -51 callsubr
        </CharString>
        <CharString name="c.italic">
          38 callsubr
          -145 136 -118 139 91 49 16 30 30 vhcurveto
          122 callsubr
          -46 -32 3 14 -33 hvcurveto
          -16 26 -4 30 28 vvcurveto
          8 vlineto
          91 62 65 89 20 17 -2 -4 14 vhcurveto
          2 -23 -2 -26 -7 -34 rrcurveto
          -6 vlineto
          -2 8 9 -1 8 hhcurveto
          66 44 51 57 hvcurveto
          13 vlineto
          25 -8 31 -24 25 vhcurveto
          28 -27 -46 22 -66 hhcurveto
          endchar
        </CharString>
        <CharString name="cacute">
          600 371 -104 callsubr
          -11 -262 -42 callsubr
          -51 callsubr
        </CharString>
        <CharString name="caron">
          600 339 629 3 callsubr
          endchar
        </CharString>
        <CharString name="caroncomb">
          38 629 3 callsubr
          endchar
        </CharString>
        <CharString name="caroncomb.case">
          64 776 -92 callsubr
          endchar
        </CharString>
        <CharString name="ccaron">
          600 368 -66 callsubr
          28 -79 -42 callsubr
          -51 callsubr
        </CharString>
        <CharString name="ccedilla">
          38 callsubr
          -125 109 -107 116 -25 vhcurveto
          -7 -24 -2 -29 -10 -69 callsubr
          -90 callgsubr
          73 3 42 15 27 27 rrcurveto
          122 callsubr
          96 callsubr
        </CharString>
        <CharString name="ccircumflex">
          600 291 -95 callsubr
          33 -260 -42 callsubr
          -51 callsubr
        </CharString>
        <CharString name="cdotaccent">
          600 226 -94 callsubr
          134 -203 -42 callsubr
          -51 callsubr
        </CharString>
        <CharString name="cedi">
          600 237 -99 rmoveto
          -58 24 -17 62 26 20 4 6 17 vhcurveto
          -13 29 -4 25 39 14 0 18 20 vvcurveto
          64 5 43 20 30 30 rrcurveto
          23 23 21 38 55 vvcurveto
          17 -2 21 -5 18 vhcurveto
          -6 hlineto
          -43 -49 -56 -26 -66 -7 1 56 2 56 3 41 1 13 -1 9 -10 7 -14 9 -21 5 -28 3 -13 -50 -15 -73 -13 -73 -23 4 -16 8 -16 11 rrcurveto
          -8 37 -2 58 43 vvcurveto
          13 vlineto
          174 44 69 82 15 vhcurveto
          -1 -48 -2 -46 -2 -35 -1 -13 1 -9 10 -7 14 -9 24 -6 25 -2 13 46 14 63 12 64 44 -7 32 -15 28 -21 rrcurveto
          6 hlineto
          10 19 7 25 38 vvcurveto
          36 -11 29 -22 20 vhcurveto
          -13 11 -22 11 -34 7 rrcurveto
          5 40 3 35 22 vvcurveto
          59 -27 17 -63 -26 -20 -4 -6 -17 vhcurveto
          13 -29 4 -25 -39 -17 0 -22 -25 vvcurveto
          -165 -17 -108 -171 -236 vvcurveto
          -11 vlineto
          -152 65 -105 123 -34 vhcurveto
          -5 -36 -2 -31 -24 vvcurveto
          endchar
        </CharString>
        <CharString name="cedilla">
          600 334 34 rmoveto
          28 callsubr
          -101 callgsubr
        </CharString>
        <CharString name="cedillacomb">
          34 34 rmoveto
          28 callsubr
          -101 callgsubr
        </CharString>
        <CharString name="cedillacomb.case">
          117 -129 rmoveto
          52 -40 32 -52 5 vhcurveto
          6 vlineto
          2 12 4 44 3 12 rrcurveto
          28 callsubr
          vhcurveto
          endchar
        </CharString>
        <CharString name="cent">
          600 308 286 rmoveto
          -6 -35 -7 -38 -6 -37 -39 7 -28 14 -11 14 rrcurveto
          -8 22 -2 21 20 vvcurveto
          8 vlineto
          71 38 55 58 21 vhcurveto
          -61 vlineto
          -31 18 -18 53 vhcurveto
          6 hlineto
          7 37 8 40 7 39 42 -7 31 -18 39 -33 rrcurveto
          -85 callgsubr
          -14 14 -27 13 -38 7 rrcurveto
          71 14 -27 44 -75 hhcurveto
          -15 -26 -4 -6 -17 hvcurveto
          11 -29 6 -28 -43 vvcurveto
          -4 vlineto
          -149 -26 -97 -117 -163 vvcurveto
          -10 vlineto
          -120 97 -93 114 -24 vhcurveto
          -1 -5 -1 -4 -1 -5 rrcurveto
          -73 -13 26 -44 75 hhcurveto
          15 26 4 6 17 hvcurveto
          -11 29 -6 28 43 6 0 6 6 vvcurveto
          64 7 31 16 19 19 rrcurveto
          20 20 17 48 39 vvcurveto
          22 -2 13 -3 15 vhcurveto
          -6 hlineto
          -44 -30 -41 -17 -55 -7 rrcurveto
          21 0 20 20 vvcurveto
          31 -15 18 -59 vhcurveto
          endchar
        </CharString>
        <CharString name="circumflex">
          600 262 810 -29 callsubr
          endchar
        </CharString>
        <CharString name="circumflexcomb">
          -39 810 -29 callsubr
          endchar
        </CharString>
        <CharString name="circumflexcomb.case">
          -63 944 -105 callsubr
          endchar
        </CharString>
        <CharString name="colon">
          600 404 346 105 callsubr
          -346 vmoveto
          -20 callsubr
        </CharString>
        <CharString name="colonmonetary">
          600 161 29 rmoveto
          -27 -48 -11 -39 -31 vvcurveto
          -38 19 -14 39 25 16 2 4 16 vhcurveto
          32 7 47 8 46 vhcurveto
          19 -5 20 -3 21 -1 rrcurveto
          -6 vlineto
          -13 -33 -5 -26 -19 vvcurveto
          -26 10 -12 49 18 17 2 4 16 vhcurveto
          29 3 47 6 47 vhcurveto
          40 9 30 17 22 22 rrcurveto
          2 callsubr
          -6 6 -7 6 -6 5 rrcurveto
          8 vlineto
          23 36 8 36 24 vvcurveto
          27 -21 16 -42 -21 -16 -2 -4 -16 vhcurveto
          -32 -1 -36 -2 -36 vhcurveto
          1 -7 -6 0 -7 hhcurveto
          -15 -15 -1 -3 -15 hvcurveto
          6 vlineto
          12 23 4 19 23 vvcurveto
          30 -23 12 -40 -23 -18 -2 -4 -16 vhcurveto
          -52 -2 -55 -6 -50 vhcurveto
          -90 -70 -54 -135 -167 vvcurveto
          -26 vlineto
          -101 39 -82 66 -50 vhcurveto
          endchar
        </CharString>
        <CharString name="comma">
          600 261 -200 89 callsubr
        </CharString>
        <CharString name="commaaboverightcomb">
          -3 720 -21 callsubr
          endchar
        </CharString>
        <CharString name="commaaboverightcomb.case">
          -59 700 rmoveto
          -91 -4 -57 -13 -69 vhcurveto
          -9 17 14 -3 26 hhcurveto
          24 15 5 13 13 hvcurveto
          36 36 14 67 58 vvcurveto
          40 -36 19 -49 -19 -15 -2 -7 -23 vhcurveto
          endchar
        </CharString>
        <CharString name="commaaccentcomb">
          -50 -76 -107 callsubr
          -81 callsubr
        </CharString>
        <CharString name="commaaccentcomb.case">
          -55 -76 -107 callsubr
          -76 callsubr
        </CharString>
        <CharString name="commaturnedabovecomb">
          8 615 97 callsubr
          endchar
        </CharString>
        <CharString name="commaturnedabovecomb.case">
          107 928 rmoveto
          12 -24 -25 6 -32 hhcurveto
          -20 -10 -3 -13 -13 hvcurveto
          -36 -36 -22 -46 -33 vvcurveto
          -40 25 -16 64 19 15 2 7 23 vhcurveto
          54 11 53 25 53 vhcurveto
          endchar
        </CharString>
        <CharString name="copyright">
          600 300 715 rmoveto
          -182 -105 -116 -230 hvcurveto
          -28 vlineto
          -240 102 -116 185 182 105 117 229 vhcurveto
          28 vlineto
          240 -102 116 -185 vhcurveto
          -61 vmoveto
          39 41 -9 -19 42 hvcurveto
          65 -45 35 -82 -124 vvcurveto
          -51 vlineto
          -199 -79 -79 -143 -38 -39 8 17 -41 vhcurveto
          -67 45 -37 82 127 vvcurveto
          51 vlineto
          199 79 79 143 vhcurveto
          6 -88 rmoveto
          -98 -47 -71 -145 hvcurveto
          -11 vlineto
          -141 49 -64 97 46 35 14 18 14 vhcurveto
          15 18 2 19 23 vvcurveto
          15 -2 19 -5 9 vhcurveto
          -6 hlineto
          -35 -32 -19 -16 -40 hhcurveto
          -19 -16 4 12 -12 hvcurveto
          -13 31 -3 33 47 vvcurveto
          11 vlineto
          90 17 39 39 10 8 -1 -7 17 vhcurveto
          -4 -21 -1 -11 -13 vvcurveto
          -28 13 -7 27 20 11 3 6 14 vhcurveto
          57 vlineto
          23 -9 24 -23 23 vhcurveto
          23 -23 -25 10 -37 hhcurveto
          endchar
        </CharString>
        <CharString name="currency">
          600 125 303 rmoveto
          -8 vlineto
          -28 6 -26 10 -22 vhcurveto
          -14 -5 -14 -8 -14 -12 -12 -11 -11 -13 -10 -12 12 -18 13 -18 14 -14 rrcurveto
          -21 21 18 -8 17 hhcurveto
          16 16 10 20 16 hvcurveto
          8 9 7 9 8 9 rrcurveto
          -7 20 22 -4 23 hhcurveto
          25 22 4 8 21 hvcurveto
          9 -9 9 -10 8 -10 rrcurveto
          -20 16 16 -10 16 hhcurveto
          17 18 9 20 21 hvcurveto
          13 14 14 18 12 18 -9 11 -12 11 -10 9 -15 13 -16 9 -18 5 rrcurveto
          14 25 7 29 33 vvcurveto
          8 vlineto
          25 -4 23 -9 20 vhcurveto
          13 5 13 8 13 11 12 11 11 13 10 12 -12 18 -13 18 -14 14 rrcurveto
          21 -21 -18 8 -17 hhcurveto
          -16 -16 -10 -20 -16 hvcurveto
          -6 -7 -5 -7 -6 -6 rrcurveto
          8 -22 -23 5 -26 hhcurveto
          -27 -25 -5 -9 -22 hvcurveto
          -7 7 -7 7 -6 8 rrcurveto
          20 -16 -16 10 -16 hhcurveto
          -17 -18 -9 -20 -21 hvcurveto
          -13 -14 -14 -18 -12 -18 9 -11 12 -11 10 -9 13 -12 16 -9 16 -5 rrcurveto
          -11 -23 -6 -27 -29 vvcurveto
          104 -14 rmoveto
          5 vlineto
          42 26 36 53 20 15 -3 -6 15 vhcurveto
          9 -15 4 -13 -20 vvcurveto
          -6 vlineto
          -51 -26 -23 -53 -19 -18 3 9 -20 vhcurveto
          -4 11 -2 13 18 vvcurveto
          endchar
        </CharString>
        <CharString name="d">
          600 250 552 rmoveto
          -83 callgsubr
          76 76 74 86 32 vhcurveto
          6 hlineto
          -79 2 30 -76 80 hhcurveto
          20 15 4 4 20 hvcurveto
          -13 41 -4 38 40 vvcurveto
          459 vlineto
          47 callsubr
          -179 -5 vlineto
          41 -20 -49 39 125 callsubr
          26 -8 -16 21 vhcurveto
          -83 vlineto
          -112 -40 -57 -40 -74 hhcurveto
          -4 -4 0 1 -5 hvcurveto
          endchar
        </CharString>
        <CharString name="d.italic">
          -91 callgsubr
          75 89 31 vhcurveto
          7 hlineto
          -94 54 -68 65 23 20 9 19 19 vhcurveto
          19 19 14 39 41 -34 callsubr
          -15 -12 -23 -5 -15 hhcurveto
          -7 437 hlineto
          137 -57 40 -65 -43 callsubr
          -178 -7 vlineto
          41 -18 -39 38 125 callsubr
          19 -8 -15 18 vhcurveto
          -87 -79 callgsubr
        </CharString>
        <CharString name="dagger">
          600 56 350 rmoveto
          169 -5 hlineto
          -335 40 -109 37 -37 vhcurveto
          -18 18 15 -6 23 hhcurveto
          12 12 4 4 8 hvcurveto
          -12 46 -3 35 55 vvcurveto
          366 179 vlineto
          4 21 3 23 19 vvcurveto
          88 callsubr
        </CharString>
        <CharString name="daggerdbl">
          600 56 350 rmoveto
          169 -150 -179 hlineto
          -4 -21 -3 -23 -19 vvcurveto
          -66 36 -21 117 vhcurveto
          33 -141 hlineto
          -48 43 -21 53 25 19 1 6 -4 callsubr
          90 69 vlineto
          85 22 27 72 22 -2 14 -5 15 hvcurveto
          -169 150 179 -86 callsubr
          88 callsubr
        </CharString>
        <CharString name="degree">
          600 302 710 rmoveto
          -103 -74 -73 -104 hvcurveto
          -8 vlineto
          -102 73 -68 98 103 74 73 104 vhcurveto
          8 vlineto
          102 -73 68 -98 vhcurveto
          -11 -257 rmoveto
          -19 -15 3 11 -17 hvcurveto
          -9 16 -5 19 23 vvcurveto
          8 vlineto
          51 28 28 53 15 13 -2 -7 13 vhcurveto
          15 -15 9 -21 -27 vvcurveto
          -8 vlineto
          -51 -28 -28 -53 vhcurveto
          endchar
        </CharString>
        <CharString name="dieresis">
          600 112 767 rmoveto
          -19 callsubr
          220 hmoveto
          -19 callsubr
          endchar
        </CharString>
        <CharString name="dieresiscomb">
          -188 767 rmoveto
          -19 callsubr
          220 hmoveto
          -19 callsubr
          endchar
        </CharString>
        <CharString name="dieresiscomb.case">
          -188 934 rmoveto
          -45 callsubr
          -5 callsubr
          endchar
        </CharString>
        <CharString name="divide">
          600 216 575 109 callsubr
          -159 -200 rmoveto
          -5 -25 -2 -19 -19 vvcurveto
          -67 17 -20 56 vhcurveto
          424 -86 callsubr
          66 -17 21 -56 vhcurveto
          -265 -205 109 callsubr
          endchar
        </CharString>
        <CharString name="divisionslash">
          600 74 callsubr
        </CharString>
        <CharString name="dollar">
          600 268 234 rmoveto
          -26 -100 -76 9 -57 29 -46 46 rlinecurve
          33 callsubr
          21 -21 43 -17 53 -10 -17 -66 rcurveline
          -73 -19 32 -44 75 hhcurveto
          18 23 4 6 17 hvcurveto
          -11 29 -7 28 1 43 2 65 rcurveline
          161 7 81 88 107 vvcurveto
          16 vlineto
          72 -35 62 -132 48 vhcurveto
          -94 34 rlineto
          -65 24 -24 21 32 vvcurveto
          4 vlineto
          39 48 21 54 10 vhcurveto
          -1 -26 -1 -25 -1 -25 rrcurveto
          -13 4 -11 9 -9 vhcurveto
          -10 10 16 -6 18 hhcurveto
          11 43 11 43 11 43 48 -2 33 -12 28 -23 rrcurveto
          6 hlineto
          14 28 7 29 23 vvcurveto
          27 -2 23 -23 23 vhcurveto
          -13 13 -26 11 -36 6 5 18 4 17 5 18 rrcurveto
          73 18 -31 44 -75 hhcurveto
          -17 -24 -4 -6 -17 hvcurveto
          11 -29 8 -28 -2 -43 rrcurveto
          -1 -19 -1 -20 -19 vvcurveto
          -143 -17 -105 -88 -115 vvcurveto
          -13 vlineto
          -63 26 -71 156 -58 vhcurveto
          92 -34 rlineto
          53 -19 32 -28 -36 vvcurveto
          -5 vlineto
          -27 -20 -38 -15 -41 -4 2 54 rcurveline
          13 -4 11 -9 9 vhcurveto
          11 -11 -15 5 -18 hhcurveto
          endchar
        </CharString>
        <CharString name="dong">
          600 547 151 rmoveto
          -10 35 -2 24 40 vvcurveto
          340 49 vlineto
          5 17 3 15 24 vvcurveto
          30 -17 14 -43 vhcurveto
          52 -8 -23 14 -52 hhcurveto
          -35 -23 -2 -4 -20 hvcurveto
          6 -20 4 -20 2 -20 rrcurveto
          -146 hlineto
          -2 -10 -1 -13 -17 vvcurveto
          -45 18 -15 57 vhcurveto
          76 -98 -6 hlineto
          48 -26 -42 20 -67 hhcurveto
          -104 -100 -90 -155 hvcurveto
          -14 vlineto
          -101 69 -62 82 73 73 42 90 42 vhcurveto
          6 -5 hlineto
          -81 26 -41 71 27 20 3 5 18 vhcurveto
          -349 136 rmoveto
          -2 11 -1 12 11 vvcurveto
          6 vlineto
          62 48 54 73 30 22 -4 -7 17 vhcurveto
          -17 vlineto
          -87 -23 -59 -44 -65 hhcurveto
          -18 -12 1 2 -10 hvcurveto
          -157 -177 rmoveto
          -2 -10 -1 -13 -17 vvcurveto
          -52 18 -18 57 vhcurveto
          441 hlineto
          5 17 3 15 24 vvcurveto
          40 -17 14 -43 vhcurveto
          endchar
        </CharString>
        <CharString name="dotaccent">
          600 196 753 -83 callsubr
          endchar
        </CharString>
        <CharString name="dotaccentcomb">
          -104 753 -83 callsubr
          endchar
        </CharString>
        <CharString name="dotaccentcomb.case">
          -104 918 -83 callsubr
          endchar
        </CharString>
        <CharString name="dotbelowcomb">
          -94 -76 -100 callsubr
        </CharString>
        <CharString name="dotbelowcomb.case">
          -94 -76 -100 callsubr
        </CharString>
        <CharString name="dotlessi">
          -8 callsubr
          289 -58 callsubr
          110 callsubr
        </CharString>
        <CharString name="dotlessi.italic">
          600 37 510 rmoveto
          -4 -16 -4 -25 -23 vvcurveto
          -74 19 -35 28 67 callsubr
        </CharString>
        <CharString name="dotlessi.mono">
          600 240 116 -85 callsubr
        </CharString>
        <CharString name="dotlessj">
          600 300 550 -2 callsubr
        </CharString>
        <CharString name="dotlessj.italic">
          600 125 510 60 callsubr
        </CharString>
        <CharString name="e">
          600 324 556 -90 callsubr
        </CharString>
        <CharString name="e.italic">
          600 339 556 rmoveto
          -176 29 callsubr
          164 73 70 17 25 25 vhcurveto
          20 20 11 41 49 -6 callsubr
          -32 -55 -63 -18 -63 hhcurveto
          -58 -38 5 14 -33 hvcurveto
          -8 22 -2 29 37 vvcurveto
          3 vlineto
          3 0 3 3 vvcurveto
          4 2 rlineto
          -13 24 38 -9 64 hhcurveto
          157 63 47 92 hvcurveto
          3 vlineto
          104 -82 87 -129 vhcurveto
          6 -137 rmoveto
          21 17 -2 -3 16 hvcurveto
          2 -12 1 -15 -21 vvcurveto
          -38 -39 -20 -68 -38 -28 2 2 -20 vhcurveto
          72 20 50 35 66 hhcurveto
          endchar
        </CharString>
        <CharString name="eacute">
          600 361 -104 callsubr
          -37 -258 -90 callsubr
        </CharString>
        <CharString name="ebreve">
          600 320 -61 callsubr
          4 -185 -90 callsubr
        </CharString>
        <CharString name="ecaron">
          600 358 -66 callsubr
          2 -75 -90 callsubr
        </CharString>
        <CharString name="ecircumflex">
          600 281 -95 callsubr
          7 -256 -90 callsubr
        </CharString>
        <CharString name="edieresis">
          600 132 -70 callsubr
          -28 -213 -90 callsubr
        </CharString>
        <CharString name="edotaccent">
          600 216 -94 callsubr
          108 -199 -90 callsubr
        </CharString>
        <CharString name="edotbelow">
          600 324 556 rmoveto
          -161 29 callsubr
          171 63 62 11 32 32 vhcurveto
          23 23 12 27 46 -6 callsubr
          65 callsubr
          -130 -495 -100 callsubr
        </CharString>
        <CharString name="egrave">
          600 279 -67 callsubr
          45 -258 -90 callsubr
        </CharString>
        <CharString name="eight">
          600 305 720 rmoveto
          -148 -92 -101 -104 hvcurveto
          -3 vlineto
          -60 27 -76 107 -56 vhcurveto
          -6 vlineto
          -107 -12 -42 -69 -64 vvcurveto
          -7 vlineto
          -107 94 -75 146 162 98 83 105 vhcurveto
          6 vlineto
          39 -21 92 -132 48 vhcurveto
          6 vlineto
          93 17 49 61 74 vvcurveto
          5 vlineto
          123 -112 81 -122 vhcurveto
          -6 -332 rmoveto
          -72 26 -27 31 50 vvcurveto
          55 51 30 56 38 32 -8 -7 14 vhcurveto
          5 -12 4 -18 -20 vvcurveto
          -4 vlineto
          -48 -24 -39 -65 -40 vhcurveto
          -127 -230 rmoveto
          39 31 46 71 45 vhcurveto
          58 -21 rlineto
          63 -23 13 -35 -47 vvcurveto
          -25 -30 -47 -13 -49 hhcurveto
          -50 -44 14 20 -16 hvcurveto
          endchar
        </CharString>
        <CharString name="eightinferior">
          600 302 343 -60 callsubr
          -3 -158 -62 callsubr
        </CharString>
        <CharString name="eightsuperior">
          600 302 742 -60 callsubr
          -3 -158 -62 callsubr
        </CharString>
        <CharString name="ellipsis">
          600 168 -5 rmoveto
          129 vlineto
          63 -39 9 -45 106 callsubr
          -41 9 -43 106 callsubr
          -40 9 -43 -17 -22 -3 -3 -19 vhcurveto
          -129 vlineto
          -63 40 -9 43 17 22 3 3 19 vhcurveto
          endchar
        </CharString>
        <CharString name="emacron">
          600 115 732 -98 callsubr
          -128 -176 -90 callsubr
        </CharString>
        <CharString name="emdash">
          600 -10 374 rmoveto
          -7 -28 -3 -23 -36 vvcurveto
          -50 4 -13 16 vhcurveto
          612 hlineto
          4 21 4 29 29 vvcurveto
          50 -5 21 -15 vhcurveto
          endchar
        </CharString>
        <CharString name="endash">
          600 47 374 rmoveto
          -19 vlineto
          -108 33 -23 74 vhcurveto
          391 44 callsubr
        </CharString>
        <CharString name="equal">
          600 50 500 115 callsubr
          -250 114 callsubr
        </CharString>
        <CharString name="equivalence">
          600 57 616 rmoveto
          -4 -21 -3 -23 -19 vvcurveto
          -67 17 -20 56 vhcurveto
          439 19 hlineto
          108 -19 23 -88 vhcurveto
          -405 -240 115 callsubr
          -240 114 callsubr
        </CharString>
        <CharString name="estimated">
          600 300 -12 rmoveto
          90 78 52 80 54 hvcurveto
          -38 hlineto
          -68 -46 -66 -44 -70 hhcurveto
          -54 -50 22 38 -34 hvcurveto
          -4 6 -4 6 8 vvcurveto
          224 vlineto
          2 2 2 2 vhcurveto
          414 8 hlineto
          186 -123 150 -151 -151 -123 -150 -186 -186 123 -150 151 vhcurveto
          -140 346 rmoveto
          -2 -2 2 4 hvcurveto
          220 vlineto
          7 4 9 4 6 vhcurveto
          36 34 50 22 54 hhcurveto
          50 50 -20 -34 34 hvcurveto
          6 -6 4 -8 -8 vvcurveto
          -224 vlineto
          -4 -2 -2 -4 vhcurveto
          endchar
        </CharString>
        <CharString name="etilde">
          600 416 765 -53 callsubr
          -92 -209 -90 callsubr
        </CharString>
        <CharString name="exclam">
          600 360 290 rmoveto
          16 65 14 108 66 vvcurveto
          112 vlineto
          48 -56 21 -70 -25 -19 -1 -6 -23 vhcurveto
          9 -36 4 -37 -40 vvcurveto
          -55 vlineto
          -79 13 -113 22 -22 vhcurveto
          -19 19 33 -12 48 hhcurveto
          59 -290 rmoveto
          -20 callsubr
        </CharString>
        <CharString name="exclamdown">
          600 196 535 rmoveto
          -111 vlineto
          -81 64 -14 47 37 32 8 16 28 vhcurveto
          111 vlineto
          72 -64 10 -56 -26 -34 -3 -8 -28 vhcurveto
          44 -290 rmoveto
          -16 -65 -14 -108 -66 vvcurveto
          -112 vlineto
          -48 56 -21 70 25 19 1 6 -4 callsubr
          55 vlineto
          79 -13 113 -22 22 vhcurveto
          19 -19 -33 12 -48 hhcurveto
          endchar
        </CharString>
        <CharString name="f">
          600 50 150 rmoveto
          -19 vlineto
          -104 19 -27 88 vhcurveto
          358 hlineto
          5 14 2 13 16 vvcurveto
          63 -56 44 -151 vhcurveto
          -19 hlineto
          -2 4 rlineto
          27 26 14 42 59 vvcurveto
          79 210 vlineto
          -65 callsubr
          124 callsubr
          64 -12 -13 28 hvcurveto
          6 hlineto
          5 17 0 102 callsubr
          -82 33 -36 111 -10 vhcurveto
          -213 vlineto
          endchar
        </CharString>
        <CharString name="f.italic">
          600 36 440 rmoveto
          -19 vlineto
          -81 32 -36 107 -10 vhcurveto
          -386 -105 callgsubr
          397 210 vlineto
          -65 callsubr
          -24 21 -79 vhcurveto
          -114 hlineto
          142 -2 14 24 24 vhcurveto
          11 11 16 4 16 hhcurveto
          17 16 -1 -4 15 hvcurveto
          2 -23 -2 -27 -7 -36 rrcurveto
          -6 vlineto
          -2 8 9 -1 8 hhcurveto
          64 42 51 57 hvcurveto
          13 vlineto
          27 -9 26 -22 20 vhcurveto
          25 -26 -43 16 -69 hhcurveto
          -139 -89 -84 -134 hvcurveto
          -112 vlineto
          endchar
        </CharString>
        <CharString name="f.mono">
          600 335 85 rmoveto
          275 210 vlineto
          -65 callsubr
          124 callsubr
          62 -12 -13 28 hvcurveto
          6 hlineto
          5 17 2 102 callsubr
          -91 28 -34 116 -5 vhcurveto
          -253 vlineto
          -40 -9 -38 -11 -30 vhcurveto
          -5 13 17 -5 31 hhcurveto
          72 37 26 69 hvcurveto
          endchar
        </CharString>
        <CharString name="five">
          600 92 700 rmoveto
          -4 -13 -3 -23 -26 vvcurveto
          -61 13 -20 36 -5 vhcurveto
          -11 -39 -13 -63 -20 -130 rrcurveto
          -25 -4 20 -15 64 hhcurveto
          126 hlineto
          75 47 -22 -40 23 hvcurveto
          -5 vlineto
          -48 -58 -35 -104 -89 -66 22 42 -63 vhcurveto
          -6 hlineto
          -3 -11 -2 -19 -22 vvcurveto
          -43 11 -37 26 -26 vhcurveto
          -32 32 69 -24 112 hhcurveto
          170 80 88 118 hvcurveto
          15 vlineto
          120 -83 73 -112 -41 -31 -6 -15 -35 vhcurveto
          -6 hlineto
          4 32 4 32 6 32 5 30 -3 23 -17 23 1 5 rcurveline
          283 hlineto
          3 14 4 29 20 vvcurveto
          55 -25 32 -68 vhcurveto
          endchar
        </CharString>
        <CharString name="fiveeighths">
          600 316 484 rmoveto
          9 callsubr
          -198 hlineto
          1 callsubr
          35 -73 -84 callsubr
          81 -68 -60 callsubr
          -183 -54 -48 callsubr
          180 -104 -62 callsubr
        </CharString>
        <CharString name="fiveinferior">
          600 166 337 rmoveto
          1 callsubr
          9 callsubr
          endchar
        </CharString>
        <CharString name="fivesuperior">
          600 436 484 rmoveto
          9 callsubr
          -198 hlineto
          1 callsubr
          endchar
        </CharString>
        <CharString name="florin">
          600 122 -100 rmoveto
          -37 -28 8 18 -33 hvcurveto
          -6 hlineto
          -5 -15 -3 -23 -27 vvcurveto
          -34 5 -29 14 -17 vhcurveto
          -18 14 35 -13 55 hhcurveto
          129 64 49 195 19 hvcurveto
          9 100 12 129 8 97 rrcurveto
          171 hlineto
          -65 callsubr
          -32 21 -72 vhcurveto
          -64 hlineto
          -2 47 -4 62 -4 40 rrcurveto
          8 20 34 4 41 120 callsubr
          17 -18 -30 12 -60 hhcurveto
          -115 -84 -79 -123 -9 hvcurveto
          -2 -25 -3 -34 -3 -39 rrcurveto
          -131 hlineto
          -3 -11 -2 -18 -15 vvcurveto
          -67 27 -32 98 -6 vhcurveto
          -10 -133 -12 -154 -9 -123 rrcurveto
          -8 -18 -16 -3 -29 hhcurveto
          endchar
        </CharString>
        <CharString name="four">
          600 400 420 rmoveto
          -16 -33 -17 -44 -11 -43 rrcurveto
          -26 hlineto
          -68 -44 -5 -22 -41 hvcurveto
          6 vlineto
          98 165 138 139 137 78 rrcurveto
          6 vlineto
          26 -24 -53 17 -73 hhcurveto
          -47 -30 -13 -51 -51 hvcurveto
          -116 -116 -116 -164 -86 vvcurveto
          -15 vlineto
          -74 27 -41 50 vhcurveto
          223 -86 hlineto
          -38 28 -34 91 19 18 3 5 14 vhcurveto
          -8 28 -2 31 35 vvcurveto
          56 65 vlineto
          4 15 2 18 20 vvcurveto
          56 -13 41 -45 vhcurveto
          -13 55 hlineto
          39 -39 26 -55 vhcurveto
          endchar
        </CharString>
        <CharString name="fourinferior">
          600 403 -30 -31 callsubr
          endchar
        </CharString>
        <CharString name="foursuperior">
          600 403 369 -31 callsubr
          endchar
        </CharString>
        <CharString name="fraction">
          86 callsubr
          -90 -122 98 callsubr
          endchar
        </CharString>
        <CharString name="g">
          600 302 552 rmoveto
          -136 -105 -76 -122 hvcurveto
          -10 vlineto
          -84 60 -65 90 -24 vhcurveto
          -7 vlineto
          -50 -18 -24 -38 -45 vvcurveto
          -21 6 -19 11 -16 vhcurveto
          -7 vlineto
          -77 -5 -47 -43 -58 vvcurveto
          -8 vlineto
          -82 74 -54 141 vhcurveto
          9 hlineto
          203 118 67 116 hvcurveto
          12 vlineto
          76 -56 42 -72 5 vhcurveto
          -138 10 rlineto
          -21 2 -13 14 19 vvcurveto
          19 2 14 5 14 vhcurveto
          6 7 0 6 hhcurveto
          136 105 72 116 hvcurveto
          10 vlineto
          57 -25 48 -41 34 vhcurveto
          7 vlineto
          27 14 rlineto
          52 27 13 25 30 vvcurveto
          5 vlineto
          54 -44 16 -65 -13 -13 -1 -2 -13 vhcurveto
          4 -13 1 -13 -15 vvcurveto
          -21 -1 -12 -4 -17 vhcurveto
          -10 -46 -32 11 -37 7 -39 -1 rlinecurve
          10 -130 rmoveto
          37 29 -5 -9 26 hvcurveto
          5 -13 3 -15 -16 vvcurveto
          -8 vlineto
          -59 -37 -27 -74 -37 -29 6 11 -26 vhcurveto
          -5 13 -3 13 15 vvcurveto
          8 vlineto
          59 37 27 74 vhcurveto
          -49 -572 83 callsubr
        </CharString>
        <CharString name="g.italic">
          600 255 552 rmoveto
          -99 -111 -85 -209 hvcurveto
          -22 vlineto
          -112 77 -96 78 75 80 68 75 32 vhcurveto
          6 -123 hlineto
          -34 -1 -28 -4 -27 vhcurveto
          -13 -32 -39 -6 -45 hhcurveto
          -66 -52 9 20 -54 hvcurveto
          -6 hlineto
          -3 -12 -1 -12 -14 vvcurveto
          -42 11 -43 21 -21 vhcurveto
          -18 18 36 -17 88 hhcurveto
          150 126 99 145 hvcurveto
          357 vlineto
          119 -39 36 -49 -17 -13 -1 -2 -16 vhcurveto
          -7 -26 -3 -22 -2 -26 rrcurveto
          -6 hlineto
          41 -20 -50 42 -63 hhcurveto
          -48 -365 rmoveto
          -5 21 -2 22 40 vvcurveto
          11 vlineto
          83 36 44 74 34 27 -9 -16 22 vhcurveto
          -106 vlineto
          -62 -42 -55 -31 -68 hhcurveto
          -7 -7 1 2 -7 hvcurveto
          endchar
        </CharString>
        <CharString name="g.mono">
          600 137 63 -64 callsubr
        </CharString>
        <CharString name="gbreve">
          600 324 -61 callsubr
          -187 -678 -64 callsubr
        </CharString>
        <CharString name="gcaron">
          600 362 -66 callsubr
          -189 -568 -64 callsubr
        </CharString>
        <CharString name="gcircumflex">
          600 285 -95 callsubr
          -184 -749 -64 callsubr
        </CharString>
        <CharString name="gcommaaccent">
          600 332 617 97 callsubr
          -195 -554 -64 callsubr
        </CharString>
        <CharString name="gdotaccent">
          600 220 -94 callsubr
          -83 -692 -64 callsubr
        </CharString>
        <CharString name="germandbls">
          600 311 770 rmoveto
          -160 -87 -87 -145 hvcurveto
          -432 -105 callgsubr
          419 vlineto
          51 2 26 9 31 vhcurveto
          10 21 36 7 29 hhcurveto
          30 30 -9 -16 21 hvcurveto
          1 -19 -10 -19 -26 -29 -30 -32 rcurveline
          -32 -35 -17 -36 -33 vvcurveto
          -7 vlineto
          -45 22 -37 48 -35 vhcurveto
          29 -21 rlineto
          49 -35 13 -17 -29 vvcurveto
          -11 -1 -10 -3 -9 vhcurveto
          -7 -10 -16 -4 -23 hhcurveto
          -41 -26 6 15 -26 hvcurveto
          -6 hlineto
          -4 -14 -3 -19 117 callsubr
          69 -25 45 -66 51 vhcurveto
          -26 20 rlineto
          -18 14 -13 9 17 vvcurveto
          13 15 19 34 36 vhcurveto
          21 22 rlineto
          30 32 22 33 55 vvcurveto
          13 vlineto
          76 -78 80 -162 vhcurveto
          endchar
        </CharString>
        <CharString name="grave">
          600 332 763 rmoveto
          -48 1 -38 -3 -25 -5 rrcurveto
          -31 -6 -14 -15 -30 vvcurveto
          -65 64 -119 53 -46 vhcurveto
          -25 29 16 -7 38 hhcurveto
          27 27 9 16 16 hvcurveto
          -53 84 -45 96 -16 115 rrcurveto
          endchar
        </CharString>
        <CharString name="gravecomb">
          -41 812 90 callsubr
          endchar
        </CharString>
        <CharString name="gravecomb.case">
          -39 934 -24 callsubr
          endchar
        </CharString>
        <CharString name="greater">
          600 532 277 rmoveto
          27 vlineto
          28 -4 16 -43 41 vhcurveto
          -93 88 -122 82 -192 47 rrcurveto
          -5 -15 -2 -16 -24 vvcurveto
          -55 12 -40 27 -9 vhcurveto
          102 -33 73 -37 80 -67 rrcurveto
          -6 vlineto
          -80 -82 -83 -49 -135 -29 rrcurveto
          -23 vlineto
          -43 26 -64 39 13 28 7 17 40 vhcurveto
          128 54 128 99 63 86 rrcurveto
          endchar
        </CharString>
        <CharString name="greaterequal">
          600 540 357 rmoveto
          41 vlineto
          28 -8 23 -43 21 vhcurveto
          -92 42 -144 36 -181 17 rrcurveto
          -5 -15 -2 -29 -24 vvcurveto
          -40 19 -18 25 -1 vhcurveto
          133 -12 50 -7 78 -24 rrcurveto
          -6 vlineto
          -79 -32 -61 -13 -163 -24 rrcurveto
          -23 vlineto
          -57 26 -39 35 22 28 5 12 43 vhcurveto
          137 37 107 45 75 57 rrcurveto
          -482 -192 121 callsubr
        </CharString>
        <CharString name="guarani">
          600 200 -110 rmoveto
          -44 27 -21 46 38 29 5 5 20 vhcurveto
          -6 30 -2 27 31 vvcurveto
          18 0 19 1 21 vhcurveto
          70 3 47 23 30 30 rrcurveto
          19 callsubr
          -185 hlineto
          -73 callsubr
          -19 19 -19 14 -23 10 rrcurveto
          13 28 8 27 25 vvcurveto
          46 -25 21 -51 -35 -24 -5 -8 -23 vhcurveto
          5 -30 2 -25 -34 vvcurveto
          -14 0 -14 -1 -14 vhcurveto
          -138 -38 -92 -163 -216 vvcurveto
          -26 vlineto
          -136 71 -102 113 -36 vhcurveto
          -25 -42 -11 -33 -29 vvcurveto
          endchar
        </CharString>
        <CharString name="guillemotleft">
          600 335 97 26 callsubr
          84 callsubr
          230 6 26 callsubr
          84 callsubr
          endchar
        </CharString>
        <CharString name="guillemotright">
          600 265 503 25 callsubr
          17 11 callsubr
          -15 -4 -9 -27 hvcurveto
          -230 -6 25 callsubr
          17 11 callsubr
          -15 -4 -9 -27 hvcurveto
          endchar
        </CharString>
        <CharString name="guilsinglleft">
          600 475 97 26 callsubr
          -57 4 -34 hhcurveto
          -39 -19 -5 -14 -20 hvcurveto
          -64 -48 -42 -51 -46 -79 rrcurveto
          -24 vlineto
          -25 6 -20 23 -35 vhcurveto
          48 -70 38 -35 31 -18 rrcurveto
          -15 24 19 -5 43 hhcurveto
          37 55 4 9 27 hvcurveto
          endchar
        </CharString>
        <CharString name="guilsinglright">
          600 125 502 25 callsubr
          57 11 callsubr
          -55 -4 -9 -27 hvcurveto
          endchar
        </CharString>
        <CharString name="h">
          600 173 -3 rmoveto
          15 9 0 3 18 hvcurveto
          206 vlineto
          140 47 51 -27 callsubr
          -106 callgsubr
        </CharString>
        <CharString name="h.italic">
          600 410 552 rmoveto
          -80 -76 -75 -98 -35 hvcurveto
          -5 200 hlineto
          137 -51 40 -72 -43 callsubr
          -562 vlineto
          -55 24 -37 82 15 9 0 3 18 76 callsubr
          vhcurveto
          endchar
        </CharString>
        <CharString name="hcircumflex">
          600 99 991 -29 callsubr
          38 -994 rmoveto
          15 9 0 3 18 hvcurveto
          206 vlineto
          140 47 51 -27 callsubr
          -106 callgsubr
        </CharString>
        <CharString name="hryvnia">
          600 35 477 rmoveto
          -2 -13 -1 -11 -15 vvcurveto
          -47 23 -28 105 vhcurveto
          400 hlineto
          5 12 2 13 24 vvcurveto
          45 -23 20 -71 vhcurveto
          -55 6 hlineto
          55 19 18 34 47 vvcurveto
          10 vlineto
          76 -63 51 -159 -75 -52 -14 -31 -31 vhcurveto
          -26 -26 -3 -31 -29 vvcurveto
          -26 5 -19 5 -16 vhcurveto
          6 hlineto
          33 35 42 15 74 hhcurveto
          62 30 -13 -31 -21 -10 -18 -27 -16 hvcurveto
          -143 -272 rmoveto
          -52 -25 -16 -37 -38 vvcurveto
          -8 vlineto
          -72 65 -45 150 94 44 15 20 25 vhcurveto
          23 19 12 24 37 vvcurveto
          25 -3 21 -7 21 vhcurveto
          -6 hlineto
          -31 -37 -39 -11 -67 hhcurveto
          -78 -23 15 25 20 11 15 38 16 hvcurveto
          264 hlineto
          5 12 2 13 24 vvcurveto
          45 -23 20 -71 vhcurveto
          -438 hlineto
          -2 -13 -1 -11 -15 vvcurveto
          -47 23 -28 105 vhcurveto
          2 hlineto
          endchar
        </CharString>
        <CharString name="hungarumlaut">
          600 461 813 -102 callsubr
          -230 -1 -102 callsubr
          endchar
        </CharString>
        <CharString name="hungarumlautcomb">
          141 813 -102 callsubr
          -230 -1 -102 callsubr
          endchar
        </CharString>
        <CharString name="hungarumlautcomb.case">
          -111 934 -106 callsubr
          250 hmoveto
          -46 callsubr
          endchar
        </CharString>
        <CharString name="hyphen">
          600 100 374 rmoveto
          -19 vlineto
          -115 13 -16 94 vhcurveto
          298 -86 callsubr
          68 -16 19 -57 vhcurveto
          endchar
        </CharString>
        <CharString name="i">
          600 196 -94 callsubr
          -128 -605 16 callsubr
          289 -58 callsubr
          110 callsubr
        </CharString>
        <CharString name="i.italic">
          600 200 -94 callsubr
          -163 -245 rmoveto
          -4 -16 -4 -25 -23 vvcurveto
          -74 19 -35 28 67 callsubr
        </CharString>
        <CharString name="i.mono">
          600 206 -94 callsubr
          34 -639 -85 callsubr
        </CharString>
        <CharString name="iacute">
          600 341 -104 callsubr
          -101 -698 -85 callsubr
        </CharString>
        <CharString name="ibreve">
          600 300 -61 callsubr
          -60 -625 -85 callsubr
        </CharString>
        <CharString name="icircumflex">
          600 261 -95 callsubr
          -57 -696 -85 callsubr
        </CharString>
        <CharString name="idieresis">
          600 112 -70 callsubr
          -92 -653 -85 callsubr
        </CharString>
        <CharString name="idotbelow">
          600 196 -94 callsubr
          44 -639 rmoveto
          -94 27 -3 callsubr
          93 callsubr
          -34 -491 -100 callsubr
        </CharString>
        <CharString name="igrave">
          600 259 -67 callsubr
          -19 -698 -85 callsubr
        </CharString>
        <CharString name="imacron">
          600 95 732 -98 callsubr
          -192 -616 -85 callsubr
        </CharString>
        <CharString name="increment">
          600 269 710 rmoveto
          -30 hlineto
          -113 -95 -74 -267 -281 vvcurveto
          -49 49 -18 74 vhcurveto
          375 hlineto
          -10 256 -24 179 -54 128 -21 49 -26 40 -31 31 rrcurveto
          14 -14 -46 13 -55 hhcurveto
          -50 -570 rmoveto
          16 227 13 102 56 85 52 -88 10 -102 15 -234 rrcurveto
          7 -27 -27 3 -27 hhcurveto
          endchar
        </CharString>
        <CharString name="infinity">
          600 428 513 rmoveto
          -49 -33 -32 -76 -31 hvcurveto
          -5 hlineto
          91 -40 -40 17 -51 hhcurveto
          -3 hlineto
          -74 -72 -83 -133 -128 51 -83 81 hvcurveto
          4 hlineto
          50 39 36 74 29 hvcurveto
          5 hlineto
          -69 30 47 -41 51 hhcurveto
          6 hlineto
          86 61 94 130 120 -57 83 -80 hvcurveto
          4 -306 rmoveto
          -38 -20 10 49 -18 hvcurveto
          -16 44 rlineto
          57 30 29 27 28 hhcurveto
          1 hlineto
          15 -20 8 -27 -37 vvcurveto
          -43 -6 -35 -12 -25 vhcurveto
          -282 2 rmoveto
          -10 24 -3 28 34 vvcurveto
          47 18 52 34 vhcurveto
          1 hlineto
          20 6 -10 -82 29 hvcurveto
          3 -9 rlineto
          -70 -30 -17 -17 -29 hhcurveto
          -8 -7 1 2 -7 hvcurveto
          endchar
        </CharString>
        <CharString name="integral">
          600 426 770 rmoveto
          -118 -88 -90 -122 hvcurveto
          -609 vlineto
          -17 -2 -16 -5 -20 vhcurveto
          -5 -17 -20 -2 -30 hhcurveto
          -38 -32 10 16 -23 hvcurveto
          -6 hlineto
          -7 -17 -3 -20 -29 vvcurveto
          -29 8 -24 19 -17 vhcurveto
          -19 20 39 -10 51 hhcurveto
          118 88 90 122 hvcurveto
          609 vlineto
          20 2 15 5 18 vhcurveto
          5 20 18 2 29 120 callsubr
          19 -20 -37 10 -53 hhcurveto
          endchar
        </CharString>
        <CharString name="iogonek">
          600 196 -94 callsubr
          44 -639 rmoveto
          -65 13 -33 35 -15 vhcurveto
          -48 -24 -39 -46 -62 -38 callsubr
          11 3 4 4 3 5 rrcurveto
          93 callsubr
          endchar
        </CharString>
        <CharString name="itilde">
          -41 callsubr
          -156 -649 -85 callsubr
        </CharString>
        <CharString name="j">
          600 272 -94 callsubr
          28 -205 -2 callsubr
        </CharString>
        <CharString name="j.italic">
          600 316 -94 callsubr
          -191 -245 60 callsubr
        </CharString>
        <CharString name="jcircumflex">
          600 311 -95 callsubr
          -47 -262 -2 callsubr
        </CharString>
        <CharString name="k">
          61 callsubr
          endchar
        </CharString>
        <CharString name="k.italic">
          600 387 549 rmoveto
          -69 -64 -76 -92 -33 hvcurveto
          -6 198 50 callsubr
          -7 callsubr
          201 vlineto
          163 48 60 45 51 hhcurveto
          8 6 -2 -4 8 hvcurveto
          3 -6 2 -11 -7 vvcurveto
          -4 vlineto
          -75 -54 -71 -64 vhcurveto
          -6 hlineto
          -2 -18 0 -10 3 -12 3 -13 4 -14 7 -18 13 -37 24 -40 29 -29 rrcurveto
          -29 29 35 -19 37 hhcurveto
          43 32 21 31 22 hvcurveto
          21 29 12 39 40 vvcurveto
          14 -1 13 -2 10 vhcurveto
          -6 hlineto
          -34 -42 -44 -22 -41 hhcurveto
          -14 -13 4 7 -10 hvcurveto
          -9 6 -14 11 -8 10 2 4 rcurveline
          11 hlineto
          92 63 89 121 hvcurveto
          7 vlineto
          67 -89 92 -77 vhcurveto
          endchar
        </CharString>
        <CharString name="kcommaaccent">
          61 callsubr
          57 -66 -107 callsubr
          -81 callsubr
        </CharString>
        <CharString name="kip">
          600 21 414 rmoveto
          -2 -17 -1 -19 -24 vvcurveto
          -46 14 -19 43 -4 vhcurveto
          -165 43 callsubr
          284 22 vlineto
          20 -72 22 -59 25 -46 rrcurveto
          -86 46 55 -41 65 hhcurveto
          29 21 8 14 14 hvcurveto
          16 16 8 28 39 vvcurveto
          31 -3 19 -6 24 vhcurveto
          -6 hlineto
          -7 -10 -10 -3 -15 hhcurveto
          -27 -32 15 60 -39 hvcurveto
          -10 15 -11 18 -12 21 rrcurveto
          6 171 vlineto
          5 17 3 20 27 vvcurveto
          45 -17 21 -43 vhcurveto
          -122 6 hlineto
          45 21 36 22 28 28 rrcurveto
          40 40 22 48 61 vvcurveto
          47 -35 23 -99 vhcurveto
          -19 hlineto
          -16 -116 -54 -99 -86 -81 rrcurveto
          -21 193 hlineto
          27 callsubr
          -176 vlineto
          endchar
        </CharString>
        <CharString name="l">
          -8 callsubr
          499 -58 callsubr
          113 callsubr
          endchar
        </CharString>
        <CharString name="l.mono">
          46 callsubr
          rlineto
          -470 -28 callsubr
          446 37 callsubr
        </CharString>
        <CharString name="l.sans">
          600 140 651 rmoveto
          -488 -25 callsubr
          364 21 callsubr
        </CharString>
        <CharString name="lacute">
          600 365 983 -106 callsubr
          -297 -833 16 callsubr
          499 -58 callsubr
          113 callsubr
          endchar
        </CharString>
        <CharString name="lacute.mono">
          600 284 983 -106 callsubr
          -265 -263 129 callsubr
          rlineto
          -470 -28 callsubr
          446 37 callsubr
        </CharString>
        <CharString name="lacute.sans">
          600 243 983 -106 callsubr
          -103 -332 rmoveto
          -488 -25 callsubr
          364 21 callsubr
        </CharString>
        <CharString name="lcommaaccent">
          -8 callsubr
          499 -58 callsubr
          113 callsubr
          -24 -216 -107 callsubr
          -81 callsubr
        </CharString>
        <CharString name="lcommaaccent.mono">
          46 callsubr
          rlineto
          -470 -28 callsubr
          446 vlineto
          63 -51 36 -99 -51 -62 -10 -30 -78 vhcurveto
          292 -786 -107 callsubr
          -81 callsubr
        </CharString>
        <CharString name="lcommaaccent.sans">
          600 140 651 rmoveto
          -488 -25 callsubr
          364 vlineto
          137 -27 33 -72 -28 -28 -6 -3 -15 vhcurveto
          14 -24 6 -42 -33 vvcurveto
          130 -717 -107 callsubr
          -81 callsubr
        </CharString>
        <CharString name="less">
          600 68 329 rmoveto
          -27 vlineto
          -28 4 -16 43 -41 vhcurveto
          93 -88 122 -82 192 -47 rrcurveto
          5 15 2 16 24 vvcurveto
          55 -12 40 -27 9 vhcurveto
          -102 33 -73 37 -80 67 rrcurveto
          6 vlineto
          80 82 83 49 135 29 rrcurveto
          23 vlineto
          43 -26 64 -39 -13 -28 -7 -17 -40 vhcurveto
          -128 -54 -128 -99 -63 -86 rrcurveto
          endchar
        </CharString>
        <CharString name="lessequal">
          600 60 409 rmoveto
          -41 vlineto
          -28 8 -23 43 -21 vhcurveto
          92 -42 144 -36 181 -17 rrcurveto
          5 15 2 29 24 vvcurveto
          40 -19 18 -25 1 vhcurveto
          -133 12 -50 7 -79 24 rrcurveto
          6 vlineto
          79 33 60 12 165 24 rrcurveto
          23 vlineto
          57 -26 39 -35 -22 -28 -5 -12 -43 vhcurveto
          -137 -37 -107 -45 -75 -57 rrcurveto
          -2 -244 121 callsubr
        </CharString>
        <CharString name="liraTurkish">
          600 121 159 rmoveto
          -71 30 -88 68 vhcurveto
          63 hlineto
          191 101 83 153 hvcurveto
          11 vlineto
          41 -27 22 -70 vhcurveto
          -41 -44 hlineto
          -95 -46 -31 -88 vhcurveto
          -45 6 hlineto
          13 39 5 55 1 84 112 callsubr
          43 vlineto
          112 callsubr
          45 vlineto
          73 -24 17 -60 -33 -34 -4 -6 -23 vhcurveto
          9 -42 6 -50 4 -90 rrcurveto
          -4 0 -3 -4 vvcurveto
          -32 -14 -27 -10 -34 -12 rrcurveto
          -6 -16 -4 -21 -18 vvcurveto
          -24 8 -13 20 21 24 8 15 32 vhcurveto
          -14 0 -14 -14 vvcurveto
          -33 -13 -27 -11 -35 -12 rrcurveto
          -6 -16 -4 -21 -18 vvcurveto
          -24 8 -13 20 21 23 8 14 32 vhcurveto
          -1 -33 0 -32 -30 vvcurveto
          endchar
        </CharString>
        <CharString name="litre">
          600 530 546 rmoveto
          7 vlineto
          134 -83 83 -124 -141 -77 -113 -89 vhcurveto
          -223 vlineto
          -19 -4 -21 -5 -22 -4 rrcurveto
          -7 -25 -3 -20 -29 vvcurveto
          -48 17 -24 23 7 7 0 5 18 vhcurveto
          -36 vlineto
          -74 74 -91 133 vhcurveto
          7 hlineto
          134 42 47 72 29 -2 14 -8 29 hvcurveto
          -6 hlineto
          -32 -53 -42 -14 -64 hhcurveto
          -25 -19 4 11 -16 hvcurveto
          -4 19 -1 21 25 vvcurveto
          23 vlineto
          215 81 60 95 132 vvcurveto
          -275 -5 rmoveto
          31 4 26 16 22 vhcurveto
          4 11 11 2 13 hhcurveto
          54 16 -27 -49 hvcurveto
          -7 vlineto
          -65 -26 -47 -99 -41 vhcurveto
          endchar
        </CharString>
        <CharString name="logicalnot">
          600 48 455 rmoveto
          -19 vlineto
          -90 24 -26 83 vhcurveto
          250 -100 hlineto
          -57 37 -31 67 13 10 1 2 8 vhcurveto
          198 vlineto
          85 -28 37 -65 vhcurveto
          endchar
        </CharString>
        <CharString name="lozenge">
          600 278 713 rmoveto
          -75 -56 -90 -122 -47 -112 rrcurveto
          -16 -35 -6 -25 -11 vvcurveto
          -11 7 -24 15 -36 vhcurveto
          42 -101 53 -80 63 -66 rrcurveto
          -41 39 13 -3 25 hhcurveto
          36 hlineto
          75 56 90 122 48 113 rrcurveto
          14 34 7 23 14 vvcurveto
          11 -6 25 -15 35 vhcurveto
          -41 100 -55 80 -63 65 rrcurveto
          42 -39 -13 3 -26 hhcurveto
          -112 -363 rmoveto
          21 73 30 56 58 68 56 -68 28 -54 21 -72 -22 -73 -31 -55 -57 -69 -56 66 -28 55 -20 73 rrcurveto
          endchar
        </CharString>
        <CharString name="lslash">
          -8 callsubr
          230 vlineto
          43 23 rlineto
          -13 callsubr
          -136 -74 rlineto
          144 -58 callsubr
          -20 34 24 38 6 20 65 vhcurveto
          4 -4 0 -177 -82 -44 rlineto
          -12 callsubr
          140 76 rlineto
          -45 vlineto
          -55 10 -38 23 -26 vhcurveto
          -3 -6 rlineto
          endchar
        </CharString>
        <CharString name="lslash.mono">
          46 callsubr
          0 -184 -75 -40 rlineto
          -12 callsubr
          133 72 rlineto
          -161 -28 callsubr
          160 vlineto
          50 27 rlineto
          -13 callsubr
          -143 -78 rlineto
          161 37 callsubr
        </CharString>
        <CharString name="lslash.sans">
          600 140 651 rmoveto
          -218 vlineto
          -60 -32 rlineto
          -12 callsubr
          118 64 rlineto
          -145 -25 callsubr
          142 vlineto
          65 35 rlineto
          -13 callsubr
          -158 -86 rlineto
          97 21 callsubr
        </CharString>
        <CharString name="m">
          600 180 hmoveto
          321 vlineto
          49 21 21 27 26 111 callsubr
          1 109 0 110 109 vvcurveto
          45 16 26 24 -89 callgsubr
          -107 28 -3 callsubr
          -16 59 -5 36 64 vvcurveto
          269 vlineto
          45 -52 79 -45 -40 -45 -48 -61 -30 vhcurveto
          -6 hlineto
          36 -2 -25 71 -40 hhcurveto
          -36 -34 -46 -61 -22 -94 callgsubr
          127 callsubr
          endchar
        </CharString>
        <CharString name="m.italic">
          600 27 542 rmoveto
          127 callsubr
          321 vlineto
          49 20 21 27 25 111 callsubr
          327 vlineto
          45 17 24 25 -89 callgsubr
          -81 24 -58 78 22 19 9 18 18 vhcurveto
          18 18 15 40 42 -34 callsubr
          -11 -8 -12 -8 -13 hhcurveto
          -4 285 hlineto
          45 -50 79 -44 -39 -44 -49 -60 -30 vhcurveto
          -6 hlineto
          36 -2 -25 71 -40 hhcurveto
          -35 -34 -46 -61 -21 -94 callgsubr
          endchar
        </CharString>
        <CharString name="macron">
          600 96 730 -98 callsubr
          endchar
        </CharString>
        <CharString name="macroncomb">
          -205 730 -98 callsubr
          endchar
        </CharString>
        <CharString name="macroncomb.case">
          -206 913 -98 callsubr
          endchar
        </CharString>
        <CharString name="manat">
          600 207 700 rmoveto
          5 -48 4 -44 4 -39 rrcurveto
          -120 -28 -80 -115 -221 vvcurveto
          -101 vlineto
          -77 8 -32 74 22 29 2 4 18 vhcurveto
          -103 callsubr
          76 vlineto
          165 27 69 54 22 vhcurveto
          3 -117 7 -122 7 -87 rrcurveto
          -58 5 15 -15 26 hhcurveto
          18 16 3 7 17 hvcurveto
          -1 32 -2 29 31 vvcurveto
          43 4 136 10 120 vhcurveto
          27 -6 21 -12 16 -13 rrcurveto
          8 -25 7 -63 -126 vvcurveto
          -82 vlineto
          -88 21 -21 75 22 13 2 4 18 vhcurveto
          -103 callsubr
          90 vlineto
          241 -63 120 -143 24 vhcurveto
          2 27 1 26 23 vvcurveto
          45 -24 17 -71 -30 -25 -4 -6 -23 vhcurveto
          endchar
        </CharString>
        <CharString name="minus">
          600 55 375 rmoveto
          -4 -21 -3 -23 -19 vvcurveto
          -67 17 -20 56 vhcurveto
          432 44 callsubr
        </CharString>
        <CharString name="mu.math">
          600 256 -11 rmoveto
          61 46 72 96 19 hvcurveto
          -85 55 -82 82 vhcurveto
          3 hlineto
          39 16 83 50 hvcurveto
          16 -7 vlineto
          -10 -11 1 4 -10 hvcurveto
          -1 13 -1 14 15 vvcurveto
          356 vlineto
          4 -15 -22 2 -23 hhcurveto
          -57 -38 -8 -54 hvcurveto
          -102 vlineto
          -186 -37 -50 -42 -52 49 callsubr
          82 70 vvcurveto
          5 vlineto
          107 -44 28 -85 -21 -17 -2 -4 -20 vhcurveto
          16 -59 5 -36 -64 vvcurveto
          -225 vlineto
          -20 7 -22 11 -20 vhcurveto
          -19 -72 -10 -67 -72 vvcurveto
          -62 48 -26 52 26 15 4 7 16 vhcurveto
          58 vlineto
          30 -10 53 -14 53 vhcurveto
          -7 19 19 -5 19 hhcurveto
          endchar
        </CharString>
        <CharString name="multiply">
          600 72 172 rmoveto
          13 -13 rlineto
          -41 41 27 -16 28 hhcurveto
          25 12 6 29 34 hvcurveto
          19 16 19 17 18 17 19 -17 18 -17 19 -16 rrcurveto
          -30 35 10 -5 22 hhcurveto
          28 27 16 41 41 hvcurveto
          13 13 rlineto
          -44 35 -43 38 -42 40 44 45 41 46 39 47 -9 15 -17 22 -13 13 rrcurveto
          29 -29 -17 10 -21 hhcurveto
          -16 -14 -9 -21 -17 hvcurveto
          -25 -30 -25 -30 -26 -29 -26 29 -25 30 -25 30 rrcurveto
          21 -17 -14 9 -16 hhcurveto
          -19 -17 -10 -29 -31 hvcurveto
          -17 -16 -11 -14 -11 -20 39 -46 43 -46 45 -45 -41 -41 -44 -38 -47 -35 rrcurveto
          endchar
        </CharString>
        <CharString name="n">
          600 216 hmoveto
          -52 callsubr
        </CharString>
        <CharString name="n.italic">
          600 46 540 rmoveto
          14 -24 6 -42 -33 vvcurveto
          -352 vlineto
          -55 24 -38 82 15 14 1 3 13 76 callsubr
          -80 -76 -75 -98 -35 vhcurveto
          -5 hlineto
          129 -3 -50 38 -70 hhcurveto
          -15 -15 -3 -3 -15 hvcurveto
          endchar
        </CharString>
        <CharString name="nacute">
          600 341 -104 callsubr
          -125 -814 rmoveto
          -52 callsubr
        </CharString>
        <CharString name="naira">
          600 235 hmoveto
          101 vlineto
          22 0 21 21 vvcurveto
          67 hlineto
          20 -61 20 -44 24 -25 rrcurveto
          -38 36 28 -7 41 hhcurveto
          24 16 3 7 16 hvcurveto
          -9 35 -3 35 36 vvcurveto
          63 67 vlineto
          5 17 3 18 25 vvcurveto
          47 -22 15 -53 2 vhcurveto
          110 vlineto
          24 -3 21 -3 19 -1 rrcurveto
          6 14 5 19 31 vvcurveto
          48 -22 25 -53 4 vhcurveto
          71 vlineto
          69 -21 31 -66 -25 -20 -3 -5 -10 vhcurveto
          -162 -59 vlineto
          -5 26 -5 25 -5 25 rrcurveto
          72 -14 -33 22 -84 hhcurveto
          -36 -24 -3 -5 -26 hvcurveto
          9 -36 4 -37 -37 vvcurveto
          -56 -82 vlineto
          -2 -10 -1 -13 -17 vvcurveto
          -50 17 -31 68 -3 vhcurveto
          -112 vlineto
          -28 5 -25 4 -22 2 rrcurveto
          -7 -21 -3 -22 -23 vvcurveto
          -45 16 -33 49 vhcurveto
          20 -58 hlineto
          -79 28 -35 63 22 14 3 4 13 vhcurveto
          -4 268 rmoveto
          -2 61 -5 62 -8 67 rrcurveto
          6 hlineto
          20 -77 17 -67 16 -58 -15 5 -14 3 -15 4 rrcurveto
          160 -53 rmoveto
          -21 73 -19 80 -17 77 14 -4 14 -4 13 -4 4 -69 8 -68 9 -81 rrcurveto
          endchar
        </CharString>
        <CharString name="napostrophe">
          600 30 790 -21 callsubr
          186 -790 rmoveto
          -52 callsubr
        </CharString>
        <CharString name="ncaron">
          600 338 -66 callsubr
          -86 -631 rmoveto
          -52 callsubr
        </CharString>
        <CharString name="ncommaaccent">
          600 216 hmoveto
          209 vlineto
          137 47 50 -27 callsubr
          -6 hlineto
          127 -3 -52 38 -70 hhcurveto
          -15 -15 -3 -3 -15 hvcurveto
          14 -24 6 -42 -33 vvcurveto
          34 callsubr
          37 -66 -107 callsubr
          -81 callsubr
        </CharString>
        <CharString name="newsheqel">
          600 215 720 rmoveto
          -80 -61 -8 -11 -41 hvcurveto
          -7 -25 -4 -22 -29 vvcurveto
          -43 9 -18 24 -6 vhcurveto
          -479 vlineto
          -62 17 -23 50 25 16 2 4 18 vhcurveto
          -5 31 -1 33 32 vvcurveto
          367 vlineto
          42 -4 26 -19 26 vhcurveto
          6 vlineto
          2 17 21 2 29 hhcurveto
          47 37 -5 -11 26 hvcurveto
          9 -49 1 -49 -79 vvcurveto
          -79 -1 -32 -6 -63 vhcurveto
          -7 12 11 -2 16 hhcurveto
          29 11 10 57 hvcurveto
          234 vlineto
          166 -43 62 -153 vhcurveto
          226 -6 rmoveto
          9 -49 5 -50 -75 vvcurveto
          -287 vlineto
          -84 -29 -21 -67 -31 -21 1 2 -23 vhcurveto
          9 47 2 77 179 vvcurveto
          52 -10 17 -37 -14 -11 -2 -4 -12 vhcurveto
          4 -36 2 -30 -33 vvcurveto
          -317 vlineto
          -63 30 -44 60 vhcurveto
          43 hlineto
          152 73 49 211 hvcurveto
          375 vlineto
          67 -24 24 -52 -25 -17 -2 -4 -16 vhcurveto
          endchar
        </CharString>
        <CharString name="nine">
          600 290 720 rmoveto
          -142 -98 -105 -155 hvcurveto
          -4 vlineto
          -133 85 -58 98 61 60 22 53 34 vhcurveto
          6 hlineto
          -4 -84 -15 -61 -23 -46 rrcurveto
          -13 -34 -36 -6 -43 hhcurveto
          -55 -43 10 24 -50 hvcurveto
          -6 hlineto
          -3 -15 -2 -16 -23 vvcurveto
          -58 18 -25 14 -14 vhcurveto
          -14 14 33 -19 85 hhcurveto
          164 142 69 331 hvcurveto
          7 vlineto
          236 -110 97 -150 vhcurveto
          -80 -309 rmoveto
          -8 14 -2 16 28 vvcurveto
          6 vlineto
          56 30 48 74 24 23 -3 -5 22 vhcurveto
          12 -22 10 -54 1 -76 rrcurveto
          -13 -41 -39 -7 -36 hhcurveto
          -25 -26 5 7 -19 hvcurveto
          endchar
        </CharString>
        <CharString name="nineinferior">
          600 290 343 57 callsubr
        </CharString>
        <CharString name="ninesuperior">
          600 290 742 57 callsubr
        </CharString>
        <CharString name="notequal">
          600 57 250 rmoveto
          -4 -21 -3 -23 -19 vvcurveto
          -67 17 -20 56 vhcurveto
          28 hlineto
          -10 -20 -10 -19 -11 -19 -16 -29 -10 -15 -16 -22 rrcurveto
          -10 18 27 -6 34 hhcurveto
          56 22 16 40 24 hvcurveto
          16 27 16 28 14 29 rrcurveto
          257 19 hlineto
          108 -19 23 -88 vhcurveto
          -80 hlineto
          13 33 13 33 12 34 rrcurveto
          142 -86 callsubr
          67 -17 20 -56 vhcurveto
          -29 hlineto
          11 40 10 40 9 42 rrcurveto
          7 -23 -31 5 -28 hhcurveto
          -52 -23 -22 -29 -7 hvcurveto
          -6 -28 -7 -28 -8 -27 rrcurveto
          -255 -19 hlineto
          -108 19 -23 88 vhcurveto
          102 hlineto
          -12 -34 -12 -33 -14 -33 rrcurveto
          endchar
        </CharString>
        <CharString name="ntilde">
          -41 callsubr
          -180 -765 rmoveto
          -52 callsubr
        </CharString>
        <CharString name="numbersign">
          600 12 280 rmoveto
          -19 vlineto
          -48 10 -27 16 -16 vhcurveto
          10 -10 12 -5 19 -3 -21 -53 -24 -53 -28 -52 10 -8 12 -4 29 0 38 -1 28 8 27 53 18 36 17 36 14 36 rrcurveto
          90 hlineto
          -21 -53 -24 -53 -28 -52 rrcurveto
          -8 10 12 -4 29 hhcurveto
          38 27 8 51 26 hvcurveto
          19 37 17 37 15 37 rrcurveto
          151 -86 callsubr
          51 -17 16 -56 vhcurveto
          -37 hlineto
          16 48 13 47 10 45 rrcurveto
          91 19 hlineto
          48 -10 27 -16 16 vhcurveto
          -9 9 -12 6 -18 3 6 36 4 34 3 32 rrcurveto
          57 5 -25 12 -44 hhcurveto
          -16 -17 -1 -4 -15 hvcurveto
          -5 -51 -8 -55 -10 -58 rrcurveto
          -89 hlineto
          6 35 4 34 3 31 rrcurveto
          59 6 -25 11 -44 hhcurveto
          -16 -17 0 -4 -16 hvcurveto
          -5 -51 -7 -56 -11 -59 rrcurveto
          -109 hlineto
          -9 -21 -4 -23 -19 vvcurveto
          -51 17 -16 56 vhcurveto
          23 hlineto
          -11 -46 -13 -47 -14 -47 rrcurveto
          122 hmoveto
          16 48 12 47 11 45 rrcurveto
          88 hlineto
          -11 -46 -13 -47 -14 -47 rrcurveto
          endchar
        </CharString>
        <CharString name="o">
          -11 callsubr
          -82 callsubr
        </CharString>
        <CharString name="oacute">
          600 341 -104 callsubr
          -37 -262 -88 callsubr
          -82 callsubr
        </CharString>
        <CharString name="obreve">
          600 300 -61 callsubr
          4 -189 -88 callsubr
          -82 callsubr
        </CharString>
        <CharString name="ocircumflex">
          600 261 -95 callsubr
          7 -260 -88 callsubr
          -82 callsubr
        </CharString>
        <CharString name="odieresis">
          600 112 -70 callsubr
          -28 -217 -88 callsubr
          -82 callsubr
        </CharString>
        <CharString name="odotbelow">
          -11 callsubr
          -176 113 -80 132 151 104 103 151 vhcurveto
          14 vlineto
          204 -116 92 -130 vhcurveto
          19 -140 rmoveto
          31 19 -2 -6 16 hvcurveto
          11 -41 5 -46 -56 vvcurveto
          -7 vlineto
          -91 -42 -35 -91 -30 -18 2 4 -18 vhcurveto
          -7 29 -4 34 42 vvcurveto
          7 vlineto
          119 42 47 86 vhcurveto
          -117 -478 -100 callsubr
        </CharString>
        <CharString name="ogonek">
          600 331 23 rmoveto
          -71 -10 -78 -54 -88 -38 callsubr
          -88 callgsubr
        </CharString>
        <CharString name="ogonekcomb">
          -34 23 rmoveto
          -71 -10 -78 -54 -88 -38 callsubr
          -88 callgsubr
        </CharString>
        <CharString name="ogonekcomb.case">
          -36 40 rmoveto
          -111 -19 -51 -62 -90 -59 callsubr
          36 callsubr
          -16 22 -24 22 -21 -4 rrcurveto
          endchar
        </CharString>
        <CharString name="ograve">
          600 259 -67 callsubr
          45 -262 -88 callsubr
          -82 callsubr
        </CharString>
        <CharString name="ohm">
          600 302 720 rmoveto
          -156 -96 -130 -208 hvcurveto
          -16 vlineto
          -99 31 -65 72 -46 vhcurveto
          -6 -108 vlineto
          -5 -19 -3 -21 -18 vvcurveto
          -59 35 -33 62 vhcurveto
          31 hlineto
          71 31 28 65 22 -3 14 -9 21 hvcurveto
          -35 11 -20 54 84 vvcurveto
          13 vlineto
          171 36 88 72 28 11 -2 -10 24 vhcurveto
          19 -36 10 -53 -69 vvcurveto
          -13 vlineto
          -169 -12 -53 -43 -16 vhcurveto
          -7 -17 -3 -17 -23 vvcurveto
          -62 25 -31 77 vhcurveto
          118 hlineto
          5 20 3 21 17 vvcurveto
          65 -18 27 -44 vhcurveto
          -55 7 hlineto
          76 55 28 65 121 vvcurveto
          16 vlineto
          201 -86 105 -162 vhcurveto
          endchar
        </CharString>
        <CharString name="ohungarumlaut">
          600 441 815 -102 callsubr
          -230 -1 -102 callsubr
          93 -262 -88 callsubr
          -82 callsubr
        </CharString>
        <CharString name="omacron">
          600 95 732 -98 callsubr
          -128 -180 -88 callsubr
          -82 callsubr
        </CharString>
        <CharString name="one">
          600 80 150 rmoveto
          -40 vlineto
          -38 8 -34 18 -18 vhcurveto
          -15 15 20 -5 46 hhcurveto
          369 hlineto
          4 12 2 15 16 vvcurveto
          59 -47 42 -105 5 vhcurveto
          509 85 callsubr
          -269 hlineto
          -45 14 -36 24 -15 vhcurveto
          -6 vlineto
          endchar
        </CharString>
        <CharString name="one.sans">
          600 418 hmoveto
          -6 34 -2 34 62 vvcurveto
          528 85 callsubr
          -427 hlineto
          -70 21 -32 68 25 28 2 6 16 vhcurveto
          endchar
        </CharString>
        <CharString name="oneeighth">
          600 25 464 64 callsubr
          211 -53 -84 callsubr
          81 -68 -60 callsubr
          -183 -54 -48 callsubr
          180 -104 -62 callsubr
        </CharString>
        <CharString name="onehalf">
          600 25 464 64 callsubr
          211 -53 -84 callsubr
          219 -444 -32 callsubr
          -88 322 -48 callsubr
          endchar
        </CharString>
        <CharString name="oneinferior">
          600 174 60 64 callsubr
          endchar
        </CharString>
        <CharString name="onequarter">
          600 25 464 64 callsubr
          211 -53 -84 callsubr
          201 -441 -31 callsubr
          -303 319 -48 callsubr
          endchar
        </CharString>
        <CharString name="onesuperior">
          600 174 464 64 callsubr
          endchar
        </CharString>
        <CharString name="onethird">
          600 25 464 64 callsubr
          211 -53 -84 callsubr
          200 -168 -63 callsubr
          -302 46 -48 callsubr
          endchar
        </CharString>
        <CharString name="oogonek">
          -11 callsubr
          -154 87 -81 110 -17 vhcurveto
          -26 -26 -18 -34 -42 104 callsubr
          24 18 16 26 12 hvcurveto
          114 26 75 93 128 vvcurveto
          79 callsubr
        </CharString>
        <CharString name="ordfeminine">
          600 202 290 rmoveto
          56 59 56 80 28 hvcurveto
          6 hlineto
          -78 41 -56 61 20 16 7 13 13 vhcurveto
          19 19 10 31 35 vvcurveto
          12 0 13 -3 12 vhcurveto
          -6 hlineto
          -12 -10 -10 -5 -15 hhcurveto
          -3 -5 0 1 -2 hvcurveto
          208 vlineto
          99 -33 30 -41 -15 -12 -1 -1 -14 vhcurveto
          -5 -21 -3 -18 -2 -21 rrcurveto
          -6 hlineto
          41 -18 -37 26 -42 hhcurveto
          -83 -92 -81 -198 hvcurveto
          -19 vlineto
          -93 63 -79 65 vhcurveto
          6 134 rmoveto
          -3 17 -2 18 32 vvcurveto
          9 vlineto
          91 30 49 63 23 17 -7 -13 15 vhcurveto
          -72 vlineto
          -90 -30 -45 -35 -57 hhcurveto
          -3 -4 0 1 -4 hvcurveto
          endchar
        </CharString>
        <CharString name="ordmasculine">
          600 304 762 rmoveto
          -121 -83 -99 -145 hvcurveto
          -14 vlineto
          -150 90 -68 105 121 84 87 129 vhcurveto
          14 vlineto
          170 -92 76 -104 vhcurveto
          -5 -107 rmoveto
          24 17 -3 -7 15 hvcurveto
          11 -26 6 -39 -59 vvcurveto
          -10 vlineto
          -83 -26 -32 -55 -22 -17 4 6 -16 vhcurveto
          -7 21 -4 27 38 vvcurveto
          8 vlineto
          112 25 43 49 vhcurveto
          endchar
        </CharString>
        <CharString name="oslash">
          -11 callsubr
          55 callsubr
        </CharString>
        <CharString name="oslashacute">
          600 341 829 -102 callsubr
          -37 -277 -88 callsubr
          55 callsubr
        </CharString>
        <CharString name="otilde">
          -41 callsubr
          -92 -213 -88 callsubr
          -82 callsubr
        </CharString>
        <CharString name="overline">
          600 50 950 -97 callgsubr
        </CharString>
        <CharString name="p">
          600 45 540 rmoveto
          14 -24 6 -42 -33 vvcurveto
          -476 vlineto
          -81 -7 callsubr
          258 5 vlineto
          -41 20 49 -39 61 119 callsubr
          -7 hlineto
          119 -6 -57 35 -61 hhcurveto
          -15 -15 -3 -3 -15 hvcurveto
          341 -149 126 callsubr
          -33 -26 8 16 -21 vhcurveto
          83 vlineto
          112 40 57 40 74 hhcurveto
          endchar
        </CharString>
        <CharString name="paragraph">
          600 373 573 rmoveto
          10 10 0 10 hhcurveto
          -643 vlineto
          -64 24 -26 55 23 15 2 5 18 vhcurveto
          -9 36 -4 37 40 vvcurveto
          503 vlineto
          45 -5 25 -20 23 vhcurveto
          6 vlineto
          22 -4 21 -6 23 -8 rrcurveto
          6 hlineto
          5 20 2 17 20 vvcurveto
          30 -8 21 -17 17 vhcurveto
          24 -24 -51 17 -99 hhcurveto
          -3 hlineto
          -205 -141 -121 -177 hvcurveto
          -10 vlineto
          -108 55 -68 83 vhcurveto
          6 hlineto
          18 14 2 5 13 hvcurveto
          -307 vlineto
          -60 21 -26 57 20 12 3 7 12 vhcurveto
          610 vlineto
          49 -6 23 -19 25 vhcurveto
          7 vlineto
          6 15 18 3 23 hhcurveto
          endchar
        </CharString>
        <CharString name="parenleft">
          600 316 722 rmoveto
          -94 -94 -52 -156 -169 vvcurveto
          -9 vlineto
          -169 53 -157 93 -93 vhcurveto
          -33 33 30 -15 36 hhcurveto
          45 28 16 21 22 hvcurveto
          6 vlineto
          -104 101 -66 158 165 vvcurveto
          9 vlineto
          164 65 159 105 101 vhcurveto
          6 vlineto
          21 -22 -28 16 -45 hhcurveto
          -36 -30 -15 -33 -33 hvcurveto
          endchar
        </CharString>
        <CharString name="parenright">
          600 284 -125 rmoveto
          94 94 52 156 169 vvcurveto
          9 vlineto
          169 -53 157 -93 93 vhcurveto
          33 -33 -30 15 -36 hhcurveto
          -45 -28 -16 -21 -22 hvcurveto
          -6 vlineto
          104 -101 66 -158 -165 vvcurveto
          -9 vlineto
          -164 -65 -159 -105 -101 vhcurveto
          -6 vlineto
          -21 22 28 -16 45 hhcurveto
          36 30 15 33 33 hvcurveto
          endchar
        </CharString>
        <CharString name="partialdiff">
          600 252 492 rmoveto
          -107 -95 -99 -145 hvcurveto
          -14 vlineto
          -169 113 -77 132 155 100 98 186 vhcurveto
          14 vlineto
          176 -61 161 -99 99 vhcurveto
          32 -32 -28 16 -35 hhcurveto
          -40 -24 -17 -20 -21 hvcurveto
          -4 vlineto
          86 -84 57 -85 29 -106 rrcurveto
          23 -32 -44 15 -54 hhcurveto
          -57 -263 rmoveto
          7 vlineto
          83 35 36 67 50 25 -8 -19 31 vhcurveto
          1 -21 1 -21 -22 vvcurveto
          -10 vlineto
          -91 -42 -35 -91 -27 -20 4 9 -15 vhcurveto
          -10 21 -5 29 38 vvcurveto
          endchar
        </CharString>
        <CharString name="percent">
          86 callsubr
          -179 299 107 callsubr
          -65 -186 94 callsubr
          338 -180 107 callsubr
          -184 -55 98 callsubr
          119 -131 94 callsubr
          endchar
        </CharString>
        <CharString name="period">
          600 404 hmoveto
          -20 callsubr
        </CharString>
        <CharString name="periodcentered">
          600 404 203 rmoveto
          -20 callsubr
        </CharString>
        <CharString name="perthousand">
          600 288 566 rmoveto
          5 vlineto
          81 -58 58 -79 -85 -57 -61 -89 vhcurveto
          -5 vlineto
          -85 51 -54 84 88 56 58 92 vhcurveto
          -237 -306 rmoveto
          208 52 164 61 119 90 rrcurveto
          16 12 19 23 52 vvcurveto
          35 -4 52 -12 22 vhcurveto
          -123 -139 -207 -128 -190 -65 rrcurveto
          -11 -17 -3 -10 -14 vvcurveto
          -21 10 -8 14 3 vhcurveto
          41 296 rmoveto
          14 callsubr
          496 -416 rmoveto
          5 vlineto
          81 -58 58 -79 -45 -37 -20 -34 -23 vhcurveto
          33 -21 -34 21 -40 hhcurveto
          -85 -57 -61 -89 hvcurveto
          -5 vlineto
          -85 51 -54 84 43 34 18 33 21 vhcurveto
          -33 21 35 -18 46 hhcurveto
          88 56 58 92 hvcurveto
          -396 -10 rmoveto
          14 callsubr
          200 hmoveto
          14 callsubr
          endchar
        </CharString>
        <CharString name="peso">
          600 51 700 rmoveto
          -4 -17 -2 -17 -23 vvcurveto
          -53 9 -15 21 -4 vhcurveto
          -46 -84 callgsubr
          -32 -84 callgsubr
          -156 vlineto
          -79 23 -30 82 22 13 2 4 18 vhcurveto
          -103 callsubr
          11 0 13 -1 15 vhcurveto
          6 hlineto
          -29 35 35 -8 44 hhcurveto
          75 64 39 121 31 hvcurveto
          -3 32 25 -1 16 hhcurveto
          5 17 3 21 21 vvcurveto
          52 -17 11 -43 vhcurveto
          -4 hlineto
          1 9 0 10 11 vvcurveto
          -2 24 18 -1 13 hhcurveto
          5 17 3 21 21 vvcurveto
          52 -17 11 -43 vhcurveto
          -3 hlineto
          122 -11 -86 73 -157 hhcurveto
          -90 -49 -6 -14 -85 hvcurveto
          133 -120 rmoveto
          6 vlineto
          2 21 26 2 31 hhcurveto
          47 43 -6 -10 27 hvcurveto
          2 -9 1 -22 1 -18 rrcurveto
          -163 hlineto
          -5 23 -9 17 -22 15 rrcurveto
          38 -204 rmoveto
          25 0 24 23 vvcurveto
          60 -11 54 -8 47 -7 rrcurveto
          -17 -1 -15 -14 vvcurveto
          -94 -156 rmoveto
          -21 -25 2 4 -21 hvcurveto
          23 0 25 25 vvcurveto
          54 -9 48 -8 43 -6 rrcurveto
          -45 -16 -26 -11 -36 hhcurveto
          endchar
        </CharString>
        <CharString name="pi">
          600 49 540 rmoveto
          -5 -15 -3 -22 -23 vvcurveto
          -65 12 -25 44 vhcurveto
          2 -334 hlineto
          -54 40 -8 57 23 20 2 4 15 vhcurveto
          262 vlineto
          66 -11 30 -24 26 vhcurveto
          6 118 -264 vlineto
          -70 65 -66 82 vhcurveto
          3 hlineto
          39 16 83 50 hvcurveto
          16 -17 vlineto
          -9 -10 1 5 -15 hvcurveto
          -3 15 -1 16 19 vvcurveto
          98 vlineto
          41 -8 26 -28 24 vhcurveto
          6 94 vlineto
          -65 callsubr
          -17 21 -56 vhcurveto
          endchar
        </CharString>
        <CharString name="plus">
          600 49 375 rmoveto
          -4 -17 -3 -23 -23 vvcurveto
          -66 26 -21 77 vhcurveto
          81 -47 hlineto
          -93 26 -35 69 20 14 2 6 21 vhcurveto
          167 182 vlineto
          2 23 1 20 20 vvcurveto
          67 -24 20 -79 vhcurveto
          -82 74 -103 callgsubr
          -65 vlineto
          endchar
        </CharString>
        <CharString name="plusminus">
          600 49 479 rmoveto
          -4 -12 -3 -20 -16 vvcurveto
          -66 25 -21 78 vhcurveto
          81 -23 hlineto
          -71 26 -27 69 20 14 2 6 21 vhcurveto
          113 182 vlineto
          2 16 1 18 14 vvcurveto
          67 -24 20 -79 vhcurveto
          -82 20 -103 callgsubr
          -11 vlineto
          -177 -309 rmoveto
          -4 -13 -3 -22 -18 vvcurveto
          -66 25 -21 78 vhcurveto
          413 hlineto
          2 18 1 20 15 vvcurveto
          67 -24 20 -79 vhcurveto
          endchar
        </CharString>
        <CharString name="product">
          600 37 700 rmoveto
          -6 -16 -3 -21 -22 vvcurveto
          -42 2 -49 55 vhcurveto
          -490 vlineto
          -51 22 -17 84 25 15 2 3 14 vhcurveto
          423 vlineto
          64 -10 30 -29 30 vhcurveto
          6 149 -480 vlineto
          -65 22 -15 84 25 19 2 5 -4 callsubr
          342 vlineto
          53 -8 21 -28 18 vhcurveto
          6 79 vlineto
          4 15 2 20 23 vvcurveto
          51 -8 41 -54 vhcurveto
          endchar
        </CharString>
        <CharString name="q">
          600 398 543 rmoveto
          -7 -25 -3 -22 -2 -24 rrcurveto
          -6 hlineto
          41 -20 -49 39 -61 hhcurveto
          -83 callgsubr
          76 76 74 86 32 vhcurveto
          6 -181 hlineto
          -81 -7 callsubr
          579 vlineto
          119 -40 36 -51 -17 -13 -1 -2 -16 vhcurveto
          -197 -393 rmoveto
          -4 20 -2 22 38 vvcurveto
          11 vlineto
          108 36 59 74 33 26 -8 -16 21 vhcurveto
          -97 vlineto
          -101 -41 -57 -37 -73 hhcurveto
          -4 -4 0 1 -5 hvcurveto
          endchar
        </CharString>
</ttFont>
